<?xml version="1.0" standalone="no"?>
<!DOCTYPE svg PUBLIC "-//W3C//DTD SVG 1.1//EN" "http://www.w3.org/Graphics/SVG/1.1/DTD/svg11.dtd" >
<svg xmlns="http://www.w3.org/2000/svg" xmlns:xlink="http://www.w3.org/1999/xlink" version="1.1">
<metadata>
Created by FontForge 20161013 at Wed Oct 29 11:01:12 2014
 By ,,,
Copyright (c) 2004 - 2007 Linotype GmbH, www.linotype.com. All rights reserved.
</metadata>
<defs>
<font id="AvenirNext-DemiBoldItalic" horiz-adv-x="584" >
  <font-face 
    font-family="Avenir Next Demi Bold"
    font-weight="600"
    font-style="italic"
    font-stretch="normal"
    units-per-em="1000"
    panose-1="2 11 7 3 2 2 2 9 2 4"
    ascent="800"
    descent="-200"
    x-height="480"
    cap-height="708"
    bbox="-460 -448 1495 1205"
    underline-thickness="50"
    underline-position="-200"
    unicode-range="U+000D-FE48"
  />
<missing-glyph horiz-adv-x="512" 
d="M222 117v67h56v-67h-56zM225 234l-2 17q0 56 13 81q7 13 18 27.5t28 31.5q16 15 26 26.5t15 21t7 18t2 17.5q0 36 -22.5 60.5t-53.5 24.5t-53.5 -22t-28.5 -73l-50 8q7 72 44 104.5t91 32.5t89 -35.5t35 -95.5q0 -32 -12.5 -58.5t-50.5 -61.5q-37 -33 -43 -52
q-6 -20 -6 -72h-46zM462 50v617h-412v-617h412zM512 718v-718h-512v718h512z" />
    <glyph glyph-name="IJ" unicode="IJ" horiz-adv-x="782" 
d="M25 0l125 708h123l-125 -708h-123zM693 228q-7 -41 -20.5 -84.5t-40 -79.5t-69 -59t-107.5 -23q-85 0 -137 43t-61 112l115 33q4 -33 25 -56t55 -23q29 0 49 10.5t33.5 29.5t21.5 45t13 56l84 476h124z" />
    <glyph glyph-name="ij" unicode="ij" horiz-adv-x="539" 
d="M21 0l84 480h118l-85 -480h-117zM262 645q0 -29 -20.5 -51t-50.5 -22q-29 0 -49.5 18t-20.5 51q0 32 22 52.5t51 20.5t48.5 -18.5t19.5 -50.5zM405 -32q-8 -42 -20.5 -80t-35 -66.5t-58 -45t-88.5 -16.5q-15 0 -29.5 2t-23.5 4l23 100q8 -2 16.5 -3t15.5 -1q21 0 35 8
t23 22t14 32.5t9 39.5l91 516h118zM534 645q0 -29 -20.5 -51t-50.5 -22q-29 0 -49.5 18t-20.5 51q0 32 22 52.5t51 20.5t48.5 -18.5t19.5 -50.5z" />
    <glyph glyph-name="napostrophe" unicode="&#x22;n" horiz-adv-x="619" 
d="M240 405q25 39 63.5 63.5t92.5 24.5q40 0 69.5 -12t49 -32t29 -47.5t9.5 -57.5q0 -25 -4 -45l-53 -299h-117l46 264q2 12 3.5 24t1.5 24q0 32 -17 56.5t-62 24.5q-29 0 -51 -11t-38.5 -29.5t-27 -41.5t-14.5 -47l-47 -264h-117l66 377q4 19 8.5 49t6.5 54h110
q-1 -11 -4 -34.5t-5 -40.5h2zM126 513h-98l107 195h114z" />
    <glyph glyph-name="fi" unicode="fi" horiz-adv-x="601" 
d="M355 0l84 480h118l-85 -480h-117zM596 645q0 -29 -20.5 -51t-50.5 -22q-29 0 -49.5 18t-20.5 51q0 32 22 52.5t51 20.5t48.5 -18.5t19.5 -50.5zM385 661q-9 3 -18.5 5t-22.5 2q-24 0 -41 -10t-27.5 -26t-17 -35.5t-9.5 -37.5l-14 -79h113l-17 -94h-111l-68 -386h-114
l68 386h-91l16 94h89l14 73q7 40 21.5 78.5t40 69t63.5 49t92 18.5q35 0 59 -7z" />
    <glyph glyph-name="fl" unicode="fl" horiz-adv-x="600" 
d="M355 0l133 756h117l-133 -756h-117zM385 661q-9 3 -18.5 5t-22.5 2q-24 0 -41 -10t-27.5 -26t-17 -35.5t-9.5 -37.5l-14 -79h113l-17 -94h-111l-68 -386h-114l68 386h-91l16 94h89l14 73q7 40 21.5 78.5t40 69t63.5 49t92 18.5q35 0 59 -7z" />
    <glyph glyph-name=".notdef" horiz-adv-x="512" 
d="M222 117v67h56v-67h-56zM225 234l-2 17q0 56 13 81q7 13 18 27.5t28 31.5q16 15 26 26.5t15 21t7 18t2 17.5q0 36 -22.5 60.5t-53.5 24.5t-53.5 -22t-28.5 -73l-50 8q7 72 44 104.5t91 32.5t89 -35.5t35 -95.5q0 -32 -12.5 -58.5t-50.5 -61.5q-37 -33 -43 -52
q-6 -20 -6 -72h-46zM462 50v617h-412v-617h412zM512 718v-718h-512v718h512z" />
    <glyph glyph-name=".null" horiz-adv-x="500" 
 />
    <glyph glyph-name=".null" horiz-adv-x="500" 
 />
    <glyph glyph-name="nonmarkingreturn" unicode="&#xd;" horiz-adv-x="0" 
 />
    <glyph glyph-name="space" unicode=" " horiz-adv-x="250" 
 />
    <glyph glyph-name="exclam" unicode="!" horiz-adv-x="295" 
d="M74 221l86 487h117l-86 -487h-117zM186 72q0 -31 -21.5 -53.5t-52.5 -22.5q-30 0 -51.5 18.5t-21.5 53.5q0 33 23 54.5t53 21.5t50.5 -19.5t20.5 -52.5z" />
    <glyph glyph-name="quotedbl" unicode="&#x22;" horiz-adv-x="450" 
d="M277 445l46 263h100l-46 -263h-100zM101 445l47 263h100l-47 -263h-100z" />
    <glyph glyph-name="numbersign" unicode="#" horiz-adv-x="590" 
d="M461 416l-39 -124h90l-14 -83h-100l-68 -209h-86l67 209h-105l-67 -209h-86l67 209h-91l15 83h101l40 124h-90l14 83h102l67 209h86l-66 -209h104l67 209h86l-67 -209h90l-15 -83h-102zM271 416l-39 -124h104l40 124h-105z" />
    <glyph glyph-name="dollar" unicode="$" horiz-adv-x="610" 
d="M340 618q-45 -3 -75.5 -28.5t-30.5 -74.5q0 -33 18 -53.5t55 -33.5zM297 91q51 3 81.5 32.5t30.5 77.5q0 39 -19.5 61t-54.5 36zM371 792h50l-13 -73q58 -5 102.5 -26t70.5 -56l-89 -71q-17 22 -41.5 37t-59.5 16l-37 -207q43 -17 75.5 -35.5t54.5 -41.5t33.5 -52.5
t11.5 -68.5q0 -46 -17 -85t-49.5 -68.5t-78.5 -48t-104 -22.5l-13 -74h-50l13 74q-63 3 -120 29t-89 80l96 68q19 -32 55 -54t76 -22l39 225q-33 10 -64 25.5t-54 38t-37 52t-14 68.5q0 46 16.5 85.5t47.5 68.5t75.5 46.5t100.5 19.5z" />
    <glyph glyph-name="percent" unicode="%" horiz-adv-x="903" 
d="M233 354q-35 0 -65 12t-51.5 33t-33.5 49.5t-12 61.5q0 44 15.5 82t43.5 66.5t65.5 45t82.5 16.5q36 0 65.5 -11.5t50.5 -32t32.5 -49t11.5 -61.5q0 -45 -15.5 -83.5t-42.5 -67t-64.5 -45t-82.5 -16.5zM342 552q0 32 -19.5 55.5t-54.5 23.5q-45 0 -73 -31t-28 -78
q0 -32 19.5 -55.5t53.5 -23.5q47 0 74.5 31t27.5 78zM642 -11q-35 0 -65 12t-51.5 33t-33.5 49.5t-12 61.5q0 44 15.5 82t43.5 66.5t65.5 45t82.5 16.5q36 0 65.5 -11.5t50.5 -32t32.5 -49t11.5 -61.5q0 -45 -15.5 -83.5t-42.5 -67t-64.5 -45t-82.5 -16.5zM751 187
q0 32 -19.5 55.5t-54.5 23.5q-45 0 -73 -31t-28 -78q0 -32 19.5 -55.5t53.5 -23.5q47 0 74.5 31t27.5 78zM217 -33l-62 39l547 734l62 -39z" />
    <glyph glyph-name="ampersand" unicode="&#x26;" horiz-adv-x="739" 
d="M275 321q-26 -9 -49.5 -21t-40.5 -28t-27 -37.5t-10 -48.5q0 -21 8.5 -39t23 -30.5t34 -19.5t41.5 -7q44 0 78.5 21t65.5 59zM442 558q0 33 -19 53t-53 20q-40 0 -64.5 -26t-24.5 -65q0 -26 12 -54.5t28 -46.5q25 9 47 21.5t38.5 27.5t26 32.5t9.5 37.5zM469 252l86 122
h142l-158 -201l147 -173h-146l-70 89q-58 -58 -113 -80.5t-112 -22.5q-48 0 -88 12t-69 36t-45.5 59.5t-16.5 82.5q0 42 15 77t40.5 62.5t60.5 48t74 35.5q-20 29 -32.5 63t-12.5 72q0 44 15.5 79.5t42 60.5t62.5 38.5t77 13.5q39 0 73 -11t58.5 -32t39 -51t14.5 -69
q0 -67 -48 -114t-130 -83z" />
    <glyph glyph-name="quotesingle" unicode="'" horiz-adv-x="274" 
d="M101 445l46 263h100l-46 -263h-100z" />
    <glyph glyph-name="parenleft" unicode="(" horiz-adv-x="320" 
d="M101 -155q-38 69 -58.5 153.5t-20.5 176.5q0 142 57 282.5t178 274.5l73 -54q-53 -59 -91.5 -122t-64 -127.5t-38 -128.5t-12.5 -124q0 -75 17.5 -150.5t49.5 -137.5z" />
    <glyph glyph-name="parenright" unicode=")" horiz-adv-x="320" 
d="M212 733q38 -69 58.5 -153.5t20.5 -176.5q0 -142 -57 -282.5t-178 -274.5l-73 54q52 58 91 121.5t64.5 128t38 128.5t12.5 124q0 75 -17.5 150.5t-49.5 137.5z" />
    <glyph glyph-name="asterisk" unicode="*" horiz-adv-x="462" 
d="M312 563l137 45l25 -75l-139 -45l87 -119l-65 -47l-87 120l-85 -117l-63 47l87 116l-140 48l25 75l139 -48v145h79v-145z" />
    <glyph glyph-name="plus" unicode="+" horiz-adv-x="666" 
d="M282 354v220h102v-220h220v-102h-220v-220h-102v220h-220v102h220z" />
    <glyph glyph-name="comma" unicode="," horiz-adv-x="260" 
d="M48 -127h-99l116 263h114z" />
    <glyph glyph-name="hyphen" unicode="-" horiz-adv-x="320" 
d="M21 196l18 100h239l-18 -100h-239z" />
    <glyph glyph-name="period" unicode="." horiz-adv-x="260" 
d="M159 72q0 -31 -21.5 -53.5t-52.5 -22.5q-30 0 -51.5 18.5t-21.5 53.5q0 33 23 54.5t53 21.5t50.5 -19.5t20.5 -52.5z" />
    <glyph glyph-name="slash" unicode="/" horiz-adv-x="388" 
d="M11 -47l-76 30l448 773l76 -31z" />
    <glyph glyph-name="zero" unicode="0" horiz-adv-x="610" 
d="M367 726q56 0 95.5 -19.5t64 -53t36 -78t11.5 -93.5q0 -51 -6.5 -108t-21.5 -112.5t-39 -106t-58.5 -89t-80.5 -61.5t-105 -23q-56 0 -96 19t-65.5 51t-37.5 75.5t-12 93.5q0 52 7 109.5t22.5 113.5t40.5 107t60 90t81 62t104 23zM357 627q-41 0 -75 -33.5t-58 -88
t-37.5 -123.5t-13.5 -139q0 -33 5 -62t16.5 -51t30.5 -34.5t46 -12.5q40 0 73 33.5t57 87.5t37 123t13 140q0 33 -4.5 62t-15.5 51t-29 34.5t-45 12.5z" />
    <glyph glyph-name="one" unicode="1" horiz-adv-x="610" 
d="M225 0l100 565l-160 -115l-56 90l245 168h114l-125 -708h-118z" />
    <glyph glyph-name="two" unicode="2" horiz-adv-x="610" 
d="M503 108l-19 -108h-470l19 108l316 265q58 49 81 85t23 73q0 45 -27 70t-78 25q-48 0 -83 -29.5t-52 -83.5l-108 31q33 91 100.5 136.5t150.5 45.5q52 0 92.5 -14t68.5 -38.5t43 -59t15 -74.5t-11 -72.5t-32.5 -61.5t-52 -57.5t-69.5 -60.5l-219 -180h312z" />
    <glyph glyph-name="three" unicode="3" horiz-adv-x="610" 
d="M265 416q87 0 125 34t38 91q0 37 -25.5 62t-70.5 25q-46 0 -76 -21t-51 -59l-88 53q36 64 94.5 94.5t130.5 30.5q42 0 78.5 -12.5t64.5 -35.5t44 -57t16 -76q0 -40 -12.5 -70t-32.5 -51.5t-45.5 -35t-52.5 -19.5v-2q53 -12 84.5 -53.5t31.5 -95.5q0 -56 -20 -100t-55 -74
t-83.5 -46t-105.5 -16q-88 0 -147 41t-82 115l111 35q11 -44 43.5 -66.5t81.5 -22.5q66 0 100.5 33.5t34.5 88.5q0 32 -13 54.5t-34 36t-48.5 19.5t-55.5 6h-30l16 94h34v0z" />
    <glyph glyph-name="four" unicode="4" horiz-adv-x="610" 
d="M439 148l-25 -148h-114l25 148h-330l19 109l371 451h150l-81 -459h100l-18 -101h-97zM401 583h-4l-263 -334h207z" />
    <glyph glyph-name="five" unicode="5" horiz-adv-x="610" 
d="M228 448q14 4 35 6.5t40 2.5q37 0 75.5 -11.5t70 -36t51.5 -64.5t20 -97q0 -68 -22.5 -118t-60 -83t-85 -49t-97.5 -16q-45 0 -83 11t-68.5 30.5t-52 45t-31.5 55.5l107 44q13 -38 45.5 -61t78.5 -23q36 0 63.5 11.5t46 31.5t28.5 48t10 60q0 33 -12 57t-31.5 39
t-44.5 22.5t-52 7.5q-38 0 -80.5 -11.5t-78.5 -31.5l77 390h378l-21 -105h-272z" />
    <glyph glyph-name="six" unicode="6" horiz-adv-x="610" 
d="M140 197q0 -27 10 -48.5t27 -36.5t39 -23t46 -8q70 0 110.5 43t40.5 114q0 28 -10 50t-26 37t-37 22.5t-43 7.5q-36 0 -65.5 -12t-49.5 -33.5t-31 -50.5t-11 -62zM270 438q9 3 22.5 5t25.5 2q52 0 92 -16t67 -43.5t41 -63.5t14 -76q0 -53 -18.5 -101t-53.5 -84t-86 -57.5
t-117 -21.5q-51 0 -94 15t-74.5 42.5t-49.5 67.5t-18 90q0 53 23.5 107t77.5 120l232 284h143l-228 -268z" />
    <glyph glyph-name="seven" unicode="7" horiz-adv-x="610" 
d="M177 0h-147l423 602h-340l18 106h470l-19 -108z" />
    <glyph glyph-name="eight" unicode="8" horiz-adv-x="610" 
d="M165 189q0 -29 9.5 -49t25 -33t35.5 -19t41 -6q69 0 105.5 38.5t36.5 95.5q0 50 -30.5 78t-78.5 28q-32 0 -58.5 -10t-45.5 -27.5t-29.5 -42t-10.5 -53.5zM427 364q45 -15 75 -54.5t30 -93.5q0 -53 -20 -96t-55 -74t-83.5 -47.5t-105.5 -16.5q-36 0 -74.5 9.5t-70 32.5
t-52 60t-20.5 93q0 40 13.5 74.5t37 61t54 44t63.5 23.5v3q-36 18 -60 52.5t-24 80.5q0 54 20 93.5t52.5 65.5t74.5 38.5t86 12.5q37 0 73 -10t64 -31.5t45 -54.5t17 -78q0 -41 -12.5 -72t-33 -53.5t-46 -37t-50.5 -22.5zM245 513q0 -40 25.5 -64t67.5 -24q23 0 44.5 7.5
t37.5 21.5t25.5 35t9.5 48q0 42 -27.5 65t-69.5 23q-52 0 -82.5 -32t-30.5 -80z" />
    <glyph glyph-name="nine" unicode="9" horiz-adv-x="610" 
d="M476 511q0 27 -10 48.5t-27 36.5t-39 23t-46 8q-70 0 -110.5 -43t-40.5 -114q0 -28 10 -50t26 -37t37 -22.5t43 -7.5q36 0 65.5 12t49.5 33.5t31 50.5t11 62zM346 270q-9 -3 -22.5 -5t-25.5 -2q-52 0 -92 16t-67 43.5t-41 63.5t-14 76q0 53 18.5 101t53.5 84t86 57.5
t117 21.5q51 0 94 -15t74.5 -42.5t49.5 -67.5t18 -90q0 -53 -23.5 -107t-77.5 -120l-232 -284h-143l228 268z" />
    <glyph glyph-name="colon" unicode=":" horiz-adv-x="300" 
d="M182 72q0 -31 -21.5 -53.5t-52.5 -22.5q-30 0 -51.5 18.5t-21.5 53.5q0 33 23 54.5t53 21.5t50.5 -19.5t20.5 -52.5zM239 413q0 -31 -21.5 -53.5t-52.5 -22.5q-30 0 -51.5 18.5t-21.5 53.5q0 33 23 54.5t53 21.5t50.5 -19.5t20.5 -52.5z" />
    <glyph glyph-name="semicolon" unicode=";" horiz-adv-x="300" 
d="M67 -127h-104l116 263h119zM239 413q0 -31 -21.5 -53.5t-52.5 -22.5q-30 0 -51.5 18.5t-21.5 53.5q0 33 23 54.5t53 21.5t50.5 -19.5t20.5 -52.5z" />
    <glyph glyph-name="less" unicode="&#x3c;" horiz-adv-x="666" 
d="M80 267v72l506 225v-110l-338 -151l338 -151v-110z" />
    <glyph glyph-name="equal" unicode="=" horiz-adv-x="666" 
d="M586 444v-102h-506v102h506zM586 264v-102h-506v102h506z" />
    <glyph glyph-name="greater" unicode="&#x3e;" horiz-adv-x="666" 
d="M586 339v-72l-506 -225v110l338 151l-338 151v110z" />
    <glyph glyph-name="question" unicode="?" horiz-adv-x="517" 
d="M402 355q-23 -16 -39 -28.5t-26.5 -26t-16.5 -29t-9 -37.5l-4 -26h-115l6 39q4 24 10.5 43.5t17.5 36.5t27 33t38 34l52 41q11 9 23 19t21.5 22.5t16 28t6.5 34.5q0 80 -89 80q-24 0 -44 -8.5t-34.5 -23t-24.5 -33.5t-14 -40l-113 19q9 40 29.5 75t52 61.5t72.5 41.5
t90 15q39 0 75 -9.5t63.5 -30.5t43.5 -55t16 -83q0 -31 -8.5 -56.5t-25 -48.5t-41 -44.5t-56.5 -43.5zM309 72q0 -31 -21.5 -53.5t-52.5 -22.5q-30 0 -51.5 18.5t-21.5 53.5q0 33 23 54.5t53 21.5t50.5 -19.5t20.5 -52.5z" />
    <glyph glyph-name="at" unicode="@" horiz-adv-x="800" 
d="M545 160q-41 0 -61 19t-16 48h-4q-17 -25 -49 -46t-76 -21q-58 0 -91.5 31t-33.5 87q0 45 17 93t48 87.5t73.5 65t92.5 25.5q38 0 65 -16t31 -39h1l15 40h88l-73 -189q-5 -14 -13 -36.5t-8 -37.5q0 -17 5 -23.5t22 -6.5q25 0 47.5 16.5t39.5 45t26.5 65.5t9.5 78
q0 48 -17.5 85t-48.5 62.5t-74 39t-94 13.5q-79 0 -141 -29t-105.5 -77.5t-66.5 -111.5t-23 -130q0 -56 18.5 -100t53 -74t83.5 -46t109 -16q73 0 132 24.5t110 67.5l43 -59q-55 -54 -132.5 -83.5t-165.5 -29.5q-84 0 -149 22.5t-109.5 63.5t-67.5 98t-23 126q0 87 32.5 166
t90 138.5t137 94.5t173.5 35q75 0 135.5 -19t102.5 -54.5t65 -87t23 -116.5q0 -64 -20 -117t-54 -91.5t-79 -59.5t-94 -21zM494 405q0 27 -11.5 45t-45.5 18q-22 0 -44 -15t-40 -39t-29 -54t-11 -60q0 -22 11.5 -40t43.5 -18q26 0 49 16t40 40t27 52.5t10 54.5z" />
    <glyph glyph-name="A" unicode="A" horiz-adv-x="668" 
d="M492 0l-29 163h-303l-101 -163h-146l462 708h107l141 -708h-131zM399 566l-179 -297h226z" />
    <glyph glyph-name="B" unicode="B" horiz-adv-x="646" 
d="M396 708q37 0 73.5 -8t66 -26.5t48 -48t18.5 -72.5q0 -71 -43 -117.5t-113 -63.5v-2q58 -9 95 -48.5t37 -102.5q0 -54 -22.5 -95t-62.5 -68.5t-95.5 -41.5t-121.5 -14h-251l125 708h246zM253 606l-34 -189h128q21 0 44.5 5.5t43 18.5t32 34t12.5 51q0 44 -32.5 62
t-81.5 18h-112zM200 314l-36 -210h123q33 0 63 6.5t53.5 20.5t37 37.5t13.5 56.5q0 42 -31 65.5t-89 23.5h-134z" />
    <glyph glyph-name="C" unicode="C" horiz-adv-x="681" 
d="M645 111q-21 -27 -49 -50.5t-63 -41t-77 -27.5t-92 -10q-71 0 -129 22t-99.5 62t-64.5 96t-23 124q0 92 32 172t88.5 139.5t132.5 94t164 34.5q39 0 75.5 -8t68 -22t56.5 -34t41 -44l-97 -73q-8 12 -21 25.5t-32 24.5t-42.5 18t-52.5 7q-63 0 -115.5 -27t-90 -72
t-58.5 -102t-21 -117q0 -44 13.5 -82.5t39 -67t63.5 -45.5t87 -17q53 0 101 22t86 69z" />
    <glyph glyph-name="D" unicode="D" horiz-adv-x="757" 
d="M150 708h242q60 0 119 -16.5t106 -52t76 -92t29 -135.5q0 -93 -32.5 -169t-90.5 -130t-137 -83.5t-172 -29.5h-265zM166 108h129q74 0 130 24t93.5 64.5t56.5 92t19 107.5q0 42 -14 80t-42.5 66t-72 44.5t-103.5 16.5h-109z" />
    <glyph glyph-name="E" unicode="E" 
d="M25 0l125 708h446l-19 -108h-326l-32 -183h311l-19 -104h-310l-36 -203h354l-19 -110h-475z" />
    <glyph glyph-name="F" unicode="F" horiz-adv-x="556" 
d="M254 600l-35 -196h296l-18 -104h-296l-53 -300h-123l125 708h438l-19 -108h-315z" />
    <glyph glyph-name="G" unicode="G" horiz-adv-x="740" 
d="M393 90q39 1 69.5 7t59.5 20l31 180h-152l20 107h271l-63 -366q-53 -26 -119.5 -41t-134.5 -15q-74 0 -134.5 22t-103 62t-66 96t-23.5 124q0 92 32 172t88.5 139.5t132.5 94t164 34.5q78 0 144.5 -26.5t106.5 -81.5l-97 -73q-23 32 -61.5 53.5t-96.5 21.5
q-63 0 -115.5 -27t-90 -72t-58.5 -102t-21 -117q0 -46 14.5 -85t42.5 -67t68.5 -44t91.5 -16z" />
    <glyph glyph-name="H" unicode="H" horiz-adv-x="729" 
d="M473 0l55 315h-324l-56 -315h-123l125 708h123l-51 -287h325l51 287h123l-125 -708h-123z" />
    <glyph glyph-name="I" unicode="I" horiz-adv-x="291" 
d="M25 0l125 708h123l-125 -708h-123z" />
    <glyph glyph-name="J" unicode="J" horiz-adv-x="500" 
d="M411 228q-7 -41 -20.5 -84.5t-40 -79.5t-69 -59t-107.5 -23q-85 0 -137 43t-61 112l115 33q4 -33 25 -56t55 -23q29 0 49 10.5t33.5 29.5t21.5 45t13 56l84 476h124l-85 -480v0z" />
    <glyph glyph-name="K" unicode="K" horiz-adv-x="646" 
d="M451 0l-239 356h-3l-62 -356h-122l125 708h122l-56 -314h3l319 314h166l-367 -334l275 -374h-161z" />
    <glyph glyph-name="L" unicode="L" horiz-adv-x="511" 
d="M25 0l125 708h123l-106 -598h303l-19 -110h-426z" />
    <glyph glyph-name="M" unicode="M" horiz-adv-x="920" 
d="M666 0l102 571h-3l-319 -571h-86l-115 571h-2l-101 -571h-117l125 708h192l96 -507h2l277 507h195l-124 -708h-122z" />
    <glyph glyph-name="N" unicode="N" horiz-adv-x="788" 
d="M479 0l-232 550h-2l-97 -550h-123l125 708h160l228 -533h2l94 533h123l-125 -708h-153z" />
    <glyph glyph-name="O" unicode="O" horiz-adv-x="829" 
d="M459 726q76 0 137.5 -21.5t105.5 -61t68 -96.5t24 -128q0 -90 -30.5 -170t-84.5 -139t-128 -93.5t-162 -34.5q-78 0 -141 21t-107.5 61t-68.5 97t-24 128q0 90 31.5 170t86.5 139t130 93.5t163 34.5zM389 90q67 0 118.5 27t87 72t54 102t18.5 117q0 43 -14 82t-41 67.5
t-67 45.5t-92 17q-64 0 -115.5 -27t-87.5 -72t-55.5 -102t-19.5 -117q0 -44 14 -82.5t41 -67t67 -45.5t92 -17z" />
    <glyph glyph-name="P" unicode="P" horiz-adv-x="609" 
d="M363 708q117 0 179 -49t62 -137q0 -60 -21.5 -103t-61 -71t-94.5 -41t-121 -13h-107l-52 -294h-122l125 708h213zM311 398q37 0 68.5 5.5t53.5 18.5t34.5 34t12.5 53q0 28 -10 46.5t-28 29t-43 15t-55 4.5h-90l-37 -206h94z" />
    <glyph glyph-name="Q" unicode="Q" horiz-adv-x="819" 
d="M776 429q0 -74 -17 -128.5t-42.5 -93.5t-54.5 -64.5t-53 -40.5v-2h172l-18 -100h-390q-72 0 -132 21t-103 60t-66.5 94.5t-23.5 124.5q0 89 31 167t85.5 135.5t128 90.5t158.5 33q73 0 132.5 -20.5t102.5 -59t66.5 -93.5t23.5 -124zM650 416q0 43 -13 80t-38.5 64.5
t-63 43.5t-85.5 16q-63 0 -114 -26t-87 -69t-55.5 -98.5t-19.5 -113.5q0 -42 13.5 -79.5t39 -65.5t63.5 -44t86 -16q60 0 110.5 26t87 69t56.5 98.5t20 114.5z" />
    <glyph glyph-name="R" unicode="R" horiz-adv-x="624" 
d="M565 0h-139l-134 302h-94l-52 -302h-121l125 708h210q117 0 180.5 -48.5t63.5 -134.5q0 -85 -50.5 -137.5t-135.5 -71.5zM308 403q81 0 125 26t44 83q0 52 -37 72t-99 20h-89l-36 -201h92z" />
    <glyph glyph-name="S" unicode="S" horiz-adv-x="574" 
d="M471 562q-20 32 -52.5 47t-70.5 15q-19 0 -42 -6t-42.5 -18.5t-32.5 -33.5t-13 -51q0 -38 26.5 -59t71.5 -38q93 -34 143 -81.5t50 -128.5q0 -61 -24 -104t-63 -70t-88 -39.5t-99 -12.5q-35 0 -70.5 7t-67.5 21t-59.5 35.5t-46.5 51.5l100 69q20 -35 60.5 -57.5
t89.5 -22.5q25 0 49.5 6t44 19.5t32 35t12.5 53.5q0 24 -10.5 42.5t-28 32.5t-40.5 25t-49 20q-32 12 -60.5 27t-50.5 36.5t-34.5 51.5t-12.5 71q0 53 22.5 94t59.5 69t85.5 42.5t100.5 14.5q27 0 55.5 -6t55 -17.5t50 -28.5t39.5 -40z" />
    <glyph glyph-name="T" unicode="T" horiz-adv-x="533" 
d="M380 600l-106 -600h-123l105 600h-210l19 108h542l-19 -108h-208z" />
    <glyph glyph-name="U" unicode="U" horiz-adv-x="714" 
d="M633 260q-11 -63 -35.5 -114.5t-62.5 -87.5t-91 -56t-121 -20q-61 0 -110 15.5t-83 44.5t-52 69.5t-18 91.5q0 14 1 28t4 29l79 448h123l-78 -443q-2 -11 -3 -23t-1 -23q0 -26 7.5 -49t24.5 -41t43.5 -28.5t64.5 -10.5q49 0 82 15.5t54 40.5t32 56.5t17 62.5l78 443h124
l-79 -448v0z" />
    <glyph glyph-name="V" unicode="V" horiz-adv-x="641" 
d="M297 0h-114l-115 708h130l71 -548h4l315 548h139z" />
    <glyph glyph-name="W" unicode="W" horiz-adv-x="985" 
d="M712 0h-120l-65 535h-2l-268 -535h-120l-66 708h130l35 -524h2l256 524h128l55 -524h2l245 524h131z" />
    <glyph glyph-name="X" unicode="X" horiz-adv-x="631" 
d="M428 0l-115 281l-232 -281h-154l332 378l-144 330h136l98 -248l202 248h148l-296 -340l165 -368h-140z" />
    <glyph glyph-name="Y" unicode="Y" horiz-adv-x="575" 
d="M343 307l-55 -307h-123l54 307l-177 401h138l118 -300l237 300h150z" />
    <glyph glyph-name="Z" unicode="Z" horiz-adv-x="588" 
d="M-40 0l19 111l466 489h-336l19 108h497l-20 -111l-463 -487h388l-20 -110h-550z" />
    <glyph glyph-name="bracketleft" unicode="[" horiz-adv-x="320" 
d="M-31 -156l156 888h191l-14 -77h-90l-129 -734h90l-14 -77h-190z" />
    <glyph glyph-name="backslash" unicode="\" horiz-adv-x="389" 
d="M86 758l312 -776l-83 -30l-312 774z" />
    <glyph glyph-name="bracketright" unicode="]" horiz-adv-x="320" 
d="M-3 -156l13 77h90l130 734h-90l13 77h191l-157 -888h-190z" />
    <glyph glyph-name="asciicircum" unicode="^" horiz-adv-x="666" 
d="M69 343l223 365h82l223 -365h-118l-147 239l-145 -239h-118z" />
    <glyph glyph-name="underscore" unicode="_" horiz-adv-x="500" 
d="M500 -150h-500v75h500v-75z" />
    <glyph glyph-name="grave" unicode="`" horiz-adv-x="260" 
d="M246 564h-90l-141 144h132z" />
    <glyph glyph-name="a" unicode="a" horiz-adv-x="539" 
d="M357 304q2 12 2.5 18.5t0.5 12.5q0 35 -22.5 50t-66.5 15q-35 0 -72.5 -13.5t-66.5 -34.5l-45 79q41 29 93.5 45.5t107.5 16.5q34 0 67.5 -7.5t60 -24.5t42.5 -44.5t16 -68.5q0 -9 -1 -22t-3 -23l-35 -195q-5 -28 -8.5 -58t-3.5 -50h-108q0 27 6 57h-2q-56 -67 -156 -67
q-25 0 -52 6t-49 20.5t-36 39t-14 61.5q0 59 31.5 95.5t81.5 57t111.5 27.5t120.5 7zM332 220q-34 0 -70.5 -2.5t-67 -11.5t-50 -25.5t-19.5 -44.5q0 -17 6.5 -28.5t17.5 -18.5t25 -10t29 -3q27 0 50.5 9t41 24.5t29 36t16.5 44.5l6 30h-14z" />
    <glyph glyph-name="b" unicode="b" horiz-adv-x="638" 
d="M208 403q29 42 74 66t99 24q46 0 83.5 -15t64 -42.5t41 -65.5t14.5 -84q0 -62 -19.5 -116t-54.5 -94.5t-83.5 -64t-106.5 -23.5q-54 0 -101 24t-71 69h-2l-14 -81h-111l133 756h118l-66 -353h2zM464 272q0 53 -30.5 89t-87.5 36q-35 0 -66 -15t-53.5 -41t-35.5 -60.5
t-13 -72.5q0 -55 33 -90t89 -35q37 0 67.5 15t52 40.5t33 60t11.5 73.5z" />
    <glyph glyph-name="c" unicode="c" horiz-adv-x="492" 
d="M413 344q-13 22 -40 37.5t-59 15.5q-37 0 -68.5 -15t-54 -41t-35.5 -60t-13 -71q0 -25 7 -47.5t22 -40t38 -28t55 -10.5q45 0 72.5 15.5t50.5 38.5l67 -68q-38 -38 -86 -60.5t-111 -22.5q-52 0 -94.5 15t-73 42.5t-47 65.5t-16.5 85q0 58 21 112t59 95.5t92.5 66
t120.5 24.5q54 0 102.5 -19.5t74.5 -61.5z" />
    <glyph glyph-name="d" unicode="d" horiz-adv-x="634" 
d="M521 756h118l-134 -756h-111l12 76h-3q-29 -42 -74 -65t-99 -23q-46 0 -83.5 15t-64 42.5t-41 65.5t-14.5 84q0 62 19.5 116t54.5 94.5t83.5 64t106.5 23.5q66 0 106.5 -24t61.5 -66h2zM147 209q0 -53 30.5 -89t87.5 -36q35 0 66 15t53.5 41t35.5 60.5t13 72.5
q0 55 -33 90t-89 35q-37 0 -67.5 -15t-52 -40.5t-33 -60t-11.5 -73.5z" />
    <glyph glyph-name="e" unicode="e" horiz-adv-x="564" 
d="M140 203q-1 -5 -1 -11q0 -24 9.5 -44t26.5 -34.5t40 -23t50 -8.5q46 0 78.5 17t58.5 46l67 -63q-89 -96 -217 -96q-49 0 -90 14.5t-71 41.5t-47 66.5t-17 90.5q0 62 21 115.5t58.5 93.5t89 62.5t112.5 22.5q43 0 79.5 -12t63.5 -36t42 -60t15 -84q0 -16 -3 -44.5
t-9 -53.5h-356zM400 287q1 7 1.5 13t0.5 12q0 39 -27.5 66t-77.5 27q-31 0 -56 -11t-43.5 -28.5t-30.5 -38.5t-16 -40h249z" />
    <glyph glyph-name="f" unicode="f" horiz-adv-x="323" 
d="M385 661q-9 3 -18.5 5t-22.5 2q-24 0 -41 -10t-27.5 -26t-17 -35.5t-9.5 -37.5l-14 -79h113l-17 -94h-111l-68 -386h-114l68 386h-91l16 94h89l14 73q7 40 21.5 78.5t40 69t63.5 49t92 18.5q35 0 59 -7z" />
    <glyph glyph-name="g" unicode="g" horiz-adv-x="632" 
d="M466 407l12 73h112l-76 -439q-11 -63 -32 -115t-56 -89t-87 -57t-125 -20q-30 0 -62 5.5t-63 16.5t-58.5 27t-47.5 37l78 85q28 -33 69 -51t87 -18q44 0 74.5 12.5t51.5 34.5t33 52.5t20 66.5l8 38h-2q-26 -34 -68.5 -54.5t-96.5 -20.5q-46 0 -83.5 15t-64 42t-41 65
t-14.5 84q0 61 19.5 115t54.5 94.5t83.5 63.5t106.5 23q66 0 106 -24t59 -62h3zM154 211q0 -53 30.5 -89t87.5 -36q35 0 66 15t53.5 41t35.5 60t13 72q0 55 -33 90t-89 35q-37 0 -67.5 -15t-52 -40.5t-33 -59.5t-11.5 -73z" />
    <glyph glyph-name="h" unicode="h" 
d="M344 0l46 264q2 12 3.5 24t1.5 24q0 32 -17 56.5t-62 24.5q-29 0 -51.5 -11t-39 -29.5t-27 -42.5t-14.5 -49l-46 -261h-117l133 756h118l-61 -344h2q20 32 57 56.5t91 24.5q40 0 69.5 -12t49 -32t29 -47.5t9.5 -57.5q0 -25 -4 -45l-53 -299h-117z" />
    <glyph glyph-name="i" unicode="i" horiz-adv-x="267" 
d="M21 0l84 480h118l-85 -480h-117zM262 645q0 -29 -20.5 -51t-50.5 -22q-29 0 -49.5 18t-20.5 51q0 32 22 52.5t51 20.5t48.5 -18.5t19.5 -50.5z" />
    <glyph glyph-name="j" unicode="j" horiz-adv-x="267" 
d="M133 -32q-8 -42 -20.5 -80t-35 -66.5t-58 -45t-88.5 -16.5q-15 0 -29.5 2t-23.5 4l23 100q8 -2 16.5 -3t15.5 -1q21 0 35 8t23 22t14 32.5t9 39.5l91 516h118zM262 645q0 -29 -20.5 -51t-50.5 -22q-29 0 -49.5 18t-20.5 51q0 32 22 52.5t51 20.5t48.5 -18.5t19.5 -50.5z
" />
    <glyph glyph-name="k" unicode="k" horiz-adv-x="521" 
d="M336 0l-151 246h-3l-44 -246h-117l133 756h118l-85 -479h3l217 203h154l-255 -223l175 -257h-145z" />
    <glyph glyph-name="l" unicode="l" horiz-adv-x="267" 
d="M21 0l133 756h118l-134 -756h-117z" />
    <glyph glyph-name="m" unicode="m" horiz-adv-x="894" 
d="M87 377q4 19 8.5 49t6.5 54h110q-1 -11 -4 -35l-5 -40h2q22 34 57.5 61t90.5 27q60 0 96.5 -26.5t47.5 -67.5q31 44 73 69t97 25q42 0 72 -12t50 -32t29.5 -47.5t9.5 -57.5q0 -25 -4 -45l-53 -299h-117l46 264q2 12 3.5 24t1.5 24q0 16 -4 31t-13 26t-24.5 18t-38.5 7
q-28 0 -50 -12t-38.5 -31t-26.5 -42.5t-14 -46.5l-46 -262h-118l51 290q3 15 3 27q0 34 -18 55.5t-56 21.5q-27 0 -48.5 -11.5t-37.5 -29.5t-26.5 -41.5t-14.5 -47.5l-47 -264h-117l66 377v0z" />
    <glyph glyph-name="n" unicode="n" 
d="M205 405q25 39 63.5 63.5t92.5 24.5q40 0 69.5 -12t49 -32t29 -47.5t9.5 -57.5q0 -25 -4 -45l-53 -299h-117l46 264q2 12 3.5 24t1.5 24q0 32 -17 56.5t-62 24.5q-29 0 -51 -11t-38.5 -29.5t-27 -41.5t-14.5 -47l-47 -264h-117l66 377q4 19 8.5 49t6.5 54h110
q-1 -11 -4 -34.5t-5 -40.5h2z" />
    <glyph glyph-name="o" unicode="o" horiz-adv-x="604" 
d="M259 -13q-50 0 -92.5 15t-73.5 43t-48.5 66t-17.5 85q0 59 20.5 112.5t58.5 94.5t91.5 65.5t119.5 24.5q51 0 93.5 -15t73.5 -42.5t48.5 -66t17.5 -84.5q0 -60 -20.5 -114t-58.5 -95t-92 -65t-120 -24zM432 273q0 54 -33 89t-90 35q-38 0 -68.5 -15.5t-52 -41.5
t-33.5 -60t-12 -72q0 -54 32 -89t90 -35q38 0 69 15t52.5 41t33.5 60.5t12 72.5z" />
    <glyph glyph-name="p" unicode="p" horiz-adv-x="635" 
d="M94 -240h-118l127 720h111l-12 -77h3q29 42 74 65t99 23q46 0 83.5 -15t64 -42.5t41 -65.5t14.5 -84q0 -62 -19.5 -116t-54.5 -94.5t-83.5 -64t-106.5 -23.5q-66 0 -106.5 24t-61.5 66h-2zM461 270q0 53 -30.5 89t-87.5 36q-35 0 -66 -15t-53.5 -41t-35.5 -60.5
t-13 -72.5q0 -55 33 -90t89 -35q37 0 67.5 15t52 40.5t33 60t11.5 73.5z" />
    <glyph glyph-name="q" unicode="q" horiz-adv-x="632" 
d="M403 76q-29 -42 -74 -65t-99 -23q-46 0 -83.5 15t-64 42.5t-41 65.5t-14.5 84q0 62 19.5 116t54.5 94.5t83.5 64t106.5 23.5q54 0 101 -25t71 -70h2l14 82h111l-126 -720h-118l59 316h-2zM147 209q0 -53 30.5 -89t87.5 -36q35 0 66 15t53.5 41t35.5 60.5t13 72.5
q0 55 -33 90t-89 35q-37 0 -67.5 -15t-52 -40.5t-33 -60t-11.5 -73.5z" />
    <glyph glyph-name="r" unicode="r" horiz-adv-x="339" 
d="M203 400q25 42 59 67.5t82 25.5q7 0 15 -0.5t14 -2.5l-16 -109q-11 3 -19.5 4t-16.5 1q-41 0 -67 -15t-42 -36t-23 -43t-9 -35l-45 -257h-117l67 377q4 19 8.5 49t6.5 54h110q0 -5 -1 -15t-2.5 -22t-3 -23.5t-2.5 -19.5h2z" />
    <glyph glyph-name="s" unicode="s" horiz-adv-x="444" 
d="M67 138q15 -29 44.5 -44.5t65.5 -15.5q41 0 65.5 16t24.5 44q0 26 -19.5 38.5t-62.5 26.5q-34 11 -59.5 22.5t-42.5 27t-25.5 35.5t-8.5 47q0 35 16 64t44 50t66 32.5t83 11.5q56 0 101.5 -20.5t71.5 -62.5l-91 -54q-13 20 -34 33.5t-57 13.5q-15 0 -30.5 -3t-27.5 -9.5
t-19.5 -17.5t-7.5 -27q0 -23 19.5 -34t57.5 -22q67 -19 104 -51.5t37 -92.5q0 -40 -17 -70.5t-45.5 -51.5t-66 -31.5t-79.5 -10.5q-78 0 -125.5 27.5t-72.5 68.5z" />
    <glyph glyph-name="t" unicode="t" horiz-adv-x="340" 
d="M19 385l17 95h83l24 140h116l-24 -140h108l-17 -95h-106l-42 -226q-3 -15 -3 -28q0 -26 15.5 -36t41.5 -10q12 0 23.5 2t21.5 5l-7 -89q-15 -6 -35.5 -9.5t-37.5 -3.5q-76 0 -108 30.5t-32 80.5q0 14 1.5 30.5t4.5 30.5l41 223h-85z" />
    <glyph glyph-name="u" unicode="u" 
d="M348 75q-25 -39 -63.5 -63.5t-92.5 -24.5q-40 0 -69.5 12t-49 32t-29 47.5t-9.5 57.5q0 25 4 45l53 299h117l-46 -264q-2 -12 -3.5 -24t-1.5 -24q0 -32 17 -56.5t62 -24.5q28 0 50.5 11t39 29.5t27 41.5t14.5 47l47 264h117l-66 -377q-4 -19 -8.5 -49t-6.5 -54h-110
q1 11 4 34.5t5 40.5h-2z" />
    <glyph glyph-name="v" unicode="v" horiz-adv-x="502" 
d="M249 0h-126l-94 480h123l56 -352h2l200 352h124z" />
    <glyph glyph-name="w" unicode="w" horiz-adv-x="785" 
d="M559 0h-120l-43 339h-2l-179 -339h-120l-66 480h123l33 -345h2l172 345h123l39 -345h2l174 345h123z" />
    <glyph glyph-name="x" unicode="x" horiz-adv-x="513" 
d="M318 0l-89 172l-153 -172h-149l247 255l-129 225h129l78 -150l133 150h144l-220 -231l142 -249h-133z" />
    <glyph glyph-name="y" unicode="y" horiz-adv-x="506" 
d="M203 -104q-18 -32 -36 -57.5t-39.5 -43t-47.5 -26.5t-61 -9q-15 0 -30.5 1.5t-30.5 5.5l15 102q11 -4 22.5 -5.5t21.5 -1.5q33 0 51.5 18.5t40.5 56.5l36 62l-108 481h126l62 -352h2l192 352h124z" />
    <glyph glyph-name="z" unicode="z" horiz-adv-x="480" 
d="M-20 0l18 103l313 283h-244l16 94h387l-18 -103l-311 -281h268l-17 -96h-412z" />
    <glyph glyph-name="braceleft" unicode="{" horiz-adv-x="320" 
d="M115 -156q-45 0 -76 24.5t-31 76.5q0 14 3 31l34 190q4 24 0 39t-13 24t-20.5 12.5t-22.5 3.5l15 86q11 0 24 3t24.5 11.5t21 22.5t13.5 35l34 197q6 34 21 59t35.5 41t45 24t49.5 8h72l-14 -83h-55q-30 0 -40.5 -19t-15.5 -42l-33 -187q-5 -30 -19.5 -50.5t-32 -33.5
t-35.5 -20t-30 -8v-2q10 -1 24 -5.5t26.5 -14t21 -26.5t8.5 -43q0 -14 -3 -29l-32 -181q-2 -11 -2.5 -22t2.5 -19.5t10.5 -14t22.5 -5.5h55l-15 -83h-72z" />
    <glyph glyph-name="bar" unicode="|" horiz-adv-x="222" 
d="M162 750v-1000h-102v1000h102z" />
    <glyph glyph-name="braceright" unicode="}" horiz-adv-x="320" 
d="M308 245q-11 0 -23.5 -3.5t-24.5 -12.5t-21.5 -24t-13.5 -39l-34 -190q-6 -34 -21 -59t-35.5 -41t-44.5 -24t-49 -8h-73l15 83h55q29 0 40 19t15 42l32 181q6 35 21 57.5t32.5 35.5t35 18.5t29.5 6.5l1 2q-12 1 -27.5 8t-28.5 20t-20 33.5t-2 50.5l33 187q2 11 2.5 22
t-2.5 19.5t-11 14t-23 5.5h-54l14 83h73q44 0 75 -24.5t31 -76.5q0 -15 -3 -31l-34 -197q-4 -21 0 -35t13 -22.5t20.5 -11.5t22.5 -3l-15 -86v0z" />
    <glyph glyph-name="asciitilde" unicode="~" horiz-adv-x="666" 
d="M345 354q21 -14 34.5 -21t23 -11t17.5 -4.5t19 -0.5q24 0 43 16.5t35 46.5l77 -65q-35 -58 -74 -80t-79 -22q-32 0 -60 9.5t-61 30.5q-20 12 -34 19.5t-24.5 11t-18.5 4.5t-16 1q-21 0 -40 -14t-38 -49l-77 65q37 61 75.5 82t77.5 21q37 0 63 -10t57 -30z" />
    <glyph glyph-name="uni00A0" unicode="&#xa0;" horiz-adv-x="250" 
 />
    <glyph glyph-name="exclamdown" unicode="&#xa1;" horiz-adv-x="295" 
d="M195 273l-86 -487h-117l86 487h117zM83 422q0 31 21.5 53.5t52.5 22.5q30 0 51.5 -18.5t21.5 -53.5q0 -33 -23 -54.5t-53 -21.5t-50.5 19.5t-20.5 52.5z" />
    <glyph glyph-name="cent" unicode="&#xa2;" horiz-adv-x="610" 
d="M391 491q45 -5 84 -24t62 -55l-84 -68q-11 18 -32 32t-47 19l-55 -311q38 3 63 18t46 36l67 -68q-38 -37 -85 -59.5t-108 -23.5l-12 -70h-54l14 74q-84 13 -133.5 67.5t-49.5 136.5q0 56 19 107.5t54.5 92t85.5 66.5t112 31l11 66h54zM321 394q-31 -5 -56.5 -22
t-43.5 -41.5t-28 -56t-10 -64.5q0 -21 4.5 -41t14 -36.5t25.5 -28.5t39 -16z" />
    <glyph glyph-name="sterling" unicode="&#xa3;" horiz-adv-x="610" 
d="M552 585q-16 20 -42 31.5t-58 11.5q-36 0 -61 -14.5t-41 -37t-25 -49t-13 -50.5l-14 -78h166l-15 -83h-164l-37 -211h265l-19 -105h-482l18 105h98l38 211h-98l14 83h96l15 83q7 37 23.5 80t47.5 79.5t78.5 60.5t116.5 24q54 0 95.5 -15.5t69.5 -44.5z" />
    <glyph glyph-name="currency" unicode="&#xa4;" horiz-adv-x="610" 
d="M508 420q39 -59 39 -136q0 -39 -11 -75t-30 -65l83 -84l-63 -64l-86 85q-56 -39 -134 -39q-37 0 -71.5 11t-62.5 29l-87 -86l-64 64l86 87q-17 28 -28.5 63.5t-11.5 73.5t10 71.5t27 62.5l-83 83l64 63l83 -81q29 18 64.5 29.5t73.5 11.5q39 0 74.5 -11t62.5 -30l82 81
l64 -63zM306 428q-32 0 -57.5 -11.5t-43.5 -31t-27.5 -45.5t-9.5 -56t9.5 -56.5t27.5 -46t43.5 -31t57.5 -11.5t58 11.5t44 31t27.5 46t9.5 56.5t-9.5 56t-27.5 45.5t-44 31t-58 11.5z" />
    <glyph glyph-name="yen" unicode="&#xa5;" horiz-adv-x="610" 
d="M413 388h140l-14 -77h-177l-14 -78h177l-13 -77h-175l-27 -156h-115l27 156h-178l13 77h176l13 78h-175l13 77h148l-142 320h130l106 -289l199 289h132z" />
    <glyph glyph-name="brokenbar" unicode="&#xa6;" horiz-adv-x="222" 
d="M162 675v-350h-102v350h102zM162 175v-350h-102v350h102z" />
    <glyph glyph-name="section" unicode="&#xa7;" horiz-adv-x="610" 
d="M500 573q-20 29 -50 43t-65 14q-15 0 -32.5 -3.5t-32.5 -12.5t-25 -24t-10 -37q0 -17 6.5 -29t20.5 -22.5t35.5 -20.5t50.5 -23q28 -12 53 -26.5t43.5 -33.5t29 -44.5t10.5 -60.5q0 -31 -9.5 -55t-25 -42t-36 -30.5t-41.5 -20.5q20 -17 33 -42t13 -53q0 -53 -20.5 -89.5
t-52.5 -60t-72.5 -34t-79.5 -10.5q-31 0 -66 7t-67.5 21t-58.5 35t-39 50l100 57q7 -17 21.5 -29.5t32 -21t37.5 -13t38 -4.5t36 3t32.5 11t24 22t9.5 35t-8 36t-24.5 27.5t-42 24t-59.5 26.5q-26 11 -48.5 24t-39 31t-26 41.5t-9.5 55.5q0 30 10.5 54.5t27.5 44t38.5 33
t43.5 20.5q-15 11 -29 35.5t-14 58.5q0 49 22 84.5t55.5 57.5t74 32.5t77.5 10.5q61 0 114 -21t83 -63zM359 191q67 20 67 82q0 35 -21 54.5t-49 33.5l-84 41q-37 -8 -57 -33t-20 -54q0 -35 20 -52t47 -29z" />
    <glyph glyph-name="dieresis" unicode="&#xa8;" horiz-adv-x="260" 
d="M158 646q0 -29 -19.5 -50t-49.5 -21q-29 0 -48.5 17.5t-19.5 49.5t21 51.5t50 19.5t47.5 -17.5t18.5 -49.5zM356 646q0 -29 -19.5 -50t-49.5 -21q-29 0 -48.5 17.5t-19.5 49.5t21 51.5t50 19.5t47.5 -17.5t18.5 -49.5z" />
    <glyph glyph-name="copyright" unicode="&#xa9;" horiz-adv-x="800" 
d="M514 443q-14 18 -40.5 30t-55.5 12q-30 0 -53.5 -11t-39 -29.5t-23.5 -42.5t-8 -49q0 -26 8.5 -50.5t25 -43t41 -30t56.5 -11.5q26 0 51.5 10t41.5 28l58 -68q-26 -29 -68 -44.5t-90 -15.5t-89.5 14.5t-73 43t-49.5 70t-18 95.5q0 52 18 94t49.5 70.5t73.5 44t89 15.5
q48 0 90.5 -18t68.5 -51zM20 353q0 79 30 147.5t81.5 119.5t121 80.5t148.5 29.5q78 0 147 -29.5t120.5 -80.5t81.5 -119.5t30 -147.5q0 -78 -30 -146.5t-81.5 -119.5t-120.5 -80t-147 -29q-79 0 -148.5 29t-121 80t-81.5 119.5t-30 146.5zM80 353q0 -66 25.5 -124
t69 -101.5t102 -68.5t124.5 -25t124 25t101.5 68.5t68.5 101.5t25 124t-25 124.5t-68.5 102t-101.5 69t-124 25.5t-124.5 -25.5t-102 -69t-69 -102t-25.5 -124.5z" />
    <glyph glyph-name="ordfeminine" unicode="&#xaa;" horiz-adv-x="380" 
d="M273 559q-18 0 -38 -1.5t-36.5 -6t-27 -13t-10.5 -23.5q0 -20 13 -26.5t29 -6.5q29 0 48.5 17.5t24.5 43.5l4 16h-7zM266 461q-13 -17 -33 -27t-51 -10q-45 0 -69 22t-24 56q0 61 49.5 86.5t146.5 25.5q2 6 2 12q0 19 -11 26.5t-36 7.5q-17 0 -38 -7t-39 -20l-30 51
q33 23 63 31t54 8q58 0 84 -26t26 -63q0 -9 -1 -16.5t-3 -15.5l-18 -106q-3 -16 -4 -35t-1 -30h-68q0 10 3 30h-2z" />
    <glyph glyph-name="guillemotleft" unicode="&#xab;" horiz-adv-x="518" 
d="M212 471l67 -54l-149 -177l85 -175l-80 -46l-114 228zM431 471l67 -54l-149 -177l85 -175l-80 -46l-114 228z" />
    <glyph glyph-name="logicalnot" unicode="&#xac;" horiz-adv-x="666" 
d="M502 342h-440v102h542v-297h-102v195z" />
    <glyph glyph-name="uni00AD" unicode="&#xad;" horiz-adv-x="320" 
d="M21 196l18 100h239l-18 -100h-239z" />
    <glyph glyph-name="registered" unicode="&#xae;" horiz-adv-x="600" 
d="M568 493q0 -47 -18 -88t-48.5 -71t-72 -47.5t-88.5 -17.5t-89 17.5t-73 47.5t-49 71t-18 88t18 88.5t49 72t73 48.5t89 18t88.5 -18t72 -48.5t48.5 -72t18 -88.5zM532 493q0 40 -15 75t-41 61.5t-60.5 41.5t-74.5 15t-75 -15t-61.5 -41.5t-41.5 -61.5t-15 -75
q0 -39 15 -74t41.5 -61t61.5 -41t75 -15t74.5 15t60.5 41t41 61t15 74zM389 368l-50 96h-29v-96h-71v260h112q19 0 38 -4t34.5 -13.5t25 -25.5t9.5 -39q0 -26 -14.5 -44.5t-37.5 -26.5l66 -107h-83zM383 545q0 13 -11.5 19t-23.5 6h-38v-54h38q14 0 24.5 8t10.5 21z" />
    <glyph glyph-name="macron" unicode="&#xaf;" horiz-adv-x="260" 
d="M22 595l13 77h318l-14 -77h-317z" />
    <glyph glyph-name="degree" unicode="&#xb0;" horiz-adv-x="400" 
d="M74 560q0 33 12.5 62t34.5 51t51 34.5t62 12.5t62 -12.5t51 -34.5t34.5 -51t12.5 -62t-12.5 -62t-34.5 -51t-51 -34.5t-62 -12.5t-62 12.5t-51 34.5t-34.5 51t-12.5 62zM152 560q0 -34 24 -58t58 -24t58 24t24 58t-24 58t-58 24t-58 -24t-24 -58z" />
    <glyph glyph-name="plusminus" unicode="&#xb1;" horiz-adv-x="666" 
d="M286 574h96v-143h204v-102h-204v-143h-96v143h-206v102h206v143zM80 134h506v-102h-506v102z" />
    <glyph glyph-name="twosuperior" unicode="&#xb2;" horiz-adv-x="400" 
d="M108 607q20 55 60.5 82.5t91.5 27.5q60 0 97 -30.5t37 -84.5q0 -24 -5.5 -43t-17.5 -36.5t-30.5 -34.5t-44.5 -37l-114 -89h167l-15 -79h-279l14 77l184 151q58 48 58 86q0 25 -15 36t-40 11q-28 0 -44.5 -15.5t-25.5 -43.5l-78 22v0z" />
    <glyph glyph-name="threesuperior" unicode="&#xb3;" horiz-adv-x="400" 
d="M198 540q86 0 86 67q0 22 -13.5 32t-33.5 10q-23 0 -38.5 -9.5t-29.5 -35.5l-65 38q25 42 60.5 60.5t78.5 18.5q30 0 53.5 -9.5t39.5 -25.5t24 -36t8 -41q0 -41 -23 -67.5t-57 -34.5q30 -11 47 -34t17 -52q0 -36 -12.5 -63t-34 -45t-50 -27t-60.5 -9q-57 0 -93 26.5
t-51 71.5l80 24q8 -26 25.5 -36.5t39.5 -10.5q35 0 52.5 17.5t17.5 44.5q0 29 -22 44t-57 15h-23l11 67h23v0z" />
    <glyph glyph-name="acute" unicode="&#xb4;" horiz-adv-x="260" 
d="M220 564h-93l125 144h133z" />
    <glyph glyph-name="mu" unicode="&#xb5;" horiz-adv-x="574" 
d="M240 480l-52 -243q-3 -14 -6 -32t-3 -35q0 -29 13.5 -51.5t53.5 -22.5q30 0 53 10t39.5 27t27.5 39t16 46l56 262h120l-102 -480h-114l16 77h-2q-24 -36 -61 -62.5t-95 -26.5q-18 0 -35 6t-25 18l-51 -240h-120l151 708h120z" />
    <glyph glyph-name="paragraph" unicode="&#xb6;" horiz-adv-x="600" 
d="M367 -126l135 763h-108l-135 -763h-89l82 463q-88 0 -137 42t-49 109q0 31 10.5 69.5t40 72t82 56t136.5 22.5h268l-147 -834h-89z" />
    <glyph glyph-name="periodcentered" unicode="&#xb7;" horiz-adv-x="260" 
d="M201 297q0 -31 -21.5 -53.5t-52.5 -22.5q-30 0 -51.5 18.5t-21.5 53.5q0 33 23 54.5t53 21.5t50.5 -19.5t20.5 -52.5z" />
    <glyph glyph-name="cedilla" unicode="&#xb8;" horiz-adv-x="260" 
d="M176 -138q0 -29 -14 -48.5t-35.5 -31.5t-47 -17t-47.5 -5q-29 0 -59 7.5t-50 18.5l27 48q35 -20 78 -20q9 0 20.5 1.5t21 6t16.5 12.5t7 21q0 23 -15 29.5t-32 6.5q-8 0 -19 -1.5t-21 -4.5l-18 25l78 90h57l-57 -65q7 2 11.5 2h8.5q14 0 29.5 -3.5t29 -12.5t22.5 -23.5
t9 -35.5z" />
    <glyph glyph-name="onesuperior" unicode="&#xb9;" horiz-adv-x="400" 
d="M163 279l57 319l-84 -61l-41 61l155 110h81l-75 -429h-93z" />
    <glyph glyph-name="ordmasculine" unicode="&#xba;" horiz-adv-x="380" 
d="M302 591q0 26 -16 43t-45 17q-36 0 -58 -27.5t-22 -65.5q0 -26 15 -43t44 -17q37 0 59.5 27.5t22.5 65.5zM215 426q-32 0 -57 10t-42.5 26.5t-27 39t-9.5 47.5q0 39 13.5 71t36.5 54.5t53.5 35t65.5 12.5q60 0 97.5 -33.5t37.5 -89.5q0 -41 -13.5 -73t-37 -54.5t-54 -34
t-63.5 -11.5z" />
    <glyph glyph-name="guillemotright" unicode="&#xbb;" horiz-adv-x="518" 
d="M287 19l-67 54l149 177l-85 175l80 46l114 -228zM66 19l-67 54l149 177l-85 175l80 46l114 -228z" />
    <glyph glyph-name="onequarter" unicode="&#xbc;" horiz-adv-x="900" 
d="M730 89l-15 -89h-85l15 89h-192l12 70l221 270h101l-46 -266h58l-14 -74h-55zM685 319h-5l-122 -156h98zM163 279l57 319l-84 -61l-41 61l155 110h81l-75 -429h-93zM196 -33l-62 39l547 734l62 -39z" />
    <glyph glyph-name="onehalf" unicode="&#xbd;" horiz-adv-x="900" 
d="M163 279l57 319l-84 -61l-41 61l155 110h81l-75 -429h-93zM548 324q20 55 60.5 82.5t91.5 27.5q60 0 97 -30.5t37 -84.5q0 -24 -5.5 -43t-17.5 -36.5t-30.5 -34.5t-44.5 -37l-114 -89h167l-15 -79h-279l14 77l184 151q58 48 58 86q0 25 -15 36t-40 11q-28 0 -44.5 -15.5
t-25.5 -43.5zM196 -33l-62 39l547 734l62 -39z" />
    <glyph glyph-name="threequarters" unicode="&#xbe;" horiz-adv-x="900" 
d="M730 89l-15 -89h-85l15 89h-192l12 70l221 270h101l-46 -266h58l-14 -74h-55zM685 319h-5l-122 -156h98zM196 -33l-62 39l547 734l62 -39zM198 540q86 0 86 67q0 22 -13.5 32t-33.5 10q-23 0 -38.5 -9.5t-29.5 -35.5l-65 38q25 42 60.5 60.5t78.5 18.5q30 0 53.5 -9.5
t39.5 -25.5t24 -36t8 -41q0 -41 -23 -67.5t-57 -34.5q30 -11 47 -34t17 -52q0 -36 -12.5 -63t-34 -45t-50 -27t-60.5 -9q-57 0 -93 26.5t-51 71.5l80 24q8 -26 25.5 -36.5t39.5 -10.5q35 0 52.5 17.5t17.5 44.5q0 29 -22 44t-57 15h-23l11 67h23z" />
    <glyph glyph-name="questiondown" unicode="&#xbf;" horiz-adv-x="517" 
d="M107 140q23 16 38.5 28.5t26 26t17 29t9.5 37.5l4 26h115l-6 -39q-4 -24 -10.5 -43.5t-17.5 -36.5t-27 -33t-38 -34l-52 -41q-11 -9 -23 -19t-22 -22.5t-16 -28t-6 -34.5q0 -80 89 -80q24 0 44 8.5t34.5 23t24 33.5t14.5 40l113 -19q-9 -40 -29.5 -75t-52 -61.5
t-72.5 -41.5t-90 -15q-39 0 -75 9t-63.5 30t-43.5 55t-16 84q0 61 33 104.5t98 88.5zM200 423q0 31 21.5 53.5t52.5 22.5q30 0 51.5 -18.5t21.5 -53.5q0 -33 -23 -54.5t-53 -21.5t-50.5 19.5t-20.5 52.5z" />
    <glyph glyph-name="Agrave" unicode="&#xc0;" horiz-adv-x="668" 
d="M492 0l-29 163h-303l-101 -163h-146l462 708h107l141 -708h-131zM399 566l-179 -297h226zM474 764h-90l-141 144h132z" />
    <glyph glyph-name="Aacute" unicode="&#xc1;" horiz-adv-x="668" 
d="M492 0l-29 163h-303l-101 -163h-146l462 708h107l141 -708h-131zM399 566l-179 -297h226zM485 764h-93l125 144h133z" />
    <glyph glyph-name="Acircumflex" unicode="&#xc2;" horiz-adv-x="668" 
d="M492 0l-29 163h-303l-101 -163h-146l462 708h107l141 -708h-131zM399 566l-179 -297h226zM507 764l-54 91l-86 -91h-112l140 144h132l88 -144h-108z" />
    <glyph glyph-name="Atilde" unicode="&#xc3;" horiz-adv-x="668" 
d="M492 0l-29 163h-303l-101 -163h-146l462 708h107l141 -708h-131zM399 566l-179 -297h226zM251 768q8 24 19.5 46.5t28 40t38 28t49.5 10.5q20 0 39 -5t36 -13t32.5 -13.5t29.5 -5.5q20 0 32.5 13.5t20.5 30.5h66q-8 -24 -19.5 -46.5t-27.5 -40t-37.5 -28t-49.5 -10.5
q-19 0 -36 4.5t-33 12.5q-19 9 -36 15t-32 6q-20 0 -33 -14t-21 -31h-66z" />
    <glyph glyph-name="Adieresis" unicode="&#xc4;" horiz-adv-x="668" 
d="M492 0l-29 163h-303l-101 -163h-146l462 708h107l141 -708h-131zM399 566l-179 -297h226zM416 846q0 -29 -19.5 -50t-49.5 -21q-29 0 -48.5 17.5t-19.5 49.5t21 51.5t50 19.5t47.5 -17.5t18.5 -49.5zM614 846q0 -29 -19.5 -50t-49.5 -21q-29 0 -48.5 17.5t-19.5 49.5
t21 51.5t50 19.5t47.5 -17.5t18.5 -49.5z" />
    <glyph glyph-name="Aring" unicode="&#xc5;" horiz-adv-x="668" 
d="M492 0l-29 163h-303l-101 -163h-146l462 708h107l141 -708h-131zM399 566l-179 -297h226zM437 753q-40 0 -65 24.5t-25 61.5q0 24 8.5 45.5t24 37.5t36.5 25t46 9q40 0 64.5 -24t24.5 -61q0 -51 -32 -84.5t-82 -33.5zM502 862q0 20 -12 35t-33 15q-27 0 -44 -19t-17 -48
q0 -20 11.5 -34t32.5 -14q28 0 45 18.5t17 46.5z" />
    <glyph glyph-name="AE" unicode="&#xc6;" horiz-adv-x="1033" 
d="M1026 600h-326l-32 -183h311l-19 -104h-310l-36 -203h354l-19 -110h-474l32 187h-255l-142 -187h-142l553 708h524zM580 600h-15l-235 -311h195z" />
    <glyph glyph-name="Ccedilla" unicode="&#xc7;" horiz-adv-x="681" 
d="M448 -138q0 -29 -14 -48.5t-35.5 -31.5t-47 -17t-47.5 -5q-29 0 -59 7.5t-50 18.5l27 48q35 -20 78 -20q9 0 20.5 1.5t21 6t16.5 12.5t7 21q0 23 -15 29.5t-32 6.5q-8 0 -19 -1.5t-21 -4.5l-18 25l64 74q-63 6 -114 30.5t-87 63.5t-55.5 92t-19.5 116q0 92 32 172
t88.5 139.5t132.5 94t164 34.5q39 0 75.5 -8t68 -22t56.5 -34t41 -44l-97 -73q-8 12 -21 25.5t-32 24.5t-42.5 18t-52.5 7q-63 0 -115.5 -27t-90 -72t-58.5 -102t-21 -117q0 -44 13.5 -82.5t39 -67t63.5 -45.5t87 -17q53 0 101 22t86 69l79 -70q-41 -51 -106.5 -88
t-159.5 -40l-41 -48q7 2 11.5 2h8.5q14 0 29.5 -3.5t29 -12.5t22.5 -23.5t9 -35.5z" />
    <glyph glyph-name="Egrave" unicode="&#xc8;" 
d="M25 0l125 708h446l-19 -108h-326l-32 -183h311l-19 -104h-310l-36 -203h354l-19 -110h-475zM460 764h-90l-141 144h132z" />
    <glyph glyph-name="Eacute" unicode="&#xc9;" 
d="M25 0l125 708h446l-19 -108h-326l-32 -183h311l-19 -104h-310l-36 -203h354l-19 -110h-475zM409 764h-93l125 144h133z" />
    <glyph glyph-name="Ecircumflex" unicode="&#xca;" 
d="M25 0l125 708h446l-19 -108h-326l-32 -183h311l-19 -104h-310l-36 -203h354l-19 -110h-475zM456 764l-54 91l-86 -91h-112l140 144h132l88 -144h-108z" />
    <glyph glyph-name="Edieresis" unicode="&#xcb;" 
d="M25 0l125 708h446l-19 -108h-326l-32 -183h311l-19 -104h-310l-36 -203h354l-19 -110h-475zM360 846q0 -29 -19.5 -50t-49.5 -21q-29 0 -48.5 17.5t-19.5 49.5t21 51.5t50 19.5t47.5 -17.5t18.5 -49.5zM558 846q0 -29 -19.5 -50t-49.5 -21q-29 0 -48.5 17.5t-19.5 49.5
t21 51.5t50 19.5t47.5 -17.5t18.5 -49.5z" />
    <glyph glyph-name="Igrave" unicode="&#xcc;" horiz-adv-x="291" 
d="M25 0l125 708h123l-125 -708h-123zM277 764h-90l-141 144h132z" />
    <glyph glyph-name="Iacute" unicode="&#xcd;" horiz-adv-x="291" 
d="M25 0l125 708h123l-125 -708h-123zM250 764h-93l125 144h133z" />
    <glyph glyph-name="Icircumflex" unicode="&#xce;" horiz-adv-x="291" 
d="M25 0l125 708h123l-125 -708h-123zM292 764l-54 91l-86 -91h-112l140 144h132l88 -144h-108z" />
    <glyph glyph-name="Idieresis" unicode="&#xcf;" horiz-adv-x="291" 
d="M25 0l125 708h123l-125 -708h-123zM201 846q0 -29 -19.5 -50t-49.5 -21q-29 0 -48.5 17.5t-19.5 49.5t21 51.5t50 19.5t47.5 -17.5t18.5 -49.5zM399 846q0 -29 -19.5 -50t-49.5 -21q-29 0 -48.5 17.5t-19.5 49.5t21 51.5t50 19.5t47.5 -17.5t18.5 -49.5z" />
    <glyph glyph-name="Eth" unicode="&#xd0;" horiz-adv-x="757" 
d="M18 325l15 83h64l53 300h242q60 0 119 -16.5t106 -52t76 -92t29 -135.5q0 -93 -32.5 -169t-90.5 -130t-137 -83.5t-172 -29.5h-265l57 325h-64zM429 408l-15 -83h-210l-38 -217h129q74 0 130 24t93.5 64.5t56.5 92t19 107.5q0 42 -14 80t-42.5 66t-72 44.5t-103.5 16.5
h-109l-34 -195h210z" />
    <glyph glyph-name="Ntilde" unicode="&#xd1;" horiz-adv-x="788" 
d="M479 0l-232 550h-2l-97 -550h-123l125 708h160l228 -533h2l94 533h123l-125 -708h-153zM279 768q8 24 19.5 46.5t28 40t38 28t49.5 10.5q20 0 39 -5t36 -13t32.5 -13.5t29.5 -5.5q20 0 32.5 13.5t20.5 30.5h66q-8 -24 -19.5 -46.5t-27.5 -40t-37.5 -28t-49.5 -10.5
q-19 0 -36 4.5t-33 12.5q-19 9 -36 15t-32 6q-20 0 -33 -14t-21 -31h-66z" />
    <glyph glyph-name="Ograve" unicode="&#xd2;" horiz-adv-x="829" 
d="M459 726q76 0 137.5 -21.5t105.5 -61t68 -96.5t24 -128q0 -90 -30.5 -170t-84.5 -139t-128 -93.5t-162 -34.5q-78 0 -141 21t-107.5 61t-68.5 97t-24 128q0 90 31.5 170t86.5 139t130 93.5t163 34.5zM389 90q67 0 118.5 27t87 72t54 102t18.5 117q0 43 -14 82t-41 67.5
t-67 45.5t-92 17q-64 0 -115.5 -27t-87.5 -72t-55.5 -102t-19.5 -117q0 -44 14 -82.5t41 -67t67 -45.5t92 -17zM577 764h-90l-141 144h132z" />
    <glyph glyph-name="Oacute" unicode="&#xd3;" horiz-adv-x="829" 
d="M459 726q76 0 137.5 -21.5t105.5 -61t68 -96.5t24 -128q0 -90 -30.5 -170t-84.5 -139t-128 -93.5t-162 -34.5q-78 0 -141 21t-107.5 61t-68.5 97t-24 128q0 90 31.5 170t86.5 139t130 93.5t163 34.5zM389 90q67 0 118.5 27t87 72t54 102t18.5 117q0 43 -14 82t-41 67.5
t-67 45.5t-92 17q-64 0 -115.5 -27t-87.5 -72t-55.5 -102t-19.5 -117q0 -44 14 -82.5t41 -67t67 -45.5t92 -17zM489 764h-93l125 144h133z" />
    <glyph glyph-name="Ocircumflex" unicode="&#xd4;" horiz-adv-x="829" 
d="M459 726q76 0 137.5 -21.5t105.5 -61t68 -96.5t24 -128q0 -90 -30.5 -170t-84.5 -139t-128 -93.5t-162 -34.5q-78 0 -141 21t-107.5 61t-68.5 97t-24 128q0 90 31.5 170t86.5 139t130 93.5t163 34.5zM389 90q67 0 118.5 27t87 72t54 102t18.5 117q0 43 -14 82t-41 67.5
t-67 45.5t-92 17q-64 0 -115.5 -27t-87.5 -72t-55.5 -102t-19.5 -117q0 -44 14 -82.5t41 -67t67 -45.5t92 -17zM573 764l-54 91l-86 -91h-112l140 144h132l88 -144h-108z" />
    <glyph glyph-name="Otilde" unicode="&#xd5;" horiz-adv-x="829" 
d="M459 726q76 0 137.5 -21.5t105.5 -61t68 -96.5t24 -128q0 -90 -30.5 -170t-84.5 -139t-128 -93.5t-162 -34.5q-78 0 -141 21t-107.5 61t-68.5 97t-24 128q0 90 31.5 170t86.5 139t130 93.5t163 34.5zM389 90q67 0 118.5 27t87 72t54 102t18.5 117q0 43 -14 82t-41 67.5
t-67 45.5t-92 17q-64 0 -115.5 -27t-87.5 -72t-55.5 -102t-19.5 -117q0 -44 14 -82.5t41 -67t67 -45.5t92 -17zM303 768q8 24 19.5 46.5t28 40t38 28t49.5 10.5q20 0 39 -5t36 -13t32.5 -13.5t29.5 -5.5q20 0 32.5 13.5t20.5 30.5h66q-8 -24 -19.5 -46.5t-27.5 -40
t-37.5 -28t-49.5 -10.5q-19 0 -36 4.5t-33 12.5q-19 9 -36 15t-32 6q-20 0 -33 -14t-21 -31h-66z" />
    <glyph glyph-name="Odieresis" unicode="&#xd6;" horiz-adv-x="829" 
d="M459 726q76 0 137.5 -21.5t105.5 -61t68 -96.5t24 -128q0 -90 -30.5 -170t-84.5 -139t-128 -93.5t-162 -34.5q-78 0 -141 21t-107.5 61t-68.5 97t-24 128q0 90 31.5 170t86.5 139t130 93.5t163 34.5zM389 90q67 0 118.5 27t87 72t54 102t18.5 117q0 43 -14 82t-41 67.5
t-67 45.5t-92 17q-64 0 -115.5 -27t-87.5 -72t-55.5 -102t-19.5 -117q0 -44 14 -82.5t41 -67t67 -45.5t92 -17zM470 846q0 -29 -19.5 -50t-49.5 -21q-29 0 -48.5 17.5t-19.5 49.5t21 51.5t50 19.5t47.5 -17.5t18.5 -49.5zM668 846q0 -29 -19.5 -50t-49.5 -21
q-29 0 -48.5 17.5t-19.5 49.5t21 51.5t50 19.5t47.5 -17.5t18.5 -49.5z" />
    <glyph glyph-name="multiply" unicode="&#xd7;" horiz-adv-x="666" 
d="M333 374l182 182l70 -70l-181 -181l185 -186l-74 -74l-183 181l-181 -181l-74 73l185 182l-184 186l72 71z" />
    <glyph glyph-name="Oslash" unicode="&#xd8;" horiz-adv-x="829" 
d="M783 744l42 -43l-95 -87q31 -38 47.5 -86.5t16.5 -108.5q0 -90 -30.5 -170t-84.5 -139t-128 -93.5t-162 -34.5q-79 0 -143 22t-109 64l-95 -86l-42 43l97 89q-49 72 -49 175q0 90 31.5 170t86.5 139t130 93.5t163 34.5q69 0 126.5 -18t102.5 -52zM227 150q27 -30 67 -47
t94 -17q68 0 120.5 27.5t88.5 73t54.5 103.5t18.5 119q0 66 -30 119zM602 575q-28 23 -64.5 36.5t-83.5 13.5q-66 0 -118.5 -28t-89 -73.5t-56.5 -104t-20 -119.5q0 -27 5 -52.5t16 -47.5z" />
    <glyph glyph-name="Ugrave" unicode="&#xd9;" horiz-adv-x="714" 
d="M633 260q-11 -63 -35.5 -114.5t-62.5 -87.5t-91 -56t-121 -20q-61 0 -110 15.5t-83 44.5t-52 69.5t-18 91.5q0 14 1 28t4 29l79 448h123l-78 -443q-2 -11 -3 -23t-1 -23q0 -26 7.5 -49t24.5 -41t43.5 -28.5t64.5 -10.5q49 0 82 15.5t54 40.5t32 56.5t17 62.5l78 443h124z
M496 764h-90l-141 144h132z" />
    <glyph glyph-name="Uacute" unicode="&#xda;" horiz-adv-x="714" 
d="M633 260q-11 -63 -35.5 -114.5t-62.5 -87.5t-91 -56t-121 -20q-61 0 -110 15.5t-83 44.5t-52 69.5t-18 91.5q0 14 1 28t4 29l79 448h123l-78 -443q-2 -11 -3 -23t-1 -23q0 -26 7.5 -49t24.5 -41t43.5 -28.5t64.5 -10.5q49 0 82 15.5t54 40.5t32 56.5t17 62.5l78 443h124z
M455 764h-93l125 144h133z" />
    <glyph glyph-name="Ucircumflex" unicode="&#xdb;" horiz-adv-x="714" 
d="M633 260q-11 -63 -35.5 -114.5t-62.5 -87.5t-91 -56t-121 -20q-61 0 -110 15.5t-83 44.5t-52 69.5t-18 91.5q0 14 1 28t4 29l79 448h123l-78 -443q-2 -11 -3 -23t-1 -23q0 -26 7.5 -49t24.5 -41t43.5 -28.5t64.5 -10.5q49 0 82 15.5t54 40.5t32 56.5t17 62.5l78 443h124z
M506 764l-54 91l-86 -91h-112l140 144h132l88 -144h-108z" />
    <glyph glyph-name="Udieresis" unicode="&#xdc;" horiz-adv-x="714" 
d="M633 260q-11 -63 -35.5 -114.5t-62.5 -87.5t-91 -56t-121 -20q-61 0 -110 15.5t-83 44.5t-52 69.5t-18 91.5q0 14 1 28t4 29l79 448h123l-78 -443q-2 -11 -3 -23t-1 -23q0 -26 7.5 -49t24.5 -41t43.5 -28.5t64.5 -10.5q49 0 82 15.5t54 40.5t32 56.5t17 62.5l78 443h124z
M411 846q0 -29 -19.5 -50t-49.5 -21q-29 0 -48.5 17.5t-19.5 49.5t21 51.5t50 19.5t47.5 -17.5t18.5 -49.5zM609 846q0 -29 -19.5 -50t-49.5 -21q-29 0 -48.5 17.5t-19.5 49.5t21 51.5t50 19.5t47.5 -17.5t18.5 -49.5z" />
    <glyph glyph-name="Yacute" unicode="&#xdd;" horiz-adv-x="575" 
d="M343 307l-55 -307h-123l54 307l-177 401h138l118 -300l237 300h150zM401 764h-93l125 144h133z" />
    <glyph glyph-name="Thorn" unicode="&#xde;" horiz-adv-x="609" 
d="M339 570q117 0 179 -49t62 -137q0 -57 -21.5 -99.5t-61 -71t-94.5 -42.5t-121 -14h-107l-28 -157h-122l125 708h122l-24 -138h91zM287 261q81 0 125 27t44 84q0 53 -37 73.5t-99 20.5h-90l-37 -205h94z" />
    <glyph glyph-name="germandbls" unicode="&#xdf;" horiz-adv-x="627" 
d="M292 -12q-21 0 -45.5 2.5t-46.5 8.5l18 99q12 -5 33 -7.5t36 -2.5q36 0 67 11t53.5 31t35 49.5t12.5 66.5q0 28 -11 50t-29.5 37.5t-42.5 24t-51 8.5h-13l18 100h14q21 0 42.5 6.5t38.5 20t27.5 34.5t10.5 51q0 33 -24 60t-69 27q-36 0 -60.5 -15t-40.5 -39t-24.5 -52.5
t-13.5 -55.5l-89 -503h-118l90 509q9 51 26.5 98t48.5 82.5t77 57t111 21.5q42 0 79 -12t64.5 -35t43.5 -56t16 -75q0 -35 -11 -62.5t-29 -48t-42 -34.5t-51 -21v-2q60 -16 96.5 -63.5t36.5 -110.5q0 -56 -20.5 -103.5t-58 -82.5t-90 -54.5t-115.5 -19.5z" />
    <glyph glyph-name="agrave" unicode="&#xe0;" horiz-adv-x="539" 
d="M357 304q2 12 2.5 18.5t0.5 12.5q0 35 -22.5 50t-66.5 15q-35 0 -72.5 -13.5t-66.5 -34.5l-45 79q41 29 93.5 45.5t107.5 16.5q34 0 67.5 -7.5t60 -24.5t42.5 -44.5t16 -68.5q0 -9 -1 -22t-3 -23l-35 -195q-5 -28 -8.5 -58t-3.5 -50h-108q0 27 6 57h-2q-56 -67 -156 -67
q-25 0 -52 6t-49 20.5t-36 39t-14 61.5q0 59 31.5 95.5t81.5 57t111.5 27.5t120.5 7zM332 220q-34 0 -70.5 -2.5t-67 -11.5t-50 -25.5t-19.5 -44.5q0 -17 6.5 -28.5t17.5 -18.5t25 -10t29 -3q27 0 50.5 9t41 24.5t29 36t16.5 44.5l6 30h-14zM355 564h-90l-141 144h132z" />
    <glyph glyph-name="aacute" unicode="&#xe1;" horiz-adv-x="539" 
d="M357 304q2 12 2.5 18.5t0.5 12.5q0 35 -22.5 50t-66.5 15q-35 0 -72.5 -13.5t-66.5 -34.5l-45 79q41 29 93.5 45.5t107.5 16.5q34 0 67.5 -7.5t60 -24.5t42.5 -44.5t16 -68.5q0 -9 -1 -22t-3 -23l-35 -195q-5 -28 -8.5 -58t-3.5 -50h-108q0 27 6 57h-2q-56 -67 -156 -67
q-25 0 -52 6t-49 20.5t-36 39t-14 61.5q0 59 31.5 95.5t81.5 57t111.5 27.5t120.5 7zM332 220q-34 0 -70.5 -2.5t-67 -11.5t-50 -25.5t-19.5 -44.5q0 -17 6.5 -28.5t17.5 -18.5t25 -10t29 -3q27 0 50.5 9t41 24.5t29 36t16.5 44.5l6 30h-14zM339 564h-93l125 144h133z" />
    <glyph glyph-name="acircumflex" unicode="&#xe2;" horiz-adv-x="539" 
d="M357 304q2 12 2.5 18.5t0.5 12.5q0 35 -22.5 50t-66.5 15q-35 0 -72.5 -13.5t-66.5 -34.5l-45 79q41 29 93.5 45.5t107.5 16.5q34 0 67.5 -7.5t60 -24.5t42.5 -44.5t16 -68.5q0 -9 -1 -22t-3 -23l-35 -195q-5 -28 -8.5 -58t-3.5 -50h-108q0 27 6 57h-2q-56 -67 -156 -67
q-25 0 -52 6t-49 20.5t-36 39t-14 61.5q0 59 31.5 95.5t81.5 57t111.5 27.5t120.5 7zM332 220q-34 0 -70.5 -2.5t-67 -11.5t-50 -25.5t-19.5 -44.5q0 -17 6.5 -28.5t17.5 -18.5t25 -10t29 -3q27 0 50.5 9t41 24.5t29 36t16.5 44.5l6 30h-14zM381 564l-54 91l-86 -91h-112
l140 144h132l88 -144h-108z" />
    <glyph glyph-name="atilde" unicode="&#xe3;" horiz-adv-x="539" 
d="M357 304q2 12 2.5 18.5t0.5 12.5q0 35 -22.5 50t-66.5 15q-35 0 -72.5 -13.5t-66.5 -34.5l-45 79q41 29 93.5 45.5t107.5 16.5q34 0 67.5 -7.5t60 -24.5t42.5 -44.5t16 -68.5q0 -9 -1 -22t-3 -23l-35 -195q-5 -28 -8.5 -58t-3.5 -50h-108q0 27 6 57h-2q-56 -67 -156 -67
q-25 0 -52 6t-49 20.5t-36 39t-14 61.5q0 59 31.5 95.5t81.5 57t111.5 27.5t120.5 7zM332 220q-34 0 -70.5 -2.5t-67 -11.5t-50 -25.5t-19.5 -44.5q0 -17 6.5 -28.5t17.5 -18.5t25 -10t29 -3q27 0 50.5 9t41 24.5t29 36t16.5 44.5l6 30h-14zM118 568q8 24 19.5 46.5t28 40
t38 28t49.5 10.5q20 0 39 -5t36 -13t32.5 -13.5t29.5 -5.5q20 0 32.5 13.5t20.5 30.5h66q-8 -24 -19.5 -46.5t-27.5 -40t-37.5 -28t-49.5 -10.5q-19 0 -36 4.5t-33 12.5q-19 9 -36 15t-32 6q-20 0 -33 -14t-21 -31h-66z" />
    <glyph glyph-name="adieresis" unicode="&#xe4;" horiz-adv-x="539" 
d="M357 304q2 12 2.5 18.5t0.5 12.5q0 35 -22.5 50t-66.5 15q-35 0 -72.5 -13.5t-66.5 -34.5l-45 79q41 29 93.5 45.5t107.5 16.5q34 0 67.5 -7.5t60 -24.5t42.5 -44.5t16 -68.5q0 -9 -1 -22t-3 -23l-35 -195q-5 -28 -8.5 -58t-3.5 -50h-108q0 27 6 57h-2q-56 -67 -156 -67
q-25 0 -52 6t-49 20.5t-36 39t-14 61.5q0 59 31.5 95.5t81.5 57t111.5 27.5t120.5 7zM332 220q-34 0 -70.5 -2.5t-67 -11.5t-50 -25.5t-19.5 -44.5q0 -17 6.5 -28.5t17.5 -18.5t25 -10t29 -3q27 0 50.5 9t41 24.5t29 36t16.5 44.5l6 30h-14zM284 646q0 -29 -19.5 -50
t-49.5 -21q-29 0 -48.5 17.5t-19.5 49.5t21 51.5t50 19.5t47.5 -17.5t18.5 -49.5zM482 646q0 -29 -19.5 -50t-49.5 -21q-29 0 -48.5 17.5t-19.5 49.5t21 51.5t50 19.5t47.5 -17.5t18.5 -49.5z" />
    <glyph glyph-name="aring" unicode="&#xe5;" horiz-adv-x="539" 
d="M357 304q2 12 2.5 18.5t0.5 12.5q0 35 -22.5 50t-66.5 15q-35 0 -72.5 -13.5t-66.5 -34.5l-45 79q41 29 93.5 45.5t107.5 16.5q34 0 67.5 -7.5t60 -24.5t42.5 -44.5t16 -68.5q0 -9 -1 -22t-3 -23l-35 -195q-5 -28 -8.5 -58t-3.5 -50h-108q0 27 6 57h-2q-56 -67 -156 -67
q-25 0 -52 6t-49 20.5t-36 39t-14 61.5q0 59 31.5 95.5t81.5 57t111.5 27.5t120.5 7zM332 220q-34 0 -70.5 -2.5t-67 -11.5t-50 -25.5t-19.5 -44.5q0 -17 6.5 -28.5t17.5 -18.5t25 -10t29 -3q27 0 50.5 9t41 24.5t29 36t16.5 44.5l6 30h-14zM304 553q-40 0 -65 24.5
t-25 61.5q0 24 8.5 45.5t24 37.5t36.5 25t46 9q40 0 64.5 -24t24.5 -61q0 -51 -32 -84.5t-82 -33.5zM369 662q0 20 -12 35t-33 15q-27 0 -44 -19t-17 -48q0 -20 11.5 -34t32.5 -14q28 0 45 18.5t17 46.5z" />
    <glyph glyph-name="ae" unicode="&#xe6;" horiz-adv-x="885" 
d="M629 493q43 0 79.5 -12t63.5 -36t42 -60t15 -84q0 -16 -3 -44.5t-9 -53.5h-356q-1 -5 -1 -11q0 -24 9.5 -44t26.5 -34.5t40 -23t50 -8.5q46 0 78.5 17t58.5 46l67 -63q-89 -96 -217 -96q-65 0 -115 25t-72 74q-11 -17 -28 -34t-41.5 -30.5t-57.5 -22t-76 -8.5
q-26 0 -56 5.5t-55.5 20.5t-42.5 40t-17 64q0 58 31.5 91.5t81.5 50t113 21t126 4.5q3 12 4.5 26t1.5 20q0 38 -25.5 52.5t-63.5 14.5q-35 0 -72.5 -13.5t-66.5 -34.5l-45 79q41 29 93.5 45.5t107.5 16.5q68 0 103.5 -22t48.5 -60q26 33 71 57.5t108 24.5zM351 203h-33
q-43 0 -78 -3t-60.5 -10.5t-39.5 -20.5t-14 -34q0 -33 24 -45.5t56 -12.5q63 0 98 29t44 80zM721 287q1 7 1.5 13t0.5 12q0 39 -27.5 66t-77.5 27q-31 0 -56 -11t-43.5 -28.5t-30.5 -38.5t-16 -40h249z" />
    <glyph glyph-name="ccedilla" unicode="&#xe7;" horiz-adv-x="492" 
d="M354 -138q0 -29 -14 -48.5t-35.5 -31.5t-47 -17t-47.5 -5q-29 0 -59 7.5t-50 18.5l27 48q35 -20 78 -20q9 0 20.5 1.5t21 6t16.5 12.5t7 21q0 23 -15 29.5t-32 6.5q-8 0 -19 -1.5t-21 -4.5l-18 25l67 78q-47 4 -85 20t-65 43t-41.5 63.5t-14.5 80.5q0 58 21 112t59 95.5
t92.5 66t120.5 24.5q54 0 102.5 -19.5t74.5 -61.5l-84 -68q-13 22 -40 37.5t-59 15.5q-37 0 -68.5 -15t-54 -41t-35.5 -60t-13 -71q0 -25 7 -47.5t22 -40t38 -28t55 -10.5q45 0 72.5 15.5t50.5 38.5l67 -68q-33 -32 -73 -53.5t-91 -27.5l-47 -54q7 2 11.5 2h8.5
q14 0 29.5 -3.5t29 -12.5t22.5 -23.5t9 -35.5z" />
    <glyph glyph-name="egrave" unicode="&#xe8;" horiz-adv-x="564" 
d="M140 203q-1 -5 -1 -11q0 -24 9.5 -44t26.5 -34.5t40 -23t50 -8.5q46 0 78.5 17t58.5 46l67 -63q-89 -96 -217 -96q-49 0 -90 14.5t-71 41.5t-47 66.5t-17 90.5q0 62 21 115.5t58.5 93.5t89 62.5t112.5 22.5q43 0 79.5 -12t63.5 -36t42 -60t15 -84q0 -16 -3 -44.5
t-9 -53.5h-356zM400 287q1 7 1.5 13t0.5 12q0 39 -27.5 66t-77.5 27q-31 0 -56 -11t-43.5 -28.5t-30.5 -38.5t-16 -40h249zM365 564h-90l-141 144h132z" />
    <glyph glyph-name="eacute" unicode="&#xe9;" horiz-adv-x="564" 
d="M140 203q-1 -5 -1 -11q0 -24 9.5 -44t26.5 -34.5t40 -23t50 -8.5q46 0 78.5 17t58.5 46l67 -63q-89 -96 -217 -96q-49 0 -90 14.5t-71 41.5t-47 66.5t-17 90.5q0 62 21 115.5t58.5 93.5t89 62.5t112.5 22.5q43 0 79.5 -12t63.5 -36t42 -60t15 -84q0 -16 -3 -44.5
t-9 -53.5h-356zM400 287q1 7 1.5 13t0.5 12q0 39 -27.5 66t-77.5 27q-31 0 -56 -11t-43.5 -28.5t-30.5 -38.5t-16 -40h249zM339 564h-93l125 144h133z" />
    <glyph glyph-name="ecircumflex" unicode="&#xea;" horiz-adv-x="564" 
d="M140 203q-1 -5 -1 -11q0 -24 9.5 -44t26.5 -34.5t40 -23t50 -8.5q46 0 78.5 17t58.5 46l67 -63q-89 -96 -217 -96q-49 0 -90 14.5t-71 41.5t-47 66.5t-17 90.5q0 62 21 115.5t58.5 93.5t89 62.5t112.5 22.5q43 0 79.5 -12t63.5 -36t42 -60t15 -84q0 -16 -3 -44.5
t-9 -53.5h-356zM400 287q1 7 1.5 13t0.5 12q0 39 -27.5 66t-77.5 27q-31 0 -56 -11t-43.5 -28.5t-30.5 -38.5t-16 -40h249zM412 564l-54 91l-86 -91h-112l140 144h132l88 -144h-108z" />
    <glyph glyph-name="edieresis" unicode="&#xeb;" horiz-adv-x="564" 
d="M140 203q-1 -5 -1 -11q0 -24 9.5 -44t26.5 -34.5t40 -23t50 -8.5q46 0 78.5 17t58.5 46l67 -63q-89 -96 -217 -96q-49 0 -90 14.5t-71 41.5t-47 66.5t-17 90.5q0 62 21 115.5t58.5 93.5t89 62.5t112.5 22.5q43 0 79.5 -12t63.5 -36t42 -60t15 -84q0 -16 -3 -44.5
t-9 -53.5h-356zM400 287q1 7 1.5 13t0.5 12q0 39 -27.5 66t-77.5 27q-31 0 -56 -11t-43.5 -28.5t-30.5 -38.5t-16 -40h249zM313 646q0 -29 -19.5 -50t-49.5 -21q-29 0 -48.5 17.5t-19.5 49.5t21 51.5t50 19.5t47.5 -17.5t18.5 -49.5zM511 646q0 -29 -19.5 -50t-49.5 -21
q-29 0 -48.5 17.5t-19.5 49.5t21 51.5t50 19.5t47.5 -17.5t18.5 -49.5z" />
    <glyph glyph-name="igrave" unicode="&#xec;" horiz-adv-x="267" 
d="M21 0l84 480h118l-85 -480h-117zM228 564h-90l-141 144h132z" />
    <glyph glyph-name="iacute" unicode="&#xed;" horiz-adv-x="267" 
d="M21 0l84 480h118l-85 -480h-117zM208 564h-93l125 144h133z" />
    <glyph glyph-name="icircumflex" unicode="&#xee;" horiz-adv-x="267" 
d="M21 0l84 480h118l-85 -480h-117zM247 564l-54 91l-86 -91h-112l140 144h132l88 -144h-108z" />
    <glyph glyph-name="idieresis" unicode="&#xef;" horiz-adv-x="267" 
d="M21 0l84 480h118l-85 -480h-117zM158 646q0 -29 -19.5 -50t-49.5 -21q-29 0 -48.5 17.5t-19.5 49.5t21 51.5t50 19.5t47.5 -17.5t18.5 -49.5zM356 646q0 -29 -19.5 -50t-49.5 -21q-29 0 -48.5 17.5t-19.5 49.5t21 51.5t50 19.5t47.5 -17.5t18.5 -49.5z" />
    <glyph glyph-name="eth" unicode="&#xf0;" horiz-adv-x="604" 
d="M553 312q0 -60 -17 -118.5t-53 -104t-91.5 -74t-132.5 -28.5q-50 0 -92.5 15t-73.5 43t-48.5 66t-17.5 85q0 56 19.5 109.5t55.5 95t88.5 67t118.5 25.5q35 0 66 -8.5t48 -24.5l2 2q-16 36 -40 77t-58 74l-117 -51l-49 56l119 51q-12 15 -30.5 32t-36.5 33l96 52
q23 -20 43.5 -41.5t30.5 -32.5l122 53l53 -55l-126 -54q54 -65 87.5 -151.5t33.5 -192.5zM432 273q0 54 -33 89t-90 35q-38 0 -68.5 -15.5t-52 -41.5t-33.5 -60t-12 -72q0 -54 32 -89t90 -35q38 0 69 15t52.5 41t33.5 60.5t12 72.5z" />
    <glyph glyph-name="ntilde" unicode="&#xf1;" 
d="M205 405q25 39 63.5 63.5t92.5 24.5q40 0 69.5 -12t49 -32t29 -47.5t9.5 -57.5q0 -25 -4 -45l-53 -299h-117l46 264q2 12 3.5 24t1.5 24q0 32 -17 56.5t-62 24.5q-29 0 -51 -11t-38.5 -29.5t-27 -41.5t-14.5 -47l-47 -264h-117l66 377q4 19 8.5 49t6.5 54h110
q-1 -11 -4 -34.5t-5 -40.5h2zM154 568q8 24 19.5 46.5t28 40t38 28t49.5 10.5q20 0 39 -5t36 -13t32.5 -13.5t29.5 -5.5q20 0 32.5 13.5t20.5 30.5h66q-8 -24 -19.5 -46.5t-27.5 -40t-37.5 -28t-49.5 -10.5q-19 0 -36 4.5t-33 12.5q-19 9 -36 15t-32 6q-20 0 -33 -14
t-21 -31h-66z" />
    <glyph glyph-name="ograve" unicode="&#xf2;" horiz-adv-x="604" 
d="M259 -13q-50 0 -92.5 15t-73.5 43t-48.5 66t-17.5 85q0 59 20.5 112.5t58.5 94.5t91.5 65.5t119.5 24.5q51 0 93.5 -15t73.5 -42.5t48.5 -66t17.5 -84.5q0 -60 -20.5 -114t-58.5 -95t-92 -65t-120 -24zM432 273q0 54 -33 89t-90 35q-38 0 -68.5 -15.5t-52 -41.5
t-33.5 -60t-12 -72q0 -54 32 -89t90 -35q38 0 69 15t52.5 41t33.5 60.5t12 72.5zM375 564h-90l-141 144h132z" />
    <glyph glyph-name="oacute" unicode="&#xf3;" horiz-adv-x="604" 
d="M259 -13q-50 0 -92.5 15t-73.5 43t-48.5 66t-17.5 85q0 59 20.5 112.5t58.5 94.5t91.5 65.5t119.5 24.5q51 0 93.5 -15t73.5 -42.5t48.5 -66t17.5 -84.5q0 -60 -20.5 -114t-58.5 -95t-92 -65t-120 -24zM432 273q0 54 -33 89t-90 35q-38 0 -68.5 -15.5t-52 -41.5
t-33.5 -60t-12 -72q0 -54 32 -89t90 -35q38 0 69 15t52.5 41t33.5 60.5t12 72.5zM363 564h-93l125 144h133z" />
    <glyph glyph-name="ocircumflex" unicode="&#xf4;" horiz-adv-x="604" 
d="M259 -13q-50 0 -92.5 15t-73.5 43t-48.5 66t-17.5 85q0 59 20.5 112.5t58.5 94.5t91.5 65.5t119.5 24.5q51 0 93.5 -15t73.5 -42.5t48.5 -66t17.5 -84.5q0 -60 -20.5 -114t-58.5 -95t-92 -65t-120 -24zM432 273q0 54 -33 89t-90 35q-38 0 -68.5 -15.5t-52 -41.5
t-33.5 -60t-12 -72q0 -54 32 -89t90 -35q38 0 69 15t52.5 41t33.5 60.5t12 72.5zM419 564l-54 91l-86 -91h-112l140 144h132l88 -144h-108z" />
    <glyph glyph-name="otilde" unicode="&#xf5;" horiz-adv-x="604" 
d="M259 -13q-50 0 -92.5 15t-73.5 43t-48.5 66t-17.5 85q0 59 20.5 112.5t58.5 94.5t91.5 65.5t119.5 24.5q51 0 93.5 -15t73.5 -42.5t48.5 -66t17.5 -84.5q0 -60 -20.5 -114t-58.5 -95t-92 -65t-120 -24zM432 273q0 54 -33 89t-90 35q-38 0 -68.5 -15.5t-52 -41.5
t-33.5 -60t-12 -72q0 -54 32 -89t90 -35q38 0 69 15t52.5 41t33.5 60.5t12 72.5zM158 568q8 24 19.5 46.5t28 40t38 28t49.5 10.5q20 0 39 -5t36 -13t32.5 -13.5t29.5 -5.5q20 0 32.5 13.5t20.5 30.5h66q-8 -24 -19.5 -46.5t-27.5 -40t-37.5 -28t-49.5 -10.5q-19 0 -36 4.5
t-33 12.5q-19 9 -36 15t-32 6q-20 0 -33 -14t-21 -31h-66z" />
    <glyph glyph-name="odieresis" unicode="&#xf6;" horiz-adv-x="604" 
d="M259 -13q-50 0 -92.5 15t-73.5 43t-48.5 66t-17.5 85q0 59 20.5 112.5t58.5 94.5t91.5 65.5t119.5 24.5q51 0 93.5 -15t73.5 -42.5t48.5 -66t17.5 -84.5q0 -60 -20.5 -114t-58.5 -95t-92 -65t-120 -24zM432 273q0 54 -33 89t-90 35q-38 0 -68.5 -15.5t-52 -41.5
t-33.5 -60t-12 -72q0 -54 32 -89t90 -35q38 0 69 15t52.5 41t33.5 60.5t12 72.5zM324 646q0 -29 -19.5 -50t-49.5 -21q-29 0 -48.5 17.5t-19.5 49.5t21 51.5t50 19.5t47.5 -17.5t18.5 -49.5zM522 646q0 -29 -19.5 -50t-49.5 -21q-29 0 -48.5 17.5t-19.5 49.5t21 51.5
t50 19.5t47.5 -17.5t18.5 -49.5z" />
    <glyph glyph-name="divide" unicode="&#xf7;" horiz-adv-x="666" 
d="M258 483q0 31 22 53t53 22t53 -22t22 -53t-22 -53t-53 -22t-53 22t-22 53zM258 123q0 31 22 53t53 22t53 -22t22 -53t-22 -53t-53 -22t-53 22t-22 53zM80 250v107h506v-107h-506z" />
    <glyph glyph-name="oslash" unicode="&#xf8;" horiz-adv-x="604" 
d="M19 -27l-33 41l76 66q-17 24 -26 53t-9 63q0 59 20.5 112.5t58.5 94.5t91.5 65.5t119.5 24.5q48 0 88 -13.5t72 -37.5l79 68l35 -40l-77 -67q17 -25 26.5 -54t9.5 -64q0 -60 -20.5 -114t-58.5 -95t-92 -65t-120 -24q-48 0 -89 13.5t-72 39.5zM393 367q-33 30 -84 30
q-38 0 -68.5 -15.5t-52 -41.5t-33.5 -60t-12 -72q0 -29 9 -51zM179 115q16 -14 37.5 -22.5t48.5 -8.5q38 0 69 15t52.5 41t33.5 60.5t12 72.5q0 31 -10 52z" />
    <glyph glyph-name="ugrave" unicode="&#xf9;" 
d="M348 75q-25 -39 -63.5 -63.5t-92.5 -24.5q-40 0 -69.5 12t-49 32t-29 47.5t-9.5 57.5q0 25 4 45l53 299h117l-46 -264q-2 -12 -3.5 -24t-1.5 -24q0 -32 17 -56.5t62 -24.5q28 0 50.5 11t39 29.5t27 41.5t14.5 47l47 264h117l-66 -377q-4 -19 -8.5 -49t-6.5 -54h-110
q1 11 4 34.5t5 40.5h-2zM357 564h-90l-141 144h132z" />
    <glyph glyph-name="uacute" unicode="&#xfa;" 
d="M348 75q-25 -39 -63.5 -63.5t-92.5 -24.5q-40 0 -69.5 12t-49 32t-29 47.5t-9.5 57.5q0 25 4 45l53 299h117l-46 -264q-2 -12 -3.5 -24t-1.5 -24q0 -32 17 -56.5t62 -24.5q28 0 50.5 11t39 29.5t27 41.5t14.5 47l47 264h117l-66 -377q-4 -19 -8.5 -49t-6.5 -54h-110
q1 11 4 34.5t5 40.5h-2zM359 564h-93l125 144h133z" />
    <glyph glyph-name="ucircumflex" unicode="&#xfb;" 
d="M348 75q-25 -39 -63.5 -63.5t-92.5 -24.5q-40 0 -69.5 12t-49 32t-29 47.5t-9.5 57.5q0 25 4 45l53 299h117l-46 -264q-2 -12 -3.5 -24t-1.5 -24q0 -32 17 -56.5t62 -24.5q28 0 50.5 11t39 29.5t27 41.5t14.5 47l47 264h117l-66 -377q-4 -19 -8.5 -49t-6.5 -54h-110
q1 11 4 34.5t5 40.5h-2zM399 564l-54 91l-86 -91h-112l140 144h132l88 -144h-108z" />
    <glyph glyph-name="udieresis" unicode="&#xfc;" 
d="M348 75q-25 -39 -63.5 -63.5t-92.5 -24.5q-40 0 -69.5 12t-49 32t-29 47.5t-9.5 57.5q0 25 4 45l53 299h117l-46 -264q-2 -12 -3.5 -24t-1.5 -24q0 -32 17 -56.5t62 -24.5q28 0 50.5 11t39 29.5t27 41.5t14.5 47l47 264h117l-66 -377q-4 -19 -8.5 -49t-6.5 -54h-110
q1 11 4 34.5t5 40.5h-2zM307 646q0 -29 -19.5 -50t-49.5 -21q-29 0 -48.5 17.5t-19.5 49.5t21 51.5t50 19.5t47.5 -17.5t18.5 -49.5zM505 646q0 -29 -19.5 -50t-49.5 -21q-29 0 -48.5 17.5t-19.5 49.5t21 51.5t50 19.5t47.5 -17.5t18.5 -49.5z" />
    <glyph glyph-name="yacute" unicode="&#xfd;" horiz-adv-x="506" 
d="M203 -104q-18 -32 -36 -57.5t-39.5 -43t-47.5 -26.5t-61 -9q-15 0 -30.5 1.5t-30.5 5.5l15 102q11 -4 22.5 -5.5t21.5 -1.5q33 0 51.5 18.5t40.5 56.5l36 62l-108 481h126l62 -352h2l192 352h124zM339 564h-93l125 144h133z" />
    <glyph glyph-name="thorn" unicode="&#xfe;" horiz-adv-x="629" 
d="M94 -240h-118l176 996h117l-65 -353h3q27 42 72 65t99 23q46 0 83.5 -15t64 -42.5t41 -65.5t14.5 -84q0 -62 -19.5 -116t-54.5 -94.5t-83.5 -64t-106.5 -23.5q-66 0 -106.5 24t-61.5 66h-2zM461 270q0 53 -30.5 89t-87.5 36q-35 0 -66 -15t-53.5 -41t-35.5 -60.5
t-13 -72.5q0 -55 33 -90t89 -35q37 0 67.5 15t52 40.5t33 60t11.5 73.5z" />
    <glyph glyph-name="ydieresis" unicode="&#xff;" horiz-adv-x="506" 
d="M203 -104q-18 -32 -36 -57.5t-39.5 -43t-47.5 -26.5t-61 -9q-15 0 -30.5 1.5t-30.5 5.5l15 102q11 -4 22.5 -5.5t21.5 -1.5q33 0 51.5 18.5t40.5 56.5l36 62l-108 481h126l62 -352h2l192 352h124zM286 646q0 -29 -19.5 -50t-49.5 -21q-29 0 -48.5 17.5t-19.5 49.5
t21 51.5t50 19.5t47.5 -17.5t18.5 -49.5zM484 646q0 -29 -19.5 -50t-49.5 -21q-29 0 -48.5 17.5t-19.5 49.5t21 51.5t50 19.5t47.5 -17.5t18.5 -49.5z" />
    <glyph glyph-name="Amacron" unicode="&#x100;" horiz-adv-x="668" 
d="M492 0l-29 163h-303l-101 -163h-146l462 708h107l141 -708h-131zM399 566l-179 -297h226zM283 795l13 77h318l-14 -77h-317z" />
    <glyph glyph-name="amacron" unicode="&#x101;" horiz-adv-x="539" 
d="M357 304q2 12 2.5 18.5t0.5 12.5q0 35 -22.5 50t-66.5 15q-35 0 -72.5 -13.5t-66.5 -34.5l-45 79q41 29 93.5 45.5t107.5 16.5q34 0 67.5 -7.5t60 -24.5t42.5 -44.5t16 -68.5q0 -9 -1 -22t-3 -23l-35 -195q-5 -28 -8.5 -58t-3.5 -50h-108q0 27 6 57h-2q-56 -67 -156 -67
q-25 0 -52 6t-49 20.5t-36 39t-14 61.5q0 59 31.5 95.5t81.5 57t111.5 27.5t120.5 7zM332 220q-34 0 -70.5 -2.5t-67 -11.5t-50 -25.5t-19.5 -44.5q0 -17 6.5 -28.5t17.5 -18.5t25 -10t29 -3q27 0 50.5 9t41 24.5t29 36t16.5 44.5l6 30h-14zM150 595l13 77h318l-14 -77h-317
z" />
    <glyph glyph-name="Abreve" unicode="&#x102;" horiz-adv-x="668" 
d="M492 0l-29 163h-303l-101 -163h-146l462 708h107l141 -708h-131zM399 566l-179 -297h226zM615 908q-18 -73 -67 -108t-120 -35t-111 34t-40 109h66q0 -38 27 -52.5t65 -14.5q42 0 71.5 12.5t43.5 54.5h65z" />
    <glyph glyph-name="abreve" unicode="&#x103;" horiz-adv-x="539" 
d="M357 304q2 12 2.5 18.5t0.5 12.5q0 35 -22.5 50t-66.5 15q-35 0 -72.5 -13.5t-66.5 -34.5l-45 79q41 29 93.5 45.5t107.5 16.5q34 0 67.5 -7.5t60 -24.5t42.5 -44.5t16 -68.5q0 -9 -1 -22t-3 -23l-35 -195q-5 -28 -8.5 -58t-3.5 -50h-108q0 27 6 57h-2q-56 -67 -156 -67
q-25 0 -52 6t-49 20.5t-36 39t-14 61.5q0 59 31.5 95.5t81.5 57t111.5 27.5t120.5 7zM332 220q-34 0 -70.5 -2.5t-67 -11.5t-50 -25.5t-19.5 -44.5q0 -17 6.5 -28.5t17.5 -18.5t25 -10t29 -3q27 0 50.5 9t41 24.5t29 36t16.5 44.5l6 30h-14zM485 708q-18 -73 -67 -108
t-120 -35t-111 34t-40 109h66q0 -38 27 -52.5t65 -14.5q42 0 71.5 12.5t43.5 54.5h65z" />
    <glyph glyph-name="Aogonek" unicode="&#x104;" horiz-adv-x="668" 
d="M567 -195q-24 -17 -50 -27.5t-56 -10.5q-40 0 -63.5 19.5t-23.5 60.5q0 22 10.5 43.5t27.5 41t38 37t42 31.5l-29 163h-303l-101 -163h-146l462 708h107l141 -708h-70q-17 -14 -34.5 -30t-31.5 -33t-23 -34.5t-9 -35.5q0 -35 40 -35q15 0 29.5 6t26.5 15zM399 566
l-179 -297h226z" />
    <glyph glyph-name="aogonek" unicode="&#x105;" horiz-adv-x="539" 
d="M387 -195q-24 -17 -50 -27.5t-56 -10.5q-40 0 -63.5 19.5t-23.5 60.5q0 22 11 44t28.5 42t39 37.5t42.5 31.5q0 26 6 55h-2q-56 -67 -156 -67q-25 0 -52 6t-49 20.5t-36 39t-14 61.5q0 59 31.5 95.5t81.5 57t111.5 27.5t120.5 7q2 12 2.5 18.5t0.5 12.5q0 35 -22.5 50
t-66.5 15q-35 0 -72.5 -13.5t-66.5 -34.5l-45 79q41 29 93.5 45.5t107.5 16.5q34 0 67.5 -7.5t60 -24.5t42.5 -44.5t16 -68.5q0 -9 -1 -22t-3 -23l-35 -195q-5 -28 -8.5 -58t-3.5 -50h-50q-17 -14 -34.5 -30t-31.5 -33t-23 -34.5t-9 -35.5q0 -35 40 -35q15 0 29.5 6t26.5 15
zM332 220q-34 0 -70.5 -2.5t-67 -11.5t-50 -25.5t-19.5 -44.5q0 -17 6.5 -28.5t17.5 -18.5t25 -10t29 -3q27 0 50.5 9t41 24.5t29 36t16.5 44.5l6 30h-14z" />
    <glyph glyph-name="Cacute" unicode="&#x106;" horiz-adv-x="681" 
d="M645 111q-21 -27 -49 -50.5t-63 -41t-77 -27.5t-92 -10q-71 0 -129 22t-99.5 62t-64.5 96t-23 124q0 92 32 172t88.5 139.5t132.5 94t164 34.5q39 0 75.5 -8t68 -22t56.5 -34t41 -44l-97 -73q-8 12 -21 25.5t-32 24.5t-42.5 18t-52.5 7q-63 0 -115.5 -27t-90 -72
t-58.5 -102t-21 -117q0 -44 13.5 -82.5t39 -67t63.5 -45.5t87 -17q53 0 101 22t86 69zM483 764h-93l125 144h133z" />
    <glyph glyph-name="cacute" unicode="&#x107;" horiz-adv-x="492" 
d="M413 344q-13 22 -40 37.5t-59 15.5q-37 0 -68.5 -15t-54 -41t-35.5 -60t-13 -71q0 -25 7 -47.5t22 -40t38 -28t55 -10.5q45 0 72.5 15.5t50.5 38.5l67 -68q-38 -38 -86 -60.5t-111 -22.5q-52 0 -94.5 15t-73 42.5t-47 65.5t-16.5 85q0 58 21 112t59 95.5t92.5 66
t120.5 24.5q54 0 102.5 -19.5t74.5 -61.5zM353 564h-93l125 144h133z" />
    <glyph glyph-name="Ccircumflex" unicode="&#x108;" horiz-adv-x="681" 
d="M645 111q-21 -27 -49 -50.5t-63 -41t-77 -27.5t-92 -10q-71 0 -129 22t-99.5 62t-64.5 96t-23 124q0 92 32 172t88.5 139.5t132.5 94t164 34.5q39 0 75.5 -8t68 -22t56.5 -34t41 -44l-97 -73q-8 12 -21 25.5t-32 24.5t-42.5 18t-52.5 7q-63 0 -115.5 -27t-90 -72
t-58.5 -102t-21 -117q0 -44 13.5 -82.5t39 -67t63.5 -45.5t87 -17q53 0 101 22t86 69zM555 764l-54 91l-86 -91h-112l140 144h132l88 -144h-108z" />
    <glyph glyph-name="ccircumflex" unicode="&#x109;" horiz-adv-x="492" 
d="M413 344q-13 22 -40 37.5t-59 15.5q-37 0 -68.5 -15t-54 -41t-35.5 -60t-13 -71q0 -25 7 -47.5t22 -40t38 -28t55 -10.5q45 0 72.5 15.5t50.5 38.5l67 -68q-38 -38 -86 -60.5t-111 -22.5q-52 0 -94.5 15t-73 42.5t-47 65.5t-16.5 85q0 58 21 112t59 95.5t92.5 66
t120.5 24.5q54 0 102.5 -19.5t74.5 -61.5zM406 564l-54 91l-86 -91h-112l140 144h132l88 -144h-108z" />
    <glyph glyph-name="Cdotaccent" unicode="&#x10a;" horiz-adv-x="681" 
d="M645 111q-21 -27 -49 -50.5t-63 -41t-77 -27.5t-92 -10q-71 0 -129 22t-99.5 62t-64.5 96t-23 124q0 92 32 172t88.5 139.5t132.5 94t164 34.5q39 0 75.5 -8t68 -22t56.5 -34t41 -44l-97 -73q-8 12 -21 25.5t-32 24.5t-42.5 18t-52.5 7q-63 0 -115.5 -27t-90 -72
t-58.5 -102t-21 -117q0 -44 13.5 -82.5t39 -67t63.5 -45.5t87 -17q53 0 101 22t86 69zM568 845q0 -29 -20.5 -51t-50.5 -22q-29 0 -49.5 18t-20.5 51q0 32 22 52.5t51 20.5t48.5 -18.5t19.5 -50.5z" />
    <glyph glyph-name="cdotaccent" unicode="&#x10b;" horiz-adv-x="492" 
d="M413 344q-13 22 -40 37.5t-59 15.5q-37 0 -68.5 -15t-54 -41t-35.5 -60t-13 -71q0 -25 7 -47.5t22 -40t38 -28t55 -10.5q45 0 72.5 15.5t50.5 38.5l67 -68q-38 -38 -86 -60.5t-111 -22.5q-52 0 -94.5 15t-73 42.5t-47 65.5t-16.5 85q0 58 21 112t59 95.5t92.5 66
t120.5 24.5q54 0 102.5 -19.5t74.5 -61.5zM425 645q0 -29 -20.5 -51t-50.5 -22q-29 0 -49.5 18t-20.5 51q0 32 22 52.5t51 20.5t48.5 -18.5t19.5 -50.5z" />
    <glyph glyph-name="Ccaron" unicode="&#x10c;" horiz-adv-x="681" 
d="M645 111q-21 -27 -49 -50.5t-63 -41t-77 -27.5t-92 -10q-71 0 -129 22t-99.5 62t-64.5 96t-23 124q0 92 32 172t88.5 139.5t132.5 94t164 34.5q39 0 75.5 -8t68 -22t56.5 -34t41 -44l-97 -73q-8 12 -21 25.5t-32 24.5t-42.5 18t-52.5 7q-63 0 -115.5 -27t-90 -72
t-58.5 -102t-21 -117q0 -44 13.5 -82.5t39 -67t63.5 -45.5t87 -17q53 0 101 22t86 69zM549 764h-131l-88 144h109l53 -91l86 91h111z" />
    <glyph glyph-name="ccaron" unicode="&#x10d;" horiz-adv-x="492" 
d="M413 344q-13 22 -40 37.5t-59 15.5q-37 0 -68.5 -15t-54 -41t-35.5 -60t-13 -71q0 -25 7 -47.5t22 -40t38 -28t55 -10.5q45 0 72.5 15.5t50.5 38.5l67 -68q-38 -38 -86 -60.5t-111 -22.5q-52 0 -94.5 15t-73 42.5t-47 65.5t-16.5 85q0 58 21 112t59 95.5t92.5 66
t120.5 24.5q54 0 102.5 -19.5t74.5 -61.5zM392 564h-131l-88 144h109l53 -91l86 91h111z" />
    <glyph glyph-name="Dcaron" unicode="&#x10e;" horiz-adv-x="757" 
d="M150 708h242q60 0 119 -16.5t106 -52t76 -92t29 -135.5q0 -93 -32.5 -169t-90.5 -130t-137 -83.5t-172 -29.5h-265zM166 108h129q74 0 130 24t93.5 64.5t56.5 92t19 107.5q0 42 -14 80t-42.5 66t-72 44.5t-103.5 16.5h-109zM477 764h-131l-88 144h109l53 -91l86 91h111z
" />
    <glyph glyph-name="dcaron" unicode="&#x10f;" horiz-adv-x="634" 
d="M521 756h118l-134 -756h-111l12 76h-3q-29 -42 -74 -65t-99 -23q-46 0 -83.5 15t-64 42.5t-41 65.5t-14.5 84q0 62 19.5 116t54.5 94.5t83.5 64t106.5 23.5q66 0 106.5 -24t61.5 -66h2zM147 209q0 -53 30.5 -89t87.5 -36q35 0 66 15t53.5 41t35.5 60.5t13 72.5
q0 55 -33 90t-89 35q-37 0 -67.5 -15t-52 -40.5t-33 -60t-11.5 -73.5zM722 513h-98l107 195h114z" />
    <glyph glyph-name="Dcroat" unicode="&#x110;" horiz-adv-x="757" 
d="M18 325l15 83h64l53 300h242q60 0 119 -16.5t106 -52t76 -92t29 -135.5q0 -93 -32.5 -169t-90.5 -130t-137 -83.5t-172 -29.5h-265l57 325h-64zM429 408l-15 -83h-210l-38 -217h129q74 0 130 24t93.5 64.5t56.5 92t19 107.5q0 42 -14 80t-42.5 66t-72 44.5t-103.5 16.5
h-109l-34 -195h210z" />
    <glyph glyph-name="dcroat" unicode="&#x111;" horiz-adv-x="634" 
d="M671 570h-65l-101 -570h-111l12 76h-3q-29 -42 -74 -65t-99 -23q-46 0 -83.5 15t-64 42.5t-41 65.5t-14.5 84q0 62 19.5 116t54.5 94.5t83.5 64t106.5 23.5q66 0 106.5 -24t61.5 -66h2l28 167h-162l14 75h161l19 111h118l-20 -111h66zM147 209q0 -53 30.5 -89t87.5 -36
q35 0 66 15t53.5 41t35.5 60.5t13 72.5q0 55 -33 90t-89 35q-37 0 -67.5 -15t-52 -40.5t-33 -60t-11.5 -73.5z" />
    <glyph glyph-name="Emacron" unicode="&#x112;" 
d="M25 0l125 708h446l-19 -108h-326l-32 -183h311l-19 -104h-310l-36 -203h354l-19 -110h-475zM222 795l13 77h318l-14 -77h-317z" />
    <glyph glyph-name="emacron" unicode="&#x113;" horiz-adv-x="564" 
d="M140 203q-1 -5 -1 -11q0 -24 9.5 -44t26.5 -34.5t40 -23t50 -8.5q46 0 78.5 17t58.5 46l67 -63q-89 -96 -217 -96q-49 0 -90 14.5t-71 41.5t-47 66.5t-17 90.5q0 62 21 115.5t58.5 93.5t89 62.5t112.5 22.5q43 0 79.5 -12t63.5 -36t42 -60t15 -84q0 -16 -3 -44.5
t-9 -53.5h-356zM400 287q1 7 1.5 13t0.5 12q0 39 -27.5 66t-77.5 27q-31 0 -56 -11t-43.5 -28.5t-30.5 -38.5t-16 -40h249zM176 595l13 77h318l-14 -77h-317z" />
    <glyph glyph-name="Ebreve" unicode="&#x114;" 
d="M25 0l125 708h446l-19 -108h-326l-32 -183h311l-19 -104h-310l-36 -203h354l-19 -110h-475zM563 908q-18 -73 -67 -108t-120 -35t-111 34t-40 109h66q0 -38 27 -52.5t65 -14.5q42 0 71.5 12.5t43.5 54.5h65z" />
    <glyph glyph-name="ebreve" unicode="&#x115;" horiz-adv-x="564" 
d="M140 203q-1 -5 -1 -11q0 -24 9.5 -44t26.5 -34.5t40 -23t50 -8.5q46 0 78.5 17t58.5 46l67 -63q-89 -96 -217 -96q-49 0 -90 14.5t-71 41.5t-47 66.5t-17 90.5q0 62 21 115.5t58.5 93.5t89 62.5t112.5 22.5q43 0 79.5 -12t63.5 -36t42 -60t15 -84q0 -16 -3 -44.5
t-9 -53.5h-356zM400 287q1 7 1.5 13t0.5 12q0 39 -27.5 66t-77.5 27q-31 0 -56 -11t-43.5 -28.5t-30.5 -38.5t-16 -40h249zM520 708q-18 -73 -67 -108t-120 -35t-111 34t-40 109h66q0 -38 27 -52.5t65 -14.5q42 0 71.5 12.5t43.5 54.5h65z" />
    <glyph glyph-name="Edotaccent" unicode="&#x116;" 
d="M25 0l125 708h446l-19 -108h-326l-32 -183h311l-19 -104h-310l-36 -203h354l-19 -110h-475zM468 845q0 -29 -20.5 -51t-50.5 -22q-29 0 -49.5 18t-20.5 51q0 32 22 52.5t51 20.5t48.5 -18.5t19.5 -50.5z" />
    <glyph glyph-name="edotaccent" unicode="&#x117;" horiz-adv-x="564" 
d="M140 203q-1 -5 -1 -11q0 -24 9.5 -44t26.5 -34.5t40 -23t50 -8.5q46 0 78.5 17t58.5 46l67 -63q-89 -96 -217 -96q-49 0 -90 14.5t-71 41.5t-47 66.5t-17 90.5q0 62 21 115.5t58.5 93.5t89 62.5t112.5 22.5q43 0 79.5 -12t63.5 -36t42 -60t15 -84q0 -16 -3 -44.5
t-9 -53.5h-356zM400 287q1 7 1.5 13t0.5 12q0 39 -27.5 66t-77.5 27q-31 0 -56 -11t-43.5 -28.5t-30.5 -38.5t-16 -40h249zM412 645q0 -29 -20.5 -51t-50.5 -22q-29 0 -49.5 18t-20.5 51q0 32 22 52.5t51 20.5t48.5 -18.5t19.5 -50.5z" />
    <glyph glyph-name="Eogonek" unicode="&#x118;" 
d="M483 -195q-24 -17 -50 -27.5t-56 -10.5q-40 0 -63.5 19.5t-23.5 60.5q0 22 10.5 43t27.5 40.5t38 37t41 32.5h-382l125 708h446l-19 -108h-326l-32 -183h311l-19 -104h-310l-36 -203h354l-19 -110h-31q-17 -14 -34.5 -30t-31.5 -33t-23 -34.5t-9 -35.5q0 -35 40 -35
q15 0 29.5 6t26.5 15l16 -48v0z" />
    <glyph glyph-name="eogonek" unicode="&#x119;" horiz-adv-x="564" 
d="M336 -195q-24 -17 -50 -27.5t-56 -10.5q-40 0 -63.5 19.5t-23.5 60.5q0 19 8.5 38t22 37t31.5 34t36 30q-47 1 -86 16t-67.5 42.5t-44.5 66t-16 88.5q0 62 21 115.5t58.5 93.5t89 62.5t112.5 22.5q43 0 79.5 -12t63.5 -36t42 -60t15 -84q0 -16 -3 -44.5t-9 -53.5h-356
q-1 -5 -1 -11q0 -24 9.5 -44t26.5 -34.5t40 -23t50 -8.5q46 0 78.5 17t58.5 46l67 -63q-68 -74 -158 -90q-16 -14 -31.5 -29t-28 -31t-20 -32.5t-7.5 -32.5q0 -35 40 -35q15 0 29.5 6t26.5 15zM400 287q1 7 1.5 13t0.5 12q0 39 -27.5 66t-77.5 27q-31 0 -56 -11t-43.5 -28.5
t-30.5 -38.5t-16 -40h249z" />
    <glyph glyph-name="Ecaron" unicode="&#x11a;" 
d="M25 0l125 708h446l-19 -108h-326l-32 -183h311l-19 -104h-310l-36 -203h354l-19 -110h-475zM443 764h-131l-88 144h109l53 -91l86 91h111z" />
    <glyph glyph-name="ecaron" unicode="&#x11b;" horiz-adv-x="564" 
d="M140 203q-1 -5 -1 -11q0 -24 9.5 -44t26.5 -34.5t40 -23t50 -8.5q46 0 78.5 17t58.5 46l67 -63q-89 -96 -217 -96q-49 0 -90 14.5t-71 41.5t-47 66.5t-17 90.5q0 62 21 115.5t58.5 93.5t89 62.5t112.5 22.5q43 0 79.5 -12t63.5 -36t42 -60t15 -84q0 -16 -3 -44.5
t-9 -53.5h-356zM400 287q1 7 1.5 13t0.5 12q0 39 -27.5 66t-77.5 27q-31 0 -56 -11t-43.5 -28.5t-30.5 -38.5t-16 -40h249zM391 564h-131l-88 144h109l53 -91l86 91h111z" />
    <glyph glyph-name="Gcircumflex" unicode="&#x11c;" horiz-adv-x="740" 
d="M393 90q39 1 69.5 7t59.5 20l31 180h-152l20 107h271l-63 -366q-53 -26 -119.5 -41t-134.5 -15q-74 0 -134.5 22t-103 62t-66 96t-23.5 124q0 92 32 172t88.5 139.5t132.5 94t164 34.5q78 0 144.5 -26.5t106.5 -81.5l-97 -73q-23 32 -61.5 53.5t-96.5 21.5
q-63 0 -115.5 -27t-90 -72t-58.5 -102t-21 -117q0 -46 14.5 -85t42.5 -67t68.5 -44t91.5 -16zM550 764l-54 91l-86 -91h-112l140 144h132l88 -144h-108z" />
    <glyph glyph-name="gcircumflex" unicode="&#x11d;" horiz-adv-x="632" 
d="M466 407l12 73h112l-76 -439q-11 -63 -32 -115t-56 -89t-87 -57t-125 -20q-30 0 -62 5.5t-63 16.5t-58.5 27t-47.5 37l78 85q28 -33 69 -51t87 -18q44 0 74.5 12.5t51.5 34.5t33 52.5t20 66.5l8 38h-2q-26 -34 -68.5 -54.5t-96.5 -20.5q-46 0 -83.5 15t-64 42t-41 65
t-14.5 84q0 61 19.5 115t54.5 94.5t83.5 63.5t106.5 23q66 0 106 -24t59 -62h3zM154 211q0 -53 30.5 -89t87.5 -36q35 0 66 15t53.5 41t35.5 60t13 72q0 55 -33 90t-89 35q-37 0 -67.5 -15t-52 -40.5t-33 -59.5t-11.5 -73zM439 564l-54 91l-86 -91h-112l140 144h132l88 -144
h-108z" />
    <glyph glyph-name="Gbreve" unicode="&#x11e;" horiz-adv-x="740" 
d="M393 90q39 1 69.5 7t59.5 20l31 180h-152l20 107h271l-63 -366q-53 -26 -119.5 -41t-134.5 -15q-74 0 -134.5 22t-103 62t-66 96t-23.5 124q0 92 32 172t88.5 139.5t132.5 94t164 34.5q78 0 144.5 -26.5t106.5 -81.5l-97 -73q-23 32 -61.5 53.5t-96.5 21.5
q-63 0 -115.5 -27t-90 -72t-58.5 -102t-21 -117q0 -46 14.5 -85t42.5 -67t68.5 -44t91.5 -16zM671 908q-18 -73 -67 -108t-120 -35t-111 34t-40 109h66q0 -38 27 -52.5t65 -14.5q42 0 71.5 12.5t43.5 54.5h65z" />
    <glyph glyph-name="gbreve" unicode="&#x11f;" horiz-adv-x="632" 
d="M466 407l12 73h112l-76 -439q-11 -63 -32 -115t-56 -89t-87 -57t-125 -20q-30 0 -62 5.5t-63 16.5t-58.5 27t-47.5 37l78 85q28 -33 69 -51t87 -18q44 0 74.5 12.5t51.5 34.5t33 52.5t20 66.5l8 38h-2q-26 -34 -68.5 -54.5t-96.5 -20.5q-46 0 -83.5 15t-64 42t-41 65
t-14.5 84q0 61 19.5 115t54.5 94.5t83.5 63.5t106.5 23q66 0 106 -24t59 -62h3zM154 211q0 -53 30.5 -89t87.5 -36q35 0 66 15t53.5 41t35.5 60t13 72q0 55 -33 90t-89 35q-37 0 -67.5 -15t-52 -40.5t-33 -59.5t-11.5 -73zM547 708q-18 -73 -67 -108t-120 -35t-111 34
t-40 109h66q0 -38 27 -52.5t65 -14.5q42 0 71.5 12.5t43.5 54.5h65z" />
    <glyph glyph-name="Gdotaccent" unicode="&#x120;" horiz-adv-x="740" 
d="M393 90q39 1 69.5 7t59.5 20l31 180h-152l20 107h271l-63 -366q-53 -26 -119.5 -41t-134.5 -15q-74 0 -134.5 22t-103 62t-66 96t-23.5 124q0 92 32 172t88.5 139.5t132.5 94t164 34.5q78 0 144.5 -26.5t106.5 -81.5l-97 -73q-23 32 -61.5 53.5t-96.5 21.5
q-63 0 -115.5 -27t-90 -72t-58.5 -102t-21 -117q0 -46 14.5 -85t42.5 -67t68.5 -44t91.5 -16zM557 845q0 -29 -20.5 -51t-50.5 -22q-29 0 -49.5 18t-20.5 51q0 32 22 52.5t51 20.5t48.5 -18.5t19.5 -50.5z" />
    <glyph glyph-name="gdotaccent" unicode="&#x121;" horiz-adv-x="632" 
d="M466 407l12 73h112l-76 -439q-11 -63 -32 -115t-56 -89t-87 -57t-125 -20q-30 0 -62 5.5t-63 16.5t-58.5 27t-47.5 37l78 85q28 -33 69 -51t87 -18q44 0 74.5 12.5t51.5 34.5t33 52.5t20 66.5l8 38h-2q-26 -34 -68.5 -54.5t-96.5 -20.5q-46 0 -83.5 15t-64 42t-41 65
t-14.5 84q0 61 19.5 115t54.5 94.5t83.5 63.5t106.5 23q66 0 106 -24t59 -62h3zM154 211q0 -53 30.5 -89t87.5 -36q35 0 66 15t53.5 41t35.5 60t13 72q0 55 -33 90t-89 35q-37 0 -67.5 -15t-52 -40.5t-33 -59.5t-11.5 -73zM447 645q0 -29 -20.5 -51t-50.5 -22
q-29 0 -49.5 18t-20.5 51q0 32 22 52.5t51 20.5t48.5 -18.5t19.5 -50.5z" />
    <glyph glyph-name="Gcommaaccent" unicode="&#x122;" horiz-adv-x="740" 
d="M393 90q39 1 69.5 7t59.5 20l31 180h-152l20 107h271l-63 -366q-53 -26 -119.5 -41t-134.5 -15q-74 0 -134.5 22t-103 62t-66 96t-23.5 124q0 92 32 172t88.5 139.5t132.5 94t164 34.5q78 0 144.5 -26.5t106.5 -81.5l-97 -73q-23 32 -61.5 53.5t-96.5 21.5
q-63 0 -115.5 -27t-90 -72t-58.5 -102t-21 -117q0 -46 14.5 -85t42.5 -67t68.5 -44t91.5 -16zM282 -240h-98l107 195h114z" />
    <glyph glyph-name="gcommaaccent" unicode="&#x123;" horiz-adv-x="632" 
d="M466 407l12 73h112l-76 -439q-11 -63 -32 -115t-56 -89t-87 -57t-125 -20q-30 0 -62 5.5t-63 16.5t-58.5 27t-47.5 37l78 85q28 -33 69 -51t87 -18q44 0 74.5 12.5t51.5 34.5t33 52.5t20 66.5l8 38h-2q-26 -34 -68.5 -54.5t-96.5 -20.5q-46 0 -83.5 15t-64 42t-41 65
t-14.5 84q0 61 19.5 115t54.5 94.5t83.5 63.5t106.5 23q66 0 106 -24t59 -62h3zM154 211q0 -53 30.5 -89t87.5 -36q35 0 66 15t53.5 41t35.5 60t13 72q0 55 -33 90t-89 35q-37 0 -67.5 -15t-52 -40.5t-33 -59.5t-11.5 -73zM394 759h98l-107 -195h-114z" />
    <glyph glyph-name="Hcircumflex" unicode="&#x124;" horiz-adv-x="729" 
d="M473 0l55 315h-324l-56 -315h-123l125 708h123l-51 -287h325l51 287h123l-125 -708h-123zM511 764l-54 91l-86 -91h-112l140 144h132l88 -144h-108z" />
    <glyph glyph-name="hcircumflex" unicode="&#x125;" 
d="M344 0l46 264q2 12 3.5 24t1.5 24q0 32 -17 56.5t-62 24.5q-29 0 -51.5 -11t-39 -29.5t-27 -42.5t-14.5 -49l-46 -261h-117l133 756h118l-61 -344h2q20 32 57 56.5t91 24.5q40 0 69.5 -12t49 -32t29 -47.5t9.5 -57.5q0 -25 -4 -45l-53 -299h-117zM456 796l-54 91l-86 -91
h-112l140 144h132l88 -144h-108z" />
    <glyph glyph-name="Hbar" unicode="&#x126;" horiz-adv-x="729" 
d="M473 0l55 315h-324l-56 -315h-123l125 708h123l-24 -133h325l24 133h123l-125 -708h-123zM547 421l14 79h-325l-14 -79h325z" />
    <glyph glyph-name="hbar" unicode="&#x127;" 
d="M391 570h-152l-28 -158h2q20 32 57 56.5t91 24.5q40 0 69.5 -12t49 -32t29 -47.5t9.5 -57.5q0 -25 -4 -45l-53 -299h-117l46 264q2 12 3.5 24t1.5 24q0 32 -17 56.5t-62 24.5q-29 0 -51.5 -11t-39 -29.5t-27 -42.5t-14.5 -49l-46 -261h-117l100 570h-74l14 75h73l20 111
h118l-20 -111h153z" />
    <glyph glyph-name="Itilde" unicode="&#x128;" horiz-adv-x="291" 
d="M25 0l125 708h123l-125 -708h-123zM34 768q8 24 19.5 46.5t28 40t38 28t49.5 10.5q20 0 39 -5t36 -13t32.5 -13.5t29.5 -5.5q20 0 32.5 13.5t20.5 30.5h66q-8 -24 -19.5 -46.5t-27.5 -40t-37.5 -28t-49.5 -10.5q-19 0 -36 4.5t-33 12.5q-19 9 -36 15t-32 6q-20 0 -33 -14
t-21 -31h-66z" />
    <glyph glyph-name="itilde" unicode="&#x129;" horiz-adv-x="267" 
d="M21 0l84 480h118l-85 -480h-117zM-11 568q8 24 19.5 46.5t28 40t38 28t49.5 10.5q20 0 39 -5t36 -13t32.5 -13.5t29.5 -5.5q20 0 32.5 13.5t20.5 30.5h66q-8 -24 -19.5 -46.5t-27.5 -40t-37.5 -28t-49.5 -10.5q-19 0 -36 4.5t-33 12.5q-19 9 -36 15t-32 6q-20 0 -33 -14
t-21 -31h-66z" />
    <glyph glyph-name="Imacron" unicode="&#x12a;" horiz-adv-x="291" 
d="M25 0l125 708h123l-125 -708h-123zM64 795l13 77h318l-14 -77h-317z" />
    <glyph glyph-name="imacron" unicode="&#x12b;" horiz-adv-x="267" 
d="M21 0l84 480h118l-85 -480h-117zM20 595l13 77h318l-14 -77h-317z" />
    <glyph glyph-name="Ibreve" unicode="&#x12c;" horiz-adv-x="290" 
d="M151 0h-123l125 708h123zM404 921q-14 -69 -62.5 -103.5t-113.5 -34.5q-66 0 -106 32.5t-40 105.5h65q0 -19 7 -31.5t18.5 -20t26.5 -11t32 -3.5q38 0 69 14.5t40 51.5h64z" />
    <glyph glyph-name="ibreve" unicode="&#x12d;" horiz-adv-x="274" 
d="M140 0h-117l85 484h118zM353 698q-14 -69 -63 -104t-113 -35q-66 0 -106 32.5t-40 106.5h65q0 -38 25.5 -52.5t58.5 -14.5q19 0 36.5 3.5t32 11.5t25 20.5t15.5 31.5h64z" />
    <glyph glyph-name="Iogonek" unicode="&#x12e;" horiz-adv-x="281" 
d="M153 -195q-24 -17 -50 -27.5t-56 -10.5q-40 0 -63.5 19.5t-23.5 60.5q0 22 10.5 43t27.5 40.5t38 37t41 32.5h-52l125 708h123l-125 -708h-9q-17 -14 -34.5 -30t-31.5 -33t-23 -34.5t-9 -35.5q0 -35 40 -35q15 0 29.5 6t26.5 15l16 -48v0z" />
    <glyph glyph-name="iogonek" unicode="&#x12f;" horiz-adv-x="267" 
d="M144 -195q-24 -17 -50 -27.5t-56 -10.5q-40 0 -63.5 19.5t-23.5 60.5q0 22 10.5 43t27.5 40.5t38 37t41 32.5h-47l84 480h118l-85 -480h-8q-17 -14 -34.5 -30t-31.5 -33t-23 -34.5t-9 -35.5q0 -35 40 -35q15 0 29.5 6t26.5 15zM262 645q0 -29 -20.5 -51t-50.5 -22
q-29 0 -49.5 18t-20.5 51q0 32 22 52.5t51 20.5t48.5 -18.5t19.5 -50.5z" />
    <glyph glyph-name="Idotaccent" unicode="&#x130;" horiz-adv-x="291" 
d="M25 0l125 708h123l-125 -708h-123zM300 845q0 -29 -20.5 -51t-50.5 -22q-29 0 -49.5 18t-20.5 51q0 32 22 52.5t51 20.5t48.5 -18.5t19.5 -50.5z" />
    <glyph glyph-name="dotlessi" unicode="&#x131;" horiz-adv-x="267" 
d="M21 0l84 480h118l-85 -480h-117z" />
    <glyph glyph-name="Jcircumflex" unicode="&#x134;" horiz-adv-x="500" 
d="M411 228q-7 -41 -20.5 -84.5t-40 -79.5t-69 -59t-107.5 -23q-85 0 -137 43t-61 112l115 33q4 -33 25 -56t55 -23q29 0 49 10.5t33.5 29.5t21.5 45t13 56l84 476h124zM512 764l-54 91l-86 -91h-112l140 144h132l88 -144h-108z" />
    <glyph glyph-name="jcircumflex" unicode="&#x135;" horiz-adv-x="267" 
d="M133 -32q-8 -42 -20.5 -80t-35 -66.5t-58 -45t-88.5 -16.5q-15 0 -29.5 2t-23.5 4l23 100q8 -2 16.5 -3t15.5 -1q21 0 35 8t23 22t14 32.5t9 39.5l91 516h118zM247 564l-54 91l-86 -91h-112l140 144h132l88 -144h-108z" />
    <glyph glyph-name="Kcommaaccent" unicode="&#x136;" horiz-adv-x="646" 
d="M451 0l-239 356h-3l-62 -356h-122l125 708h122l-56 -314h3l319 314h166l-367 -334l275 -374h-161zM223 -240h-98l107 195h114z" />
    <glyph glyph-name="kcommaaccent" unicode="&#x137;" horiz-adv-x="521" 
d="M336 0l-151 246h-3l-44 -246h-117l133 756h118l-85 -479h3l217 203h154l-255 -223l175 -257h-145zM156 -240h-98l107 195h114z" />
    <glyph glyph-name="Lacute" unicode="&#x139;" horiz-adv-x="511" 
d="M25 0l125 708h123l-106 -598h303l-19 -110h-426zM261 764h-93l125 144h133z" />
    <glyph glyph-name="lacute" unicode="&#x13a;" horiz-adv-x="267" 
d="M21 0l133 756h118l-134 -756h-117zM252 792h-93l125 144h133z" />
    <glyph glyph-name="Lcommaaccent" unicode="&#x13b;" horiz-adv-x="511" 
d="M25 0l125 708h123l-106 -598h303l-19 -110h-426zM166 -240h-98l107 195h114z" />
    <glyph glyph-name="lcommaaccent" unicode="&#x13c;" horiz-adv-x="267" 
d="M21 0l133 756h118l-134 -756h-117zM14 -240h-98l107 195h114z" />
    <glyph glyph-name="Lcaron" unicode="&#x13d;" horiz-adv-x="511" 
d="M25 0l125 708h123l-106 -598h303l-19 -110h-426zM401 513h-98l107 195h114z" />
    <glyph glyph-name="lcaron" unicode="&#x13e;" horiz-adv-x="267" 
d="M21 0l133 756h118l-134 -756h-117zM360 513h-98l107 195h114z" />
    <glyph glyph-name="Ldot" unicode="&#x13f;" horiz-adv-x="511" 
d="M25 0l125 708h123l-106 -598h303l-19 -110h-426zM471 347q0 -29 -20.5 -51t-50.5 -22q-29 0 -49.5 18t-20.5 51q0 32 22 52.5t51 20.5t48.5 -18.5t19.5 -50.5z" />
    <glyph glyph-name="ldot" unicode="&#x140;" horiz-adv-x="391" 
d="M21 0l133 756h118l-134 -756h-117zM405 345q0 -29 -20.5 -51t-50.5 -22q-29 0 -49.5 18t-20.5 51q0 32 22 52.5t51 20.5t48.5 -18.5t19.5 -50.5z" />
    <glyph glyph-name="Lslash" unicode="&#x141;" horiz-adv-x="518" 
d="M25 0l36 203l-82 -62l19 108l82 62l70 397h123l-53 -302l238 181l-19 -107l-238 -182l-34 -188h303l-19 -110h-426z" />
    <glyph glyph-name="lslash" unicode="&#x142;" horiz-adv-x="267" 
d="M208 395l-70 -395h-117l53 300l-82 -70l19 107l82 70l61 349h118l-46 -257l82 70l-19 -106z" />
    <glyph glyph-name="Nacute" unicode="&#x143;" horiz-adv-x="788" 
d="M479 0l-232 550h-2l-97 -550h-123l125 708h160l228 -533h2l94 533h123l-125 -708h-153zM478 764h-93l125 144h133z" />
    <glyph glyph-name="nacute" unicode="&#x144;" 
d="M205 405q25 39 63.5 63.5t92.5 24.5q40 0 69.5 -12t49 -32t29 -47.5t9.5 -57.5q0 -25 -4 -45l-53 -299h-117l46 264q2 12 3.5 24t1.5 24q0 32 -17 56.5t-62 24.5q-29 0 -51 -11t-38.5 -29.5t-27 -41.5t-14.5 -47l-47 -264h-117l66 377q4 19 8.5 49t6.5 54h110
q-1 -11 -4 -34.5t-5 -40.5h2zM346 564h-93l125 144h133z" />
    <glyph glyph-name="Ncommaaccent" unicode="&#x145;" horiz-adv-x="788" 
d="M479 0l-232 550h-2l-97 -550h-123l125 708h160l228 -533h2l94 533h123l-125 -708h-153zM257 -240h-98l107 195h114z" />
    <glyph glyph-name="ncommaaccent" unicode="&#x146;" 
d="M205 405q25 39 63.5 63.5t92.5 24.5q40 0 69.5 -12t49 -32t29 -47.5t9.5 -57.5q0 -25 -4 -45l-53 -299h-117l46 264q2 12 3.5 24t1.5 24q0 32 -17 56.5t-62 24.5q-29 0 -51 -11t-38.5 -29.5t-27 -41.5t-14.5 -47l-47 -264h-117l66 377q4 19 8.5 49t6.5 54h110
q-1 -11 -4 -34.5t-5 -40.5h2zM173 -240h-98l107 195h114z" />
    <glyph glyph-name="Ncaron" unicode="&#x147;" horiz-adv-x="788" 
d="M479 0l-232 550h-2l-97 -550h-123l125 708h160l228 -533h2l94 533h123l-125 -708h-153zM520 764h-131l-88 144h109l53 -91l86 91h111z" />
    <glyph glyph-name="ncaron" unicode="&#x148;" 
d="M205 405q25 39 63.5 63.5t92.5 24.5q40 0 69.5 -12t49 -32t29 -47.5t9.5 -57.5q0 -25 -4 -45l-53 -299h-117l46 264q2 12 3.5 24t1.5 24q0 32 -17 56.5t-62 24.5q-29 0 -51 -11t-38.5 -29.5t-27 -41.5t-14.5 -47l-47 -264h-117l66 377q4 19 8.5 49t6.5 54h110
q-1 -11 -4 -34.5t-5 -40.5h2zM395 564h-131l-88 144h109l53 -91l86 91h111z" />
    <glyph glyph-name="Omacron" unicode="&#x14c;" horiz-adv-x="829" 
d="M459 726q76 0 137.5 -21.5t105.5 -61t68 -96.5t24 -128q0 -90 -30.5 -170t-84.5 -139t-128 -93.5t-162 -34.5q-78 0 -141 21t-107.5 61t-68.5 97t-24 128q0 90 31.5 170t86.5 139t130 93.5t163 34.5zM389 90q67 0 118.5 27t87 72t54 102t18.5 117q0 43 -14 82t-41 67.5
t-67 45.5t-92 17q-64 0 -115.5 -27t-87.5 -72t-55.5 -102t-19.5 -117q0 -44 14 -82.5t41 -67t67 -45.5t92 -17zM335 795l13 77h318l-14 -77h-317z" />
    <glyph glyph-name="omacron" unicode="&#x14d;" horiz-adv-x="604" 
d="M259 -13q-50 0 -92.5 15t-73.5 43t-48.5 66t-17.5 85q0 59 20.5 112.5t58.5 94.5t91.5 65.5t119.5 24.5q51 0 93.5 -15t73.5 -42.5t48.5 -66t17.5 -84.5q0 -60 -20.5 -114t-58.5 -95t-92 -65t-120 -24zM432 273q0 54 -33 89t-90 35q-38 0 -68.5 -15.5t-52 -41.5
t-33.5 -60t-12 -72q0 -54 32 -89t90 -35q38 0 69 15t52.5 41t33.5 60.5t12 72.5zM191 595l13 77h318l-14 -77h-317z" />
    <glyph glyph-name="Obreve" unicode="&#x14e;" horiz-adv-x="829" 
d="M459 726q76 0 137.5 -21.5t105.5 -61t68 -96.5t24 -128q0 -90 -30.5 -170t-84.5 -139t-128 -93.5t-162 -34.5q-78 0 -141 21t-107.5 61t-68.5 97t-24 128q0 90 31.5 170t86.5 139t130 93.5t163 34.5zM389 90q67 0 118.5 27t87 72t54 102t18.5 117q0 43 -14 82t-41 67.5
t-67 45.5t-92 17q-64 0 -115.5 -27t-87.5 -72t-55.5 -102t-19.5 -117q0 -44 14 -82.5t41 -67t67 -45.5t92 -17zM670 908q-18 -73 -67 -108t-120 -35t-111 34t-40 109h66q0 -38 27 -52.5t65 -14.5q42 0 71.5 12.5t43.5 54.5h65z" />
    <glyph glyph-name="obreve" unicode="&#x14f;" horiz-adv-x="604" 
d="M259 -13q-50 0 -92.5 15t-73.5 43t-48.5 66t-17.5 85q0 59 20.5 112.5t58.5 94.5t91.5 65.5t119.5 24.5q51 0 93.5 -15t73.5 -42.5t48.5 -66t17.5 -84.5q0 -60 -20.5 -114t-58.5 -95t-92 -65t-120 -24zM432 273q0 54 -33 89t-90 35q-38 0 -68.5 -15.5t-52 -41.5
t-33.5 -60t-12 -72q0 -54 32 -89t90 -35q38 0 69 15t52.5 41t33.5 60.5t12 72.5zM530 708q-18 -73 -67 -108t-120 -35t-111 34t-40 109h66q0 -38 27 -52.5t65 -14.5q42 0 71.5 12.5t43.5 54.5h65z" />
    <glyph glyph-name="Ohungarumlaut" unicode="&#x150;" horiz-adv-x="829" 
d="M459 726q76 0 137.5 -21.5t105.5 -61t68 -96.5t24 -128q0 -90 -30.5 -170t-84.5 -139t-128 -93.5t-162 -34.5q-78 0 -141 21t-107.5 61t-68.5 97t-24 128q0 90 31.5 170t86.5 139t130 93.5t163 34.5zM389 90q67 0 118.5 27t87 72t54 102t18.5 117q0 43 -14 82t-41 67.5
t-67 45.5t-92 17q-64 0 -115.5 -27t-87.5 -72t-55.5 -102t-19.5 -117q0 -44 14 -82.5t41 -67t67 -45.5t92 -17zM632 764h-93l125 144h134zM427 764h-92l124 144h134z" />
    <glyph glyph-name="ohungarumlaut" unicode="&#x151;" horiz-adv-x="604" 
d="M259 -13q-50 0 -92.5 15t-73.5 43t-48.5 66t-17.5 85q0 59 20.5 112.5t58.5 94.5t91.5 65.5t119.5 24.5q51 0 93.5 -15t73.5 -42.5t48.5 -66t17.5 -84.5q0 -60 -20.5 -114t-58.5 -95t-92 -65t-120 -24zM432 273q0 54 -33 89t-90 35q-38 0 -68.5 -15.5t-52 -41.5
t-33.5 -60t-12 -72q0 -54 32 -89t90 -35q38 0 69 15t52.5 41t33.5 60.5t12 72.5zM486 564h-93l125 144h134zM281 564h-92l124 144h134z" />
    <glyph glyph-name="OE" unicode="&#x152;" horiz-adv-x="1006" 
d="M554 603h-79q-74 0 -130 -24t-93.5 -64.5t-56.5 -92.5t-19 -107q0 -42 13.5 -80t42 -66t72.5 -44.5t104 -16.5h59zM1018 708l-19 -108h-326l-32 -183h311l-19 -104h-310l-36 -203h354l-19 -110h-544q-60 0 -119 16.5t-106 52t-76 91.5t-29 136q0 93 32.5 169t90.5 130
t137 83.5t172 29.5h538z" />
    <glyph glyph-name="oe" unicode="&#x153;" horiz-adv-x="959" 
d="M457 78q-32 -44 -82.5 -67.5t-119.5 -23.5q-50 0 -92 15t-72 43t-47 66t-17 85q0 60 21.5 114t60.5 94.5t93 64.5t119 24q69 0 113 -23.5t68 -71.5q35 45 87 70t114 25q43 0 79.5 -12t63.5 -36t42 -60t15 -84q0 -16 -3 -44.5t-9 -53.5h-356q-1 -5 -1 -11q0 -24 9.5 -44
t26.5 -34.5t40 -23t50 -8.5q46 0 78.5 17t58.5 46l67 -63q-89 -96 -217 -96q-65 0 -114.5 23t-75.5 69zM795 287q1 7 1.5 13t0.5 12q0 39 -27.5 66t-77.5 27q-31 0 -56 -11t-43.5 -28.5t-30.5 -38.5t-16 -40h249zM432 273q0 54 -33 89t-90 35q-36 0 -66.5 -15.5t-52.5 -41.5
t-34.5 -60t-12.5 -72q0 -54 32 -89t90 -35q36 0 67 15t53 41t34.5 60.5t12.5 72.5z" />
    <glyph glyph-name="Racute" unicode="&#x154;" horiz-adv-x="624" 
d="M565 0h-139l-134 302h-94l-52 -302h-121l125 708h210q117 0 180.5 -48.5t63.5 -134.5q0 -85 -50.5 -137.5t-135.5 -71.5zM308 403q81 0 125 26t44 83q0 52 -37 72t-99 20h-89l-36 -201h92zM387 764h-93l125 144h133z" />
    <glyph glyph-name="racute" unicode="&#x155;" horiz-adv-x="339" 
d="M203 400q25 42 59 67.5t82 25.5q7 0 15 -0.5t14 -2.5l-16 -109q-11 3 -19.5 4t-16.5 1q-41 0 -67 -15t-42 -36t-23 -43t-9 -35l-45 -257h-117l67 377q4 19 8.5 49t6.5 54h110q0 -5 -1 -15t-2.5 -22t-3 -23.5t-2.5 -19.5h2zM241 564h-93l125 144h133z" />
    <glyph glyph-name="Rcommaaccent" unicode="&#x156;" horiz-adv-x="624" 
d="M565 0h-139l-134 302h-94l-52 -302h-121l125 708h210q117 0 180.5 -48.5t63.5 -134.5q0 -85 -50.5 -137.5t-135.5 -71.5zM308 403q81 0 125 26t44 83q0 52 -37 72t-99 20h-89l-36 -201h92zM201 -240h-98l107 195h114z" />
    <glyph glyph-name="rcommaaccent" unicode="&#x157;" horiz-adv-x="339" 
d="M203 400q25 42 59 67.5t82 25.5q7 0 15 -0.5t14 -2.5l-16 -109q-11 3 -19.5 4t-16.5 1q-41 0 -67 -15t-42 -36t-23 -43t-9 -35l-45 -257h-117l67 377q4 19 8.5 49t6.5 54h110q0 -5 -1 -15t-2.5 -22t-3 -23.5t-2.5 -19.5h2zM10 -240h-98l107 195h114z" />
    <glyph glyph-name="Rcaron" unicode="&#x158;" horiz-adv-x="624" 
d="M565 0h-139l-134 302h-94l-52 -302h-121l125 708h210q117 0 180.5 -48.5t63.5 -134.5q0 -85 -50.5 -137.5t-135.5 -71.5zM308 403q81 0 125 26t44 83q0 52 -37 72t-99 20h-89l-36 -201h92zM428 764h-131l-88 144h109l53 -91l86 91h111z" />
    <glyph glyph-name="rcaron" unicode="&#x159;" horiz-adv-x="339" 
d="M203 400q25 42 59 67.5t82 25.5q7 0 15 -0.5t14 -2.5l-16 -109q-11 3 -19.5 4t-16.5 1q-41 0 -67 -15t-42 -36t-23 -43t-9 -35l-45 -257h-117l67 377q4 19 8.5 49t6.5 54h110q0 -5 -1 -15t-2.5 -22t-3 -23.5t-2.5 -19.5h2zM305 564h-131l-88 144h109l53 -91l86 91h111z
" />
    <glyph glyph-name="Sacute" unicode="&#x15a;" horiz-adv-x="574" 
d="M471 562q-20 32 -52.5 47t-70.5 15q-19 0 -42 -6t-42.5 -18.5t-32.5 -33.5t-13 -51q0 -38 26.5 -59t71.5 -38q93 -34 143 -81.5t50 -128.5q0 -61 -24 -104t-63 -70t-88 -39.5t-99 -12.5q-35 0 -70.5 7t-67.5 21t-59.5 35.5t-46.5 51.5l100 69q20 -35 60.5 -57.5
t89.5 -22.5q25 0 49.5 6t44 19.5t32 35t12.5 53.5q0 24 -10.5 42.5t-28 32.5t-40.5 25t-49 20q-32 12 -60.5 27t-50.5 36.5t-34.5 51.5t-12.5 71q0 53 22.5 94t59.5 69t85.5 42.5t100.5 14.5q27 0 55.5 -6t55 -17.5t50 -28.5t39.5 -40zM389 764h-93l125 144h133z" />
    <glyph glyph-name="sacute" unicode="&#x15b;" horiz-adv-x="444" 
d="M67 138q15 -29 44.5 -44.5t65.5 -15.5q41 0 65.5 16t24.5 44q0 26 -19.5 38.5t-62.5 26.5q-34 11 -59.5 22.5t-42.5 27t-25.5 35.5t-8.5 47q0 35 16 64t44 50t66 32.5t83 11.5q56 0 101.5 -20.5t71.5 -62.5l-91 -54q-13 20 -34 33.5t-57 13.5q-15 0 -30.5 -3t-27.5 -9.5
t-19.5 -17.5t-7.5 -27q0 -23 19.5 -34t57.5 -22q67 -19 104 -51.5t37 -92.5q0 -40 -17 -70.5t-45.5 -51.5t-66 -31.5t-79.5 -10.5q-78 0 -125.5 27.5t-72.5 68.5zM298 564h-93l125 144h133z" />
    <glyph glyph-name="Scircumflex" unicode="&#x15c;" horiz-adv-x="574" 
d="M471 562q-20 32 -52.5 47t-70.5 15q-19 0 -42 -6t-42.5 -18.5t-32.5 -33.5t-13 -51q0 -38 26.5 -59t71.5 -38q93 -34 143 -81.5t50 -128.5q0 -61 -24 -104t-63 -70t-88 -39.5t-99 -12.5q-35 0 -70.5 7t-67.5 21t-59.5 35.5t-46.5 51.5l100 69q20 -35 60.5 -57.5
t89.5 -22.5q25 0 49.5 6t44 19.5t32 35t12.5 53.5q0 24 -10.5 42.5t-28 32.5t-40.5 25t-49 20q-32 12 -60.5 27t-50.5 36.5t-34.5 51.5t-12.5 71q0 53 22.5 94t59.5 69t85.5 42.5t100.5 14.5q27 0 55.5 -6t55 -17.5t50 -28.5t39.5 -40zM454 785l-54 91l-86 -91h-112l140 144
h132l88 -144h-108z" />
    <glyph glyph-name="scircumflex" unicode="&#x15d;" horiz-adv-x="444" 
d="M67 138q15 -29 44.5 -44.5t65.5 -15.5q41 0 65.5 16t24.5 44q0 26 -19.5 38.5t-62.5 26.5q-34 11 -59.5 22.5t-42.5 27t-25.5 35.5t-8.5 47q0 35 16 64t44 50t66 32.5t83 11.5q56 0 101.5 -20.5t71.5 -62.5l-91 -54q-13 20 -34 33.5t-57 13.5q-15 0 -30.5 -3t-27.5 -9.5
t-19.5 -17.5t-7.5 -27q0 -23 19.5 -34t57.5 -22q67 -19 104 -51.5t37 -92.5q0 -40 -17 -70.5t-45.5 -51.5t-66 -31.5t-79.5 -10.5q-78 0 -125.5 27.5t-72.5 68.5zM349 564l-54 91l-86 -91h-112l140 144h132l88 -144h-108z" />
    <glyph glyph-name="Scedilla" unicode="&#x15e;" horiz-adv-x="574" 
d="M337 -138q0 -29 -14 -48.5t-35.5 -31.5t-47 -17t-47.5 -5q-29 0 -59 7.5t-50 18.5l27 48q35 -20 78 -20q9 0 20.5 1.5t21 6t16.5 12.5t7 21q0 23 -15 29.5t-32 6.5q-8 0 -19 -1.5t-21 -4.5l-18 25l63 73q-65 4 -125.5 31.5t-95.5 82.5l100 69q20 -35 60.5 -57.5
t89.5 -22.5q25 0 49.5 6t44 19.5t32 35t12.5 53.5q0 24 -10.5 42.5t-28 32.5t-40.5 25t-49 20q-32 12 -60.5 27t-50.5 36.5t-34.5 51.5t-12.5 71q0 53 22.5 94t59.5 69t85.5 42.5t100.5 14.5q27 0 55.5 -6t55 -17.5t50 -28.5t39.5 -40l-90 -72q-20 32 -52.5 47t-70.5 15
q-19 0 -42 -6t-42.5 -18.5t-32.5 -33.5t-13 -51q0 -38 26.5 -59t71.5 -38q93 -34 143 -81.5t50 -128.5q0 -56 -20.5 -96.5t-54 -67.5t-76.5 -41.5t-89 -18.5l-42 -49q7 2 11.5 2h8.5q14 0 29.5 -3.5t29 -12.5t22.5 -23.5t9 -35.5z" />
    <glyph glyph-name="scedilla" unicode="&#x15f;" horiz-adv-x="444" 
d="M266 -138q0 -29 -14 -48.5t-35.5 -31.5t-47 -17t-47.5 -5q-29 0 -59 7.5t-50 18.5l27 48q35 -20 78 -20q9 0 20.5 1.5t21 6t16.5 12.5t7 21q0 23 -15 29.5t-32 6.5q-8 0 -19 -1.5t-21 -4.5l-18 25l63 74q-63 6 -103 32t-62 62l91 60q15 -29 44.5 -44.5t65.5 -15.5
q41 0 65.5 16t24.5 44q0 26 -19.5 38.5t-62.5 26.5q-34 11 -59.5 22.5t-42.5 27t-25.5 35.5t-8.5 47q0 35 16 64t44 50t66 32.5t83 11.5q56 0 101.5 -20.5t71.5 -62.5l-91 -54q-13 20 -34 33.5t-57 13.5q-15 0 -30.5 -3t-27.5 -9.5t-19.5 -17.5t-7.5 -27q0 -23 19.5 -34
t57.5 -22q67 -19 104 -51.5t37 -92.5q0 -37 -14.5 -66t-40 -49.5t-59 -32.5t-70.5 -15l-42 -48q7 2 11.5 2h8.5q14 0 29.5 -3.5t29 -12.5t22.5 -23.5t9 -35.5z" />
    <glyph glyph-name="Scaron" unicode="&#x160;" horiz-adv-x="574" 
d="M471 562q-20 32 -52.5 47t-70.5 15q-19 0 -42 -6t-42.5 -18.5t-32.5 -33.5t-13 -51q0 -38 26.5 -59t71.5 -38q93 -34 143 -81.5t50 -128.5q0 -61 -24 -104t-63 -70t-88 -39.5t-99 -12.5q-35 0 -70.5 7t-67.5 21t-59.5 35.5t-46.5 51.5l100 69q20 -35 60.5 -57.5
t89.5 -22.5q25 0 49.5 6t44 19.5t32 35t12.5 53.5q0 24 -10.5 42.5t-28 32.5t-40.5 25t-49 20q-32 12 -60.5 27t-50.5 36.5t-34.5 51.5t-12.5 71q0 53 22.5 94t59.5 69t85.5 42.5t100.5 14.5q27 0 55.5 -6t55 -17.5t50 -28.5t39.5 -40zM427 764h-131l-88 144h109l53 -91
l86 91h111z" />
    <glyph glyph-name="scaron" unicode="&#x161;" horiz-adv-x="444" 
d="M67 138q15 -29 44.5 -44.5t65.5 -15.5q41 0 65.5 16t24.5 44q0 26 -19.5 38.5t-62.5 26.5q-34 11 -59.5 22.5t-42.5 27t-25.5 35.5t-8.5 47q0 35 16 64t44 50t66 32.5t83 11.5q56 0 101.5 -20.5t71.5 -62.5l-91 -54q-13 20 -34 33.5t-57 13.5q-15 0 -30.5 -3t-27.5 -9.5
t-19.5 -17.5t-7.5 -27q0 -23 19.5 -34t57.5 -22q67 -19 104 -51.5t37 -92.5q0 -40 -17 -70.5t-45.5 -51.5t-66 -31.5t-79.5 -10.5q-78 0 -125.5 27.5t-72.5 68.5zM332 564h-131l-88 144h109l53 -91l86 91h111z" />
    <glyph glyph-name="Tcommaaccent" unicode="&#x162;" horiz-adv-x="533" 
d="M380 600l-106 -600h-123l105 600h-210l19 108h542l-19 -108h-208zM306 -138q0 -29 -14 -48.5t-35.5 -31.5t-47 -17t-47.5 -5q-29 0 -59 7.5t-50 18.5l27 48q35 -20 78 -20q9 0 20.5 1.5t21 6t16.5 12.5t7 21q0 23 -15 29.5t-32 6.5q-8 0 -19 -1.5t-21 -4.5l-18 25l78 90
h57l-57 -65q7 2 11.5 2h8.5q14 0 29.5 -3.5t29 -12.5t22.5 -23.5t9 -35.5z" />
    <glyph glyph-name="tcommaaccent" unicode="&#x163;" horiz-adv-x="340" 
d="M19 385l17 95h83l24 140h116l-24 -140h108l-17 -95h-106l-42 -226q-3 -15 -3 -28q0 -26 15.5 -36t41.5 -10q12 0 23.5 2t21.5 5l-7 -89q-15 -6 -35.5 -9.5t-37.5 -3.5q-76 0 -108 30.5t-32 80.5q0 14 1.5 30.5t4.5 30.5l41 223h-85zM286 -138q0 -29 -14 -48.5
t-35.5 -31.5t-47 -17t-47.5 -5q-29 0 -59 7.5t-50 18.5l27 48q35 -20 78 -20q9 0 20.5 1.5t21 6t16.5 12.5t7 21q0 23 -15 29.5t-32 6.5q-8 0 -19 -1.5t-21 -4.5l-18 25l78 90h57l-57 -65q7 2 11.5 2h8.5q14 0 29.5 -3.5t29 -12.5t22.5 -23.5t9 -35.5z" />
    <glyph glyph-name="Tcaron" unicode="&#x164;" horiz-adv-x="533" 
d="M380 600l-106 -600h-123l105 600h-210l19 108h542l-19 -108h-208zM406 764h-131l-88 144h109l53 -91l86 91h111z" />
    <glyph glyph-name="tcaron" unicode="&#x165;" horiz-adv-x="340" 
d="M19 385l17 95h83l24 140h116l-24 -140h108l-17 -95h-106l-42 -226q-3 -15 -3 -28q0 -26 15.5 -36t41.5 -10q12 0 23.5 2t21.5 5l-7 -89q-15 -6 -35.5 -9.5t-37.5 -3.5q-76 0 -108 30.5t-32 80.5q0 14 1.5 30.5t4.5 30.5l41 223h-85zM376 536h-98l107 195h114z" />
    <glyph glyph-name="Tbar" unicode="&#x166;" horiz-adv-x="533" 
d="M506 432h-156l-76 -432h-123l75 432h-154l14 75h153l17 93h-210l19 108h542l-19 -108h-208l-17 -93h157z" />
    <glyph glyph-name="tbar" unicode="&#x167;" horiz-adv-x="340" 
d="M284 219h-95l-11 -60q-3 -15 -3 -28q0 -26 15.5 -36t41.5 -10q12 0 23.5 2t21.5 5l-7 -89q-15 -6 -35.5 -9.5t-37.5 -3.5q-76 0 -108 30.5t-32 80.5q0 14 1.5 30.5t4.5 30.5l10 57h-68l14 75h68l17 91h-85l17 95h83l24 140h116l-24 -140h108l-17 -95h-106l-17 -91h95z
" />
    <glyph glyph-name="Utilde" unicode="&#x168;" horiz-adv-x="714" 
d="M633 260q-11 -63 -35.5 -114.5t-62.5 -87.5t-91 -56t-121 -20q-61 0 -110 15.5t-83 44.5t-52 69.5t-18 91.5q0 14 1 28t4 29l79 448h123l-78 -443q-2 -11 -3 -23t-1 -23q0 -26 7.5 -49t24.5 -41t43.5 -28.5t64.5 -10.5q49 0 82 15.5t54 40.5t32 56.5t17 62.5l78 443h124z
M253 768q8 24 19.5 46.5t28 40t38 28t49.5 10.5q20 0 39 -5t36 -13t32.5 -13.5t29.5 -5.5q20 0 32.5 13.5t20.5 30.5h66q-8 -24 -19.5 -46.5t-27.5 -40t-37.5 -28t-49.5 -10.5q-19 0 -36 4.5t-33 12.5q-19 9 -36 15t-32 6q-20 0 -33 -14t-21 -31h-66z" />
    <glyph glyph-name="utilde" unicode="&#x169;" 
d="M348 75q-25 -39 -63.5 -63.5t-92.5 -24.5q-40 0 -69.5 12t-49 32t-29 47.5t-9.5 57.5q0 25 4 45l53 299h117l-46 -264q-2 -12 -3.5 -24t-1.5 -24q0 -32 17 -56.5t62 -24.5q28 0 50.5 11t39 29.5t27 41.5t14.5 47l47 264h117l-66 -377q-4 -19 -8.5 -49t-6.5 -54h-110
q1 11 4 34.5t5 40.5h-2zM140 568q8 24 19.5 46.5t28 40t38 28t49.5 10.5q20 0 39 -5t36 -13t32.5 -13.5t29.5 -5.5q20 0 32.5 13.5t20.5 30.5h66q-8 -24 -19.5 -46.5t-27.5 -40t-37.5 -28t-49.5 -10.5q-19 0 -36 4.5t-33 12.5q-19 9 -36 15t-32 6q-20 0 -33 -14t-21 -31h-66
z" />
    <glyph glyph-name="Umacron" unicode="&#x16a;" horiz-adv-x="714" 
d="M633 260q-11 -63 -35.5 -114.5t-62.5 -87.5t-91 -56t-121 -20q-61 0 -110 15.5t-83 44.5t-52 69.5t-18 91.5q0 14 1 28t4 29l79 448h123l-78 -443q-2 -11 -3 -23t-1 -23q0 -26 7.5 -49t24.5 -41t43.5 -28.5t64.5 -10.5q49 0 82 15.5t54 40.5t32 56.5t17 62.5l78 443h124z
M280 795l13 77h318l-14 -77h-317z" />
    <glyph glyph-name="umacron" unicode="&#x16b;" 
d="M348 75q-25 -39 -63.5 -63.5t-92.5 -24.5q-40 0 -69.5 12t-49 32t-29 47.5t-9.5 57.5q0 25 4 45l53 299h117l-46 -264q-2 -12 -3.5 -24t-1.5 -24q0 -32 17 -56.5t62 -24.5q28 0 50.5 11t39 29.5t27 41.5t14.5 47l47 264h117l-66 -377q-4 -19 -8.5 -49t-6.5 -54h-110
q1 11 4 34.5t5 40.5h-2zM171 595l13 77h318l-14 -77h-317z" />
    <glyph glyph-name="Ubreve" unicode="&#x16c;" horiz-adv-x="714" 
d="M633 260q-11 -63 -35.5 -114.5t-62.5 -87.5t-91 -56t-121 -20q-61 0 -110 15.5t-83 44.5t-52 69.5t-18 91.5q0 14 1 28t4 29l79 448h123l-78 -443q-2 -11 -3 -23t-1 -23q0 -26 7.5 -49t24.5 -41t43.5 -28.5t64.5 -10.5q49 0 82 15.5t54 40.5t32 56.5t17 62.5l78 443h124z
M619 908q-18 -73 -67 -108t-120 -35t-111 34t-40 109h66q0 -38 27 -52.5t65 -14.5q42 0 71.5 12.5t43.5 54.5h65z" />
    <glyph glyph-name="ubreve" unicode="&#x16d;" 
d="M348 75q-25 -39 -63.5 -63.5t-92.5 -24.5q-40 0 -69.5 12t-49 32t-29 47.5t-9.5 57.5q0 25 4 45l53 299h117l-46 -264q-2 -12 -3.5 -24t-1.5 -24q0 -32 17 -56.5t62 -24.5q28 0 50.5 11t39 29.5t27 41.5t14.5 47l47 264h117l-66 -377q-4 -19 -8.5 -49t-6.5 -54h-110
q1 11 4 34.5t5 40.5h-2zM508 708q-18 -73 -67 -108t-120 -35t-111 34t-40 109h66q0 -38 27 -52.5t65 -14.5q42 0 71.5 12.5t43.5 54.5h65z" />
    <glyph glyph-name="Uring" unicode="&#x16e;" horiz-adv-x="714" 
d="M633 260q-11 -63 -35.5 -114.5t-62.5 -87.5t-91 -56t-121 -20q-61 0 -110 15.5t-83 44.5t-52 69.5t-18 91.5q0 14 1 28t4 29l79 448h123l-78 -443q-2 -11 -3 -23t-1 -23q0 -26 7.5 -49t24.5 -41t43.5 -28.5t64.5 -10.5q49 0 82 15.5t54 40.5t32 56.5t17 62.5l78 443h124z
M437 753q-40 0 -65 24.5t-25 61.5q0 24 8.5 45.5t24 37.5t36.5 25t46 9q40 0 64.5 -24t24.5 -61q0 -51 -32 -84.5t-82 -33.5zM502 862q0 20 -12 35t-33 15q-27 0 -44 -19t-17 -48q0 -20 11.5 -34t32.5 -14q28 0 45 18.5t17 46.5z" />
    <glyph glyph-name="uring" unicode="&#x16f;" 
d="M348 75q-25 -39 -63.5 -63.5t-92.5 -24.5q-40 0 -69.5 12t-49 32t-29 47.5t-9.5 57.5q0 25 4 45l53 299h117l-46 -264q-2 -12 -3.5 -24t-1.5 -24q0 -32 17 -56.5t62 -24.5q28 0 50.5 11t39 29.5t27 41.5t14.5 47l47 264h117l-66 -377q-4 -19 -8.5 -49t-6.5 -54h-110
q1 11 4 34.5t5 40.5h-2zM327 553q-40 0 -65 24.5t-25 61.5q0 24 8.5 45.5t24 37.5t36.5 25t46 9q40 0 64.5 -24t24.5 -61q0 -51 -32 -84.5t-82 -33.5zM392 662q0 20 -12 35t-33 15q-27 0 -44 -19t-17 -48q0 -20 11.5 -34t32.5 -14q28 0 45 18.5t17 46.5z" />
    <glyph glyph-name="Uhungarumlaut" unicode="&#x170;" horiz-adv-x="714" 
d="M633 260q-11 -63 -35.5 -114.5t-62.5 -87.5t-91 -56t-121 -20q-61 0 -110 15.5t-83 44.5t-52 69.5t-18 91.5q0 14 1 28t4 29l79 448h123l-78 -443q-2 -11 -3 -23t-1 -23q0 -26 7.5 -49t24.5 -41t43.5 -28.5t64.5 -10.5q49 0 82 15.5t54 40.5t32 56.5t17 62.5l78 443h124z
M579 764h-93l125 144h134zM374 764h-92l124 144h134z" />
    <glyph glyph-name="uhungarumlaut" unicode="&#x171;" 
d="M348 75q-25 -39 -63.5 -63.5t-92.5 -24.5q-40 0 -69.5 12t-49 32t-29 47.5t-9.5 57.5q0 25 4 45l53 299h117l-46 -264q-2 -12 -3.5 -24t-1.5 -24q0 -32 17 -56.5t62 -24.5q28 0 50.5 11t39 29.5t27 41.5t14.5 47l47 264h117l-66 -377q-4 -19 -8.5 -49t-6.5 -54h-110
q1 11 4 34.5t5 40.5h-2zM466 564h-93l125 144h134zM261 564h-92l124 144h134z" />
    <glyph glyph-name="Uogonek" unicode="&#x172;" horiz-adv-x="714" 
d="M403 -195q-24 -17 -50 -27.5t-56 -10.5q-40 0 -63.5 19.5t-23.5 60.5q0 19 8 37.5t21 35.5t30 33t35 30q-57 2 -102.5 18.5t-77 45t-48 68t-16.5 88.5q0 14 1 28t4 29l79 448h123l-78 -443q-2 -11 -3 -23t-1 -23q0 -26 7.5 -49t24.5 -41t43.5 -28.5t64.5 -10.5
q49 0 82 15.5t54 40.5t32 56.5t17 62.5l78 443h124l-79 -448q-21 -115 -85 -188.5t-178 -86.5q-30 -26 -54.5 -57t-24.5 -61q0 -35 40 -35q15 0 29.5 6t26.5 15l16 -48v0z" />
    <glyph glyph-name="uogonek" unicode="&#x173;" 
d="M414 -195q-24 -17 -50 -27.5t-56 -10.5q-40 0 -63.5 19.5t-23.5 60.5q0 22 11 44t28.5 41.5t38.5 37t42 32.5q0 6 1 15t2.5 19.5t3 20.5t2.5 18h-2q-25 -39 -63.5 -63.5t-92.5 -24.5q-40 0 -69.5 12t-49 32t-29 47.5t-9.5 57.5q0 25 4 45l53 299h117l-46 -264
q-2 -12 -3.5 -24t-1.5 -24q0 -32 17 -56.5t62 -24.5q28 0 50.5 11t39 29.5t27 41.5t14.5 47l47 264h117l-66 -377q-4 -19 -8.5 -49t-6.5 -54h-51q-17 -14 -34.5 -30t-31.5 -33t-23 -34.5t-9 -35.5q0 -35 40 -35q15 0 29.5 6t26.5 15l16 -48v0z" />
    <glyph glyph-name="Wcircumflex" unicode="&#x174;" horiz-adv-x="985" 
d="M712 0h-120l-65 535h-2l-268 -535h-120l-66 708h130l35 -524h2l256 524h128l55 -524h2l245 524h131zM636 764l-54 91l-86 -91h-112l140 144h132l88 -144h-108z" />
    <glyph glyph-name="wcircumflex" unicode="&#x175;" horiz-adv-x="785" 
d="M559 0h-120l-43 339h-2l-179 -339h-120l-66 480h123l33 -345h2l172 345h123l39 -345h2l174 345h123zM504 564l-54 91l-86 -91h-112l140 144h132l88 -144h-108z" />
    <glyph glyph-name="Ycircumflex" unicode="&#x176;" horiz-adv-x="575" 
d="M343 307l-55 -307h-123l54 307l-177 401h138l118 -300l237 300h150zM431 764l-54 91l-86 -91h-112l140 144h132l88 -144h-108z" />
    <glyph glyph-name="ycircumflex" unicode="&#x177;" horiz-adv-x="506" 
d="M203 -104q-18 -32 -36 -57.5t-39.5 -43t-47.5 -26.5t-61 -9q-15 0 -30.5 1.5t-30.5 5.5l15 102q11 -4 22.5 -5.5t21.5 -1.5q33 0 51.5 18.5t40.5 56.5l36 62l-108 481h126l62 -352h2l192 352h124zM372 564l-54 91l-86 -91h-112l140 144h132l88 -144h-108z" />
    <glyph glyph-name="Ydieresis" unicode="&#x178;" horiz-adv-x="575" 
d="M343 307l-55 -307h-123l54 307l-177 401h138l118 -300l237 300h150zM338 846q0 -29 -19.5 -50t-49.5 -21q-29 0 -48.5 17.5t-19.5 49.5t21 51.5t50 19.5t47.5 -17.5t18.5 -49.5zM536 846q0 -29 -19.5 -50t-49.5 -21q-29 0 -48.5 17.5t-19.5 49.5t21 51.5t50 19.5
t47.5 -17.5t18.5 -49.5z" />
    <glyph glyph-name="Zacute" unicode="&#x179;" horiz-adv-x="588" 
d="M-40 0l19 111l466 489h-336l19 108h497l-20 -111l-463 -487h388l-20 -110h-550zM404 764h-93l125 144h133z" />
    <glyph glyph-name="zacute" unicode="&#x17a;" horiz-adv-x="480" 
d="M-20 0l18 103l313 283h-244l16 94h387l-18 -103l-311 -281h268l-17 -96h-412zM315 564h-93l125 144h133z" />
    <glyph glyph-name="Zdotaccent" unicode="&#x17b;" horiz-adv-x="588" 
d="M-40 0l19 111l466 489h-336l19 108h497l-20 -111l-463 -487h388l-20 -110h-550zM469 845q0 -29 -20.5 -51t-50.5 -22q-29 0 -49.5 18t-20.5 51q0 32 22 52.5t51 20.5t48.5 -18.5t19.5 -50.5z" />
    <glyph glyph-name="zdotaccent" unicode="&#x17c;" horiz-adv-x="480" 
d="M-20 0l18 103l313 283h-244l16 94h387l-18 -103l-311 -281h268l-17 -96h-412zM375 645q0 -29 -20.5 -51t-50.5 -22q-29 0 -49.5 18t-20.5 51q0 32 22 52.5t51 20.5t48.5 -18.5t19.5 -50.5z" />
    <glyph glyph-name="Zcaron" unicode="&#x17d;" horiz-adv-x="588" 
d="M-40 0l19 111l466 489h-336l19 108h497l-20 -111l-463 -487h388l-20 -110h-550zM443 764h-131l-88 144h109l53 -91l86 91h111z" />
    <glyph glyph-name="zcaron" unicode="&#x17e;" horiz-adv-x="480" 
d="M-20 0l18 103l313 283h-244l16 94h387l-18 -103l-311 -281h268l-17 -96h-412zM353 564h-131l-88 144h109l53 -91l86 91h111z" />
    <glyph glyph-name="florin" unicode="&#x192;" horiz-adv-x="610" 
d="M562 598q-24 16 -52 16q-23 0 -38.5 -9.5t-27 -24.5t-19.5 -33t-15 -35l-33 -86h121l-15 -89h-137l-109 -291q-35 -94 -87.5 -139.5t-130.5 -45.5q-55 0 -97 24l60 90q19 -14 45 -14q39 0 60.5 29.5t38.5 74.5l101 272h-113l16 89h130l42 112q14 37 32.5 70t43.5 58
t58 39.5t77 14.5q32 0 58.5 -8t52.5 -23z" />
    <glyph glyph-name="Ohorn" unicode="&#x1a0;" horiz-adv-x="829" 
d="M898 780q0 -79 -42.5 -123t-121.5 -49q60 -77 60 -189q0 -90 -30.5 -170t-84.5 -139t-128 -93.5t-162 -34.5q-78 0 -141 21t-107.5 61t-68.5 97t-24 128q0 90 31.5 170t86.5 139t130 93.5t163 34.5q54 0 90 -8.5t62.5 -18t46.5 -18t42 -8.5q50 0 72 28t22 70q0 22 -7 41
l103 25q8 -26 8 -57zM389 90q67 0 118.5 27t87 72t54 102t18.5 117q0 43 -14 82t-41 67.5t-67 45.5t-92 17q-64 0 -115.5 -27t-87.5 -72t-55.5 -102t-19.5 -117q0 -44 14 -82.5t41 -67t67 -45.5t92 -17z" />
    <glyph glyph-name="ohorn" unicode="&#x1a1;" horiz-adv-x="604" 
d="M677 572q0 -78 -42 -122.5t-120 -49.5q17 -24 26 -53t9 -62q0 -60 -20.5 -114t-58.5 -95t-92 -65t-120 -24q-50 0 -92.5 15t-73.5 43t-48.5 66t-17.5 85q0 59 20.5 112.5t58.5 94.5t91.5 65.5t119.5 24.5q30 0 51.5 -4.5t39.5 -9.5t34.5 -9.5t36.5 -4.5q50 0 72 28t22 70
q0 22 -7 41l103 25q8 -26 8 -57zM432 273q0 54 -33 89t-90 35q-38 0 -68.5 -15.5t-52 -41.5t-33.5 -60t-12 -72q0 -54 32 -89t90 -35q38 0 69 15t52.5 41t33.5 60.5t12 72.5z" />
    <glyph glyph-name="Uhorn" unicode="&#x1af;" horiz-adv-x="714" 
d="M633 260q-11 -63 -35.5 -114.5t-62.5 -87.5t-91 -56t-121 -20q-61 0 -110 15.5t-83 44.5t-52 69.5t-18 91.5q0 14 1 28t4 29l79 448h123l-78 -443q-2 -11 -3 -23t-1 -23q0 -26 7.5 -49t24.5 -41t43.5 -28.5t64.5 -10.5q49 0 82 15.5t54 40.5t32 56.5t17 62.5l78 443h70
q50 0 72 28t22 70q0 22 -7 41l103 25q8 -26 8 -57q0 -35 -9.5 -65.5t-29 -53t-48.5 -36t-68 -16.5l-68 -384v0z" />
    <glyph glyph-name="uhorn" unicode="&#x1b0;" horiz-adv-x="594" 
d="M348 75q-25 -39 -63.5 -63.5t-92.5 -24.5q-40 0 -69.5 12t-49 32t-29 47.5t-9.5 57.5q0 25 4 45l53 299h117l-46 -264q-2 -12 -3.5 -24t-1.5 -24q0 -32 17 -56.5t62 -24.5q28 0 50.5 11t39 29.5t27 41.5t14.5 47l47 264h63q50 0 72 28t22 70q0 22 -7 41l103 25
q8 -26 8 -57q0 -35 -9.5 -65.5t-29 -53t-48.5 -36t-68 -16.5l-55 -313q-4 -19 -8.5 -49t-6.5 -54h-110q1 11 4 34.5t5 40.5h-2z" />
    <glyph glyph-name="clickdental" unicode="&#x1c0;" horiz-adv-x="232" 
d="M165 750v-1000h-98v1000h98z" />
    <glyph glyph-name="clicklateral" unicode="&#x1c1;" horiz-adv-x="465" 
d="M165 750v-1000h-98v1000h98zM398 750v-1000h-98q0 251 -0.5 500t-0.5 500h99z" />
    <glyph glyph-name="clickretroflex" unicode="&#x1c3;" horiz-adv-x="318" 
d="M203 216h-122l87 492h122zM198 72q0 -32 -22 -55.5t-55 -23.5q-32 0 -52.5 19t-20.5 50q0 34 23 57t55 23q31 0 51.5 -19.5t20.5 -50.5z" />
    <glyph glyph-name="DZcaron" unicode="&#x1c4;" horiz-adv-x="1634" 
d="M153 708h240q60 0 119 -16.5t106.5 -52t77 -92t29.5 -136.5q0 -93 -32.5 -169t-90.5 -130t-137 -83t-172 -29h-265zM168 107h131q73 0 129 24.5t93.5 65t56.5 92.5t19 107q0 43 -13.5 80.5t-41.5 65.5t-71.5 44.5t-102.5 16.5h-113zM1375 608l-463 -501h382l-19 -107
h-540l19 105l461 497h-349l19 106h508zM1192 783h-115l-91 144h97l58 -95l92 95h100z" />
    <glyph glyph-name="Dzcaron" unicode="&#x1c5;" horiz-adv-x="1514" 
d="M153 708h240q60 0 119 -16.5t106.5 -52t77 -92t29.5 -136.5q0 -93 -32.5 -169t-90.5 -130t-137 -83t-172 -29h-265zM168 107h131q73 0 129 24.5t93.5 65t56.5 92.5t19 107q0 43 -13.5 80.5t-41.5 65.5t-71.5 44.5t-102.5 16.5h-113zM1216 397l-314 -303h268l-17 -94h-413
l16 90l311 302h-244l17 92h391zM1082 559h-116l-91 144h97l59 -94l92 94h100z" />
    <glyph glyph-name="dzcaron" unicode="&#x1c6;" horiz-adv-x="1391" 
d="M26 196q0 62 20.5 117t57.5 96t87 64.5t110 23.5q54 0 96 -22t63 -62h2l60 343h117l-134 -756h-110l13 72h-3q-25 -37 -69.5 -60.5t-100.5 -23.5q-48 0 -86.5 15.5t-66 43t-42 65.5t-14.5 84zM144 210q0 -26 8 -49t24 -40t39 -27t53 -10q36 0 67.5 15.5t55 41.5
t36.5 60.5t13 73.5q0 56 -34 91t-92 35q-39 0 -70 -15t-53.5 -41t-34.5 -60.5t-12 -74.5zM1093 397l-314 -303h268l-17 -94h-413l16 90l311 302h-244l17 92h391zM968 559h-115l-91 144h97l59 -94l92 94h100z" />
    <glyph glyph-name="LJ" unicode="&#x1c7;" horiz-adv-x="1023" 
d="M169 107h302l-18 -107h-425l125 708h123zM607 170q5 -33 26.5 -56t58.5 -23q30 0 50 11t33 29.5t20 43t12 51.5l85 482h124l-87 -485q-7 -39 -19.5 -82t-38.5 -78.5t-68 -58.5t-108 -23q-86 0 -137 43t-63 110z" />
    <glyph glyph-name="Lj" unicode="&#x1c8;" horiz-adv-x="794" 
d="M169 107h302l-18 -107h-425l125 708h123zM419 -136q9 -3 19.5 -4.5t18.5 -1.5q23 0 37 10t23 27t13.5 40t9.5 49l88 500h118l-89 -505q-8 -41 -18.5 -80.5t-31 -70.5t-55.5 -50.5t-92 -19.5q-14 0 -32 2t-31 6zM782 658q0 -30 -20 -52t-51 -22q-29 0 -49 17.5t-20 46.5
q0 32 22 53t52 21q29 0 47.5 -18t18.5 -46z" />
    <glyph glyph-name="lj" unicode="&#x1c9;" horiz-adv-x="551" 
d="M142 0h-119l133 756h119zM176 -136q9 -3 19.5 -4.5t18.5 -1.5q23 0 37 10t23 27t13.5 40t9.5 49l88 500h118l-89 -505q-8 -41 -18.5 -80.5t-31 -70.5t-55.5 -50.5t-92 -19.5q-14 0 -32 2t-31 6zM539 658q0 -30 -20 -52t-51 -22q-29 0 -49 17.5t-20 46.5q0 32 22 53t52 21
q29 0 47.5 -18t18.5 -46z" />
    <glyph glyph-name="NJ" unicode="&#x1ca;" horiz-adv-x="1276" 
d="M534 177h2l93 531h121l-125 -708h-141l-239 537h-2l-93 -537h-121l125 708h141zM860 170q5 -33 26.5 -56t58.5 -23q30 0 50 11t33 29.5t20 43t12 51.5l85 482h124l-87 -485q-7 -39 -19.5 -82t-38.5 -78.5t-68.5 -58.5t-108.5 -23q-85 0 -136 43t-63 110z" />
    <glyph glyph-name="Nj" unicode="&#x1cb;" horiz-adv-x="1047" 
d="M534 177h2l93 531h121l-125 -708h-141l-239 537h-2l-93 -537h-121l125 708h141zM672 -136q9 -3 19.5 -4.5t18.5 -1.5q23 0 37 10t23 27t13.5 40t9.5 49l88 500h118l-89 -505q-8 -41 -18.5 -80.5t-31 -70.5t-55.5 -50.5t-92 -19.5q-14 0 -32 2t-31 6zM1035 658
q0 -30 -20 -52t-52 -22q-29 0 -48.5 17.5t-19.5 46.5q0 32 22 53t52 21q29 0 47.5 -18t18.5 -46z" />
    <glyph glyph-name="nj" unicode="&#x1cc;" horiz-adv-x="873" 
d="M216 484q-2 -15 -4.5 -37.5t-4.5 -37.5h2q26 39 66.5 63.5t91.5 24.5q80 0 120 -42t40 -106q0 -13 -1.5 -25.5t-3.5 -26.5l-53 -297h-117l46 265q6 25 6 50q0 32 -13.5 54t-47.5 27q-12 2 -25 1t-25 -5q-37 -8 -67.5 -42t-41.5 -94l-45 -256h-117l67 381q3 19 8 49t7 54
h112zM499 -136q18 -6 37 -6q23 0 37.5 10t23 27t13 40t9.5 49l89 500h117l-89 -505q-8 -41 -18 -80.5t-31 -70.5t-56 -50.5t-92 -19.5q-14 0 -32 2t-31 6zM862 658q0 -30 -20.5 -52t-51.5 -22q-29 0 -48.5 17.5t-19.5 46.5q0 32 21.5 53t51.5 21q29 0 48 -18t19 -46z" />
    <glyph glyph-name="Acaron" unicode="&#x1cd;" horiz-adv-x="703" 
d="M72 0h-140l453 708h120l140 -708h-129l-31 162h-314zM228 264h243l-54 309zM512 783h-115l-91 144h97l59 -95l92 95h100z" />
    <glyph glyph-name="acaron" unicode="&#x1ce;" horiz-adv-x="547" 
d="M365 302q2 13 2.5 20t0.5 12q0 39 -24.5 56t-68.5 17q-37 0 -74 -14.5t-64 -36.5l-49 70q40 34 94 53t108 19q40 0 74.5 -9t60 -27t40 -46t14.5 -67q0 -11 -1.5 -27t-3.5 -29l-34 -192q-5 -26 -7.5 -54.5t-2.5 -46.5h-105q0 14 1.5 31t3.5 33h-2q-34 -40 -73 -57.5
t-92 -17.5q-25 0 -51.5 6.5t-48 21.5t-35.5 39t-14 60q0 58 31 94.5t81 57t113 27.5t126 7zM341 226q-37 0 -75 -3.5t-69.5 -13.5t-51.5 -28t-20 -47q0 -18 7 -30t18 -19t25.5 -10t29.5 -3q58 0 96.5 36t48.5 87l6 31h-15zM370 573h-115l-91 144h97l59 -95l91 95h101z" />
    <glyph glyph-name="Icaron" unicode="&#x1cf;" horiz-adv-x="290" 
d="M151 0h-123l125 708h123zM284 783h-115l-91 144h97l59 -95l92 95h100z" />
    <glyph glyph-name="icaron" unicode="&#x1d0;" horiz-adv-x="274" 
d="M140 0h-117l85 484h118zM236 559h-115l-91 144h97l59 -94l91 94h101z" />
    <glyph glyph-name="Ocaron" unicode="&#x1d1;" horiz-adv-x="832" 
d="M380 -18q-75 0 -136.5 22t-104.5 62.5t-66.5 97.5t-23.5 127q0 90 31.5 169.5t87 138.5t131.5 93t166 34q75 0 136 -22t104 -62.5t66.5 -97t23.5 -126.5q0 -90 -31 -169.5t-86 -139t-131 -93.5t-167 -34zM666 408q0 43 -13.5 81.5t-40 67t-65.5 45t-89 16.5
q-64 0 -116 -27t-88.5 -71t-56.5 -101t-20 -117q0 -44 13.5 -82t40 -66.5t65.5 -45t90 -16.5q64 0 116 26.5t88.5 70.5t56 101t19.5 118zM554 801h-115l-91 144h97l58 -95l92 95h100z" />
    <glyph glyph-name="ocaron" unicode="&#x1d2;" horiz-adv-x="612" 
d="M262 -13q-51 0 -94 15t-74.5 42.5t-49.5 67t-18 87.5q0 60 21 114.5t59 95.5t92 65t120 24q52 0 95.5 -15t75 -42.5t49.5 -66.5t18 -87q0 -62 -21 -116.5t-59 -95t-92.5 -64.5t-121.5 -24zM439 276q0 54 -33 89.5t-93 35.5q-38 0 -69 -15.5t-53 -41.5t-34.5 -60.5
t-12.5 -73.5q0 -54 32.5 -90t92.5 -36q38 0 69 15.5t53.5 41.5t35 61t12.5 74zM400 573h-115l-91 144h97l58 -95l92 95h101z" />
    <glyph glyph-name="Ucaron" unicode="&#x1d3;" horiz-adv-x="725" 
d="M322 -18q-64 0 -112.5 17t-81 46.5t-49 69t-16.5 85.5q0 34 6 64l78 444h122l-77 -432q-2 -13 -3 -26t-1 -24q0 -27 7.5 -52t24 -44t43 -30t65.5 -11q48 0 81.5 16t55 42t34 59.5t18.5 68.5l77 433h121l-78 -446q-9 -54 -31.5 -104.5t-60 -89.5t-93 -62.5t-130.5 -23.5z
M492 783h-115l-91 144h97l59 -95l91 95h101z" />
    <glyph glyph-name="ucaron" unicode="&#x1d4;" horiz-adv-x="597" 
d="M349 0q2 15 5 38t5 38h-3q-25 -39 -66 -64t-92 -25q-79 0 -119 42.5t-40 105.5q0 13 1 25.5t4 26.5l52 297h118l-47 -265q-5 -28 -5 -50q0 -32 13 -54t48 -27q24 -3 50 5q37 8 67 42t41 94l45 255h118l-68 -381q-4 -19 -8.5 -49t-6.5 -54h-112zM382 559h-115l-91 144h97
l58 -94l92 94h100z" />
    <glyph glyph-name="Udieresismacron" unicode="&#x1d5;" horiz-adv-x="725" 
d="M322 -18q-64 0 -112.5 17t-81 46.5t-49 69t-16.5 85.5q0 34 6 64l78 444h122l-77 -432q-2 -13 -3 -26t-1 -24q0 -27 7.5 -52t24 -44t43 -30t65.5 -11q48 0 81.5 16t55 42t34 59.5t18.5 68.5l77 433h121l-78 -446q-9 -54 -31.5 -104.5t-60 -89.5t-93 -62.5t-130.5 -23.5z
M406 852q0 -28 -19.5 -48.5t-48.5 -20.5q-27 0 -45.5 16.5t-18.5 44.5q0 30 20 50t49 20q27 0 45 -17.5t18 -44.5zM615 852q0 -28 -19.5 -48.5t-48.5 -20.5q-27 0 -45.5 16.5t-18.5 44.5q0 30 20 50t49 20q27 0 45 -17.5t18 -44.5zM610 989h-304l11 70h305z" />
    <glyph glyph-name="udieresismacron" unicode="&#x1d6;" horiz-adv-x="597" 
d="M349 0q2 15 5 38t5 38h-3q-25 -39 -66 -64t-92 -25q-79 0 -119 42.5t-40 105.5q0 13 1 25.5t4 26.5l52 297h118l-47 -265q-5 -28 -5 -50q0 -32 13 -54t48 -27q24 -3 50 5q37 8 67 42t41 94l45 255h118l-68 -381q-4 -19 -8.5 -49t-6.5 -54h-112zM288 629
q0 -29 -19.5 -49.5t-48.5 -20.5q-27 0 -45.5 17t-18.5 44q0 30 20 50t49 20q27 0 45 -17t18 -44zM497 629q0 -29 -19.5 -49.5t-48.5 -20.5q-27 0 -45 17t-18 44q0 30 19.5 50t48.5 20q27 0 45 -17t18 -44zM491 765h-304l12 70h304z" />
    <glyph glyph-name="Udieresisacute" unicode="&#x1d7;" horiz-adv-x="725" 
d="M322 -18q-64 0 -112.5 17t-81 46.5t-49 69t-16.5 85.5q0 34 6 64l78 444h122l-77 -432q-2 -13 -3 -26t-1 -24q0 -27 7.5 -52t24 -44t43 -30t65.5 -11q48 0 81.5 16t55 42t34 59.5t18.5 68.5l77 433h121l-78 -446q-9 -54 -31.5 -104.5t-60 -89.5t-93 -62.5t-130.5 -23.5z
M400 852q0 -28 -19 -48.5t-48 -20.5q-28 0 -46 16.5t-18 44.5q0 30 20 50t49 20q27 0 44.5 -17.5t17.5 -44.5zM610 852q0 -28 -19.5 -48.5t-48.5 -20.5q-27 0 -45.5 16.5t-18.5 44.5q0 30 20 50t49 20q27 0 45 -17.5t18 -44.5zM486 989h-91l127 144h129z" />
    <glyph glyph-name="udieresisacute" unicode="&#x1d8;" horiz-adv-x="597" 
d="M349 0q2 15 5 38t5 38h-3q-25 -39 -66 -64t-92 -25q-79 0 -119 42.5t-40 105.5q0 13 1 25.5t4 26.5l52 297h118l-47 -265q-5 -28 -5 -50q0 -32 13 -54t48 -27q24 -3 50 5q37 8 67 42t41 94l45 255h118l-68 -381q-4 -19 -8.5 -49t-6.5 -54h-112zM293 629
q0 -29 -19.5 -49.5t-48.5 -20.5q-27 0 -45.5 17t-18.5 44q0 30 20 50t49 20q27 0 45 -17t18 -44zM502 629q0 -29 -19.5 -49.5t-48.5 -20.5q-27 0 -45.5 17t-18.5 44q0 30 20 50t49 20q27 0 45 -17t18 -44zM378 765h-92l128 144h128z" />
    <glyph glyph-name="Udieresiscaron" unicode="&#x1d9;" horiz-adv-x="725" 
d="M322 -18q-64 0 -112.5 17t-81 46.5t-49 69t-16.5 85.5q0 34 6 64l78 444h122l-77 -432q-2 -13 -3 -26t-1 -24q0 -27 7.5 -52t24 -44t43 -30t65.5 -11q48 0 81.5 16t55 42t34 59.5t18.5 68.5l77 433h121l-78 -446q-9 -54 -31.5 -104.5t-60 -89.5t-93 -62.5t-130.5 -23.5z
M403 852q0 -28 -19 -48.5t-48 -20.5q-28 0 -46.5 16.5t-18.5 44.5q0 30 20 50t49 20q28 0 45.5 -17.5t17.5 -44.5zM612 852q0 -28 -19 -48.5t-48 -20.5q-28 0 -46 16.5t-18 44.5q0 30 20 50t49 20q27 0 44.5 -17.5t17.5 -44.5zM525 989h-115l-91 144h97l58 -95l92 95h100z
" />
    <glyph glyph-name="udieresiscaron" unicode="&#x1da;" horiz-adv-x="597" 
d="M349 0q2 15 5 38t5 38h-3q-25 -39 -66 -64t-92 -25q-79 0 -119 42.5t-40 105.5q0 13 1 25.5t4 26.5l52 297h118l-47 -265q-5 -28 -5 -50q0 -32 13 -54t48 -27q24 -3 50 5q37 8 67 42t41 94l45 255h118l-68 -381q-4 -19 -8.5 -49t-6.5 -54h-112zM298 629
q0 -29 -19.5 -49.5t-48.5 -20.5q-28 0 -46 17t-18 44q0 30 20 50t49 20q27 0 45 -17t18 -44zM507 629q0 -29 -19.5 -49.5t-48.5 -20.5q-27 0 -45.5 17t-18.5 44q0 30 20 50t49 20q27 0 45 -17t18 -44zM415 765h-115l-91 144h97l58 -94l92 94h100z" />
    <glyph glyph-name="Udieresisgrave" unicode="&#x1db;" horiz-adv-x="725" 
d="M322 -18q-64 0 -112.5 17t-81 46.5t-49 69t-16.5 85.5q0 34 6 64l78 444h122l-77 -432q-2 -13 -3 -26t-1 -24q0 -27 7.5 -52t24 -44t43 -30t65.5 -11q48 0 81.5 16t55 42t34 59.5t18.5 68.5l77 433h121l-78 -446q-9 -54 -31.5 -104.5t-60 -89.5t-93 -62.5t-130.5 -23.5z
M405 852q0 -28 -19 -48.5t-48 -20.5q-28 0 -46.5 16.5t-18.5 44.5q0 30 20 50t49 20q27 0 45 -17.5t18 -44.5zM614 852q0 -28 -19.5 -48.5t-48.5 -20.5q-27 0 -45 16.5t-18 44.5q0 30 20 50t49 20q26 0 44 -17.5t18 -44.5zM268 1133h128l105 -144h-90z" />
    <glyph glyph-name="udieresisgrave" unicode="&#x1dc;" horiz-adv-x="597" 
d="M349 0q2 15 5 38t5 38h-3q-25 -39 -66 -64t-92 -25q-79 0 -119 42.5t-40 105.5q0 13 1 25.5t4 26.5l52 297h118l-47 -265q-5 -28 -5 -50q0 -32 13 -54t48 -27q24 -3 50 5q37 8 67 42t41 94l45 255h118l-68 -381q-4 -19 -8.5 -49t-6.5 -54h-112zM290 629
q0 -29 -19.5 -49.5t-48.5 -20.5q-28 0 -46 17t-18 44q0 30 20 50t49 20q27 0 45 -17t18 -44zM499 629q0 -29 -19.5 -49.5t-48.5 -20.5q-27 0 -45.5 17t-18.5 44q0 30 20 50t49 20q27 0 45 -17t18 -44zM148 909h129l105 -144h-91z" />
    <glyph glyph-name="Adieresismacron" unicode="&#x1de;" horiz-adv-x="703" 
d="M72 0h-140l453 708h120l140 -708h-129l-31 162h-314zM228 264h243l-54 309zM422 852q0 -28 -19.5 -48.5t-48.5 -20.5q-28 0 -46 16.5t-18 44.5q0 30 20 50t49 20q27 0 45 -17.5t18 -44.5zM631 852q0 -28 -19.5 -48.5t-48.5 -20.5q-27 0 -45.5 16.5t-18.5 44.5q0 30 20 50
t49 20q27 0 45 -17.5t18 -44.5zM625 989h-304l12 70h304z" />
    <glyph glyph-name="adieresismacron" unicode="&#x1df;" horiz-adv-x="547" 
d="M365 302q2 13 2.5 20t0.5 12q0 39 -24.5 56t-68.5 17q-37 0 -74 -14.5t-64 -36.5l-49 70q40 34 94 53t108 19q40 0 74.5 -9t60 -27t40 -46t14.5 -67q0 -11 -1.5 -27t-3.5 -29l-34 -192q-5 -26 -7.5 -54.5t-2.5 -46.5h-105q0 14 1.5 31t3.5 33h-2q-34 -40 -73 -57.5
t-92 -17.5q-25 0 -51.5 6.5t-48 21.5t-35.5 39t-14 60q0 58 31 94.5t81 57t113 27.5t126 7zM341 226q-37 0 -75 -3.5t-69.5 -13.5t-51.5 -28t-20 -47q0 -18 7 -30t18 -19t25.5 -10t29.5 -3q58 0 96.5 36t48.5 87l6 31h-15zM268 642q0 -29 -19 -49t-48 -20q-28 0 -46.5 16.5
t-18.5 44.5q0 30 20.5 50t48.5 20t45.5 -17.5t17.5 -44.5zM477 642q0 -29 -19 -49t-48 -20q-28 0 -46 16.5t-18 44.5q0 30 20 50t49 20q27 0 44.5 -17.5t17.5 -44.5zM468 779h-304l12 70h304z" />
    <glyph glyph-name="Adotmacron" unicode="&#x1e0;" horiz-adv-x="703" 
d="M72 0h-140l453 708h120l140 -708h-129l-31 162h-314zM228 264h243l-54 309zM536 854q0 -29 -20 -50t-49 -21q-28 0 -47 17t-19 45q0 30 21 50.5t50 20.5q27 0 45.5 -17.5t18.5 -44.5zM650 991h-304l12 70h305z" />
    <glyph glyph-name="adotmacron" unicode="&#x1e1;" horiz-adv-x="547" 
d="M365 302q2 13 2.5 20t0.5 12q0 39 -24.5 56t-68.5 17q-37 0 -74 -14.5t-64 -36.5l-49 70q40 34 94 53t108 19q40 0 74.5 -9t60 -27t40 -46t14.5 -67q0 -11 -1.5 -27t-3.5 -29l-34 -192q-5 -26 -7.5 -54.5t-2.5 -46.5h-105q0 14 1.5 31t3.5 33h-2q-34 -40 -73 -57.5
t-92 -17.5q-25 0 -51.5 6.5t-48 21.5t-35.5 39t-14 60q0 58 31 94.5t81 57t113 27.5t126 7zM341 226q-37 0 -75 -3.5t-69.5 -13.5t-51.5 -28t-20 -47q0 -18 7 -30t18 -19t25.5 -10t29.5 -3q58 0 96.5 36t48.5 87l6 31h-15zM390 643q0 -29 -19.5 -49.5t-49.5 -20.5
q-28 0 -46.5 16.5t-18.5 45.5q0 30 21 50.5t50 20.5q27 0 45 -17.5t18 -45.5zM482 781h-304l12 70h304z" />
    <glyph glyph-name="AEmacron" unicode="&#x1e2;" horiz-adv-x="1009" 
d="M462 0l30 176h-255l-136 -176h-143l553 708h501l-18 -106h-310l-33 -187h296l-19 -100h-294l-37 -209h336l-18 -106h-453zM510 276l58 326h-10l-253 -326h205zM924 783h-304l12 70h305z" />
    <glyph glyph-name="aemacron" unicode="&#x1e3;" horiz-adv-x="891" 
d="M449 416q26 35 73.5 58.5t104.5 23.5q97 0 152.5 -52.5t55.5 -145.5q0 -15 -2.5 -41t-8.5 -48h-366q-1 -5 -1.5 -8.5t-0.5 -6.5q0 -54 36 -85.5t89 -31.5q45 0 80 18.5t58 47.5l74 -61q-45 -50 -101.5 -74t-121.5 -24q-62 0 -111.5 27.5t-70.5 76.5q-26 -43 -76 -72
t-128 -29q-30 0 -60.5 6.5t-55 21.5t-40 39.5t-15.5 60.5q0 56 30.5 89.5t80 51.5t112 23.5t127.5 5.5q3 13 5 27t2 20q0 40 -25.5 56.5t-67.5 16.5q-38 0 -74.5 -14.5t-62.5 -36.5l-50 70q39 34 93.5 53t108.5 19q126 0 157 -82zM333 212q-43 0 -81 -3.5t-66.5 -12t-45 -24
t-16.5 -39.5q0 -35 25 -47.5t56 -12.5q60 0 98.5 33.5t47.5 87.5l3 18h-21zM726 287q1 6 1.5 13.5t0.5 12.5q0 43 -28 71t-81 28q-30 0 -55.5 -11t-45 -28.5t-32 -40t-18.5 -45.5h258zM629 573h-304l12 70h305z" />
    <glyph glyph-name="Gcaron" unicode="&#x1e6;" horiz-adv-x="759" 
d="M391 88q91 2 148 34l30 171h-151l19 102h266l-61 -348q-59 -32 -125.5 -49t-138.5 -17q-74 0 -134.5 22t-104 62t-67 96.5t-23.5 126.5q0 91 32.5 171.5t89 139.5t133.5 93.5t166 34.5q80 0 147.5 -28.5t102.5 -80.5l-96 -79q-18 32 -57 56t-100 24q-63 0 -116 -26.5
t-92 -70.5t-60.5 -101.5t-21.5 -119.5q0 -45 14 -84t41 -67.5t67 -45t92 -16.5zM531 802h-115l-92 144h97l59 -95l92 95h100z" />
    <glyph glyph-name="gcaron" unicode="&#x1e7;" horiz-adv-x="643" 
d="M54 -68q27 -35 71 -55t92 -20q45 0 76.5 12.5t52.5 34t33.5 51t18.5 62.5l12 59h-3q-26 -35 -69 -57t-95 -22q-49 0 -87.5 15.5t-65.5 43.5t-41.5 65.5t-14.5 82.5q0 60 20.5 113.5t57 93.5t86.5 63t110 23q53 0 96 -22t63 -64h3l12 73h112l-80 -457q-10 -55 -29 -103.5
t-53.5 -85t-86.5 -57.5t-128 -21q-33 0 -66 6t-63.5 17t-57 28t-45.5 38zM151 214q0 -25 7.5 -47.5t23 -40t39 -27.5t54.5 -10q38 0 69.5 15.5t54 41t35 59.5t12.5 71q0 54 -33.5 90t-92.5 36q-38 0 -69.5 -14.5t-53.5 -39.5t-34 -59.5t-12 -74.5zM496 572h-115l-91 144h97
l59 -95l91 95h101z" />
    <glyph glyph-name="Kcaron" unicode="&#x1e8;" horiz-adv-x="636" 
d="M219 401h2l318 307h162l-365 -333l272 -375h-155l-240 353h-3l-61 -353h-121l125 708h121zM456 783h-115l-91 144h97l59 -95l92 95h100z" />
    <glyph glyph-name="kcaron" unicode="&#x1e9;" horiz-adv-x="533" 
d="M189 278h3l212 206h152l-248 -225l183 -259h-143l-162 242h-3l-42 -242h-118l133 756h118zM279 831h-115l-92 144h98l58 -95l92 95h100z" />
    <glyph glyph-name="Oogonek" unicode="&#x1ea;" horiz-adv-x="832" 
d="M380 -18q-75 0 -136.5 22t-104.5 62.5t-66.5 97.5t-23.5 127q0 90 31.5 169.5t87 138.5t131.5 93t166 34q75 0 136 -22t104 -62.5t66.5 -97t23.5 -126.5q0 -65 -13 -117.5t-36.5 -96.5t-57 -81t-74.5 -70q-29 -24 -65 -47t-67.5 -47t-53 -50.5t-21.5 -58.5
q0 -18 11 -24.5t27 -6.5q14 0 28.5 5t27.5 15l17 -51q-24 -17 -51 -27.5t-56 -10.5q-35 0 -61.5 17.5t-26.5 58.5q0 25 9 47.5t23 42.5t32.5 37t37.5 32q-23 -3 -45 -3zM666 408q0 43 -13.5 81.5t-40 67t-65.5 45t-89 16.5q-64 0 -116 -27t-88.5 -71t-56.5 -101t-20 -117
q0 -44 13.5 -82t40 -66.5t65.5 -45t90 -16.5q64 0 116 26.5t88.5 70.5t56 101t19.5 118z" />
    <glyph glyph-name="oogonek" unicode="&#x1eb;" horiz-adv-x="612" 
d="M262 -13q-51 0 -94 15t-74.5 42.5t-49.5 67t-18 87.5q0 60 21 114.5t59 95.5t92 65t120 24q52 0 95.5 -15t75 -42.5t49.5 -66.5t18 -87q0 -44 -10.5 -79.5t-29 -66.5t-45 -59t-58.5 -56q-24 -21 -49 -41.5t-46 -41.5t-34 -43.5t-13 -47.5q0 -17 11 -24t27 -7
q14 0 28.5 5.5t27.5 14.5l17 -51q-24 -17 -51 -27.5t-56 -10.5q-35 0 -61.5 17.5t-26.5 59.5q0 26 8.5 48.5t22.5 42.5t31.5 37t36.5 32q-5 -1 -11 -1.5t-13 -0.5zM439 276q0 54 -33 89.5t-93 35.5q-38 0 -69 -15.5t-53 -41.5t-34.5 -60.5t-12.5 -73.5q0 -54 32.5 -90
t92.5 -36q38 0 69 15.5t53.5 41.5t35 61t12.5 74z" />
    <glyph glyph-name="Oogonekmacron" unicode="&#x1ec;" horiz-adv-x="832" 
d="M380 -18q-75 0 -136.5 22t-104.5 62.5t-66.5 97.5t-23.5 127q0 90 31.5 169.5t87 138.5t131.5 93t166 34q75 0 136 -22t104 -62.5t66.5 -97t23.5 -126.5q0 -65 -13 -117.5t-36.5 -96.5t-57 -81t-74.5 -70q-29 -24 -65 -47t-67.5 -47t-53 -50.5t-21.5 -58.5
q0 -18 11 -24.5t27 -6.5q14 0 28.5 5t27.5 15l17 -51q-24 -17 -51 -27.5t-56 -10.5q-35 0 -61.5 17.5t-26.5 58.5q0 25 9 47.5t23 42.5t32.5 37t37.5 32q-23 -3 -45 -3zM666 408q0 43 -13.5 81.5t-40 67t-65.5 45t-89 16.5q-64 0 -116 -27t-88.5 -71t-56.5 -101t-20 -117
q0 -44 13.5 -82t40 -66.5t65.5 -45t90 -16.5q64 0 116 26.5t88.5 70.5t56 101t19.5 118zM638 801h-304l12 70h305z" />
    <glyph glyph-name="oogonekmacron" unicode="&#x1ed;" horiz-adv-x="612" 
d="M262 -13q-51 0 -94 15t-74.5 42.5t-49.5 67t-18 87.5q0 60 21 114.5t59 95.5t92 65t120 24q52 0 95.5 -15t75 -42.5t49.5 -66.5t18 -87q0 -40 -8.5 -73t-24 -61.5t-37.5 -54t-49 -50.5q-26 -24 -55 -47t-53.5 -47t-41 -49t-16.5 -53q0 -17 11 -24t27 -7q14 0 28.5 5.5
t27.5 14.5l17 -51q-24 -17 -51 -27.5t-56 -10.5q-35 0 -61.5 17.5t-26.5 59.5q0 26 8.5 48.5t22.5 42.5t31.5 37t36.5 32q-5 -1 -11 -1.5t-13 -0.5zM439 276q0 54 -33 89.5t-93 35.5q-38 0 -69 -15.5t-53 -41.5t-34.5 -60.5t-12.5 -73.5q0 -54 32.5 -90t92.5 -36
q38 0 69 15.5t53.5 41.5t35 61t12.5 74zM485 573h-304l12 70h304z" />
    <glyph glyph-name="DZ" unicode="&#x1f1;" horiz-adv-x="1361" 
d="M153 708h240q60 0 119 -16.5t106.5 -52t77 -92t29.5 -136.5q0 -93 -32.5 -169t-90.5 -130t-137 -83t-172 -29h-265zM168 107h131q73 0 129 24.5t93.5 65t56.5 92.5t19 107q0 43 -13.5 80.5t-41.5 65.5t-71.5 44.5t-102.5 16.5h-113zM1375 608l-463 -501h382l-19 -107
h-540l19 105l461 497h-349l19 106h508z" />
    <glyph glyph-name="Dz" unicode="&#x1f2;" horiz-adv-x="1242" 
d="M153 708h240q60 0 119 -16.5t106.5 -52t77 -92t29.5 -136.5q0 -93 -32.5 -169t-90.5 -130t-137 -83t-172 -29h-265zM168 107h131q73 0 129 24.5t93.5 65t56.5 92.5t19 107q0 43 -13.5 80.5t-41.5 65.5t-71.5 44.5t-102.5 16.5h-113zM1216 397l-314 -303h268l-17 -94h-413
l16 90l311 302h-244l17 92h391z" />
    <glyph glyph-name="dz" unicode="&#x1f3;" horiz-adv-x="1119" 
d="M26 196q0 62 20.5 117t57.5 96t87 64.5t110 23.5q54 0 96 -22t63 -62h2l60 343h117l-134 -756h-110l13 72h-3q-25 -37 -69.5 -60.5t-100.5 -23.5q-48 0 -86.5 15.5t-66 43t-42 65.5t-14.5 84zM144 210q0 -26 8 -49t24 -40t39 -27t53 -10q36 0 67.5 15.5t55 41.5
t36.5 60.5t13 73.5q0 56 -34 91t-92 35q-39 0 -70 -15t-53.5 -41t-34.5 -60.5t-12 -74.5zM1093 397l-314 -303h268l-17 -94h-413l16 90l311 302h-244l17 92h391z" />
    <glyph glyph-name="Gacute" unicode="&#x1f4;" horiz-adv-x="759" 
d="M391 88q91 2 148 34l30 171h-151l19 102h266l-61 -348q-59 -32 -125.5 -49t-138.5 -17q-74 0 -134.5 22t-104 62t-67 96.5t-23.5 126.5q0 91 32.5 171.5t89 139.5t133.5 93.5t166 34.5q80 0 147.5 -28.5t102.5 -80.5l-96 -79q-18 32 -57 56t-100 24q-63 0 -116 -26.5
t-92 -70.5t-60.5 -101.5t-21.5 -119.5q0 -45 14 -84t41 -67.5t67 -45t92 -16.5zM493 802h-92l128 144h128z" />
    <glyph glyph-name="gacute" unicode="&#x1f5;" horiz-adv-x="643" 
d="M54 -68q27 -35 71 -55t92 -20q45 0 76.5 12.5t52.5 34t33.5 51t18.5 62.5l12 59h-3q-26 -35 -69 -57t-95 -22q-49 0 -87.5 15.5t-65.5 43.5t-41.5 65.5t-14.5 82.5q0 60 20.5 113.5t57 93.5t86.5 63t110 23q53 0 96 -22t63 -64h3l12 73h112l-80 -457q-10 -55 -29 -103.5
t-53.5 -85t-86.5 -57.5t-128 -21q-33 0 -66 6t-63.5 17t-57 28t-45.5 38zM151 214q0 -25 7.5 -47.5t23 -40t39 -27.5t54.5 -10q38 0 69.5 15.5t54 41t35 59.5t12.5 71q0 54 -33.5 90t-92.5 36q-38 0 -69.5 -14.5t-53.5 -39.5t-34 -59.5t-12 -74.5zM417 572h-91l127 144h129z
" />
    <glyph glyph-name="Ngrave" unicode="&#x1f8;" horiz-adv-x="771" 
d="M534 177h2l93 531h121l-125 -708h-141l-239 537h-2l-93 -537h-121l125 708h141zM281 927h129l105 -144h-91z" />
    <glyph glyph-name="ngrave" unicode="&#x1f9;" horiz-adv-x="598" 
d="M216 484q-2 -15 -4.5 -37.5t-4.5 -37.5h2q26 39 66.5 63.5t91.5 24.5q80 0 120 -42t40 -106q0 -13 -1.5 -25.5t-3.5 -26.5l-53 -297h-117l46 265q6 25 6 50q0 32 -13.5 54t-47.5 27q-12 2 -25 1t-25 -5q-37 -8 -67.5 -42t-41.5 -94l-45 -256h-117l67 381q3 19 8 49t7 54
h112zM146 716h128l105 -144h-90z" />
    <glyph glyph-name="Aringacute" unicode="&#x1fa;" horiz-adv-x="703" 
d="M72 0h-140l453 708h120l140 -708h-129l-31 162h-314zM228 264h243l-54 309zM471 783q-40 0 -64.5 24t-24.5 60q0 24 8.5 46t23.5 38t36 25.5t46 9.5q39 0 64 -23.5t25 -60.5q0 -25 -8.5 -46.5t-23.5 -37.5t-36 -25.5t-46 -9.5zM543 897q0 21 -14 36t-37 15
q-29 0 -48.5 -22t-19.5 -54q0 -22 13.5 -36.5t36.5 -14.5q30 0 49.5 22t19.5 54zM530 1061h-91l127 144h129z" />
    <glyph glyph-name="aringacute" unicode="&#x1fb;" horiz-adv-x="547" 
d="M365 302q2 13 2.5 20t0.5 12q0 39 -24.5 56t-68.5 17q-37 0 -74 -14.5t-64 -36.5l-49 70q40 34 94 53t108 19q40 0 74.5 -9t60 -27t40 -46t14.5 -67q0 -11 -1.5 -27t-3.5 -29l-34 -192q-5 -26 -7.5 -54.5t-2.5 -46.5h-105q0 14 1.5 31t3.5 33h-2q-34 -40 -73 -57.5
t-92 -17.5q-25 0 -51.5 6.5t-48 21.5t-35.5 39t-14 60q0 58 31 94.5t81 57t113 27.5t126 7zM341 226q-37 0 -75 -3.5t-69.5 -13.5t-51.5 -28t-20 -47q0 -18 7 -30t18 -19t25.5 -10t29.5 -3q58 0 96.5 36t48.5 87l6 31h-15zM319 573q-39 0 -64 24t-25 60q0 24 8.5 46t23.5 38
t36 25.5t46 9.5q40 0 64.5 -23.5t24.5 -60.5q0 -25 -8.5 -46.5t-23.5 -37.5t-36 -25.5t-46 -9.5zM391 687q0 21 -13.5 36t-37.5 15q-29 0 -48.5 -22t-19.5 -54q0 -22 13.5 -36.5t36.5 -14.5q31 0 50 22t19 54zM355 851h-92l128 144h128z" />
    <glyph glyph-name="AEacute" unicode="&#x1fc;" horiz-adv-x="1009" 
d="M462 0l30 176h-255l-136 -176h-143l553 708h501l-18 -106h-310l-33 -187h296l-19 -100h-294l-37 -209h336l-18 -106h-453zM510 276l58 326h-10l-253 -326h205zM789 783h-91l127 144h129z" />
    <glyph glyph-name="aeacute" unicode="&#x1fd;" horiz-adv-x="891" 
d="M449 416q26 35 73.5 58.5t104.5 23.5q97 0 152.5 -52.5t55.5 -145.5q0 -15 -2.5 -41t-8.5 -48h-366q-1 -5 -1.5 -8.5t-0.5 -6.5q0 -54 36 -85.5t89 -31.5q45 0 80 18.5t58 47.5l74 -61q-45 -50 -101.5 -74t-121.5 -24q-62 0 -111.5 27.5t-70.5 76.5q-26 -43 -76 -72
t-128 -29q-30 0 -60.5 6.5t-55 21.5t-40 39.5t-15.5 60.5q0 56 30.5 89.5t80 51.5t112 23.5t127.5 5.5q3 13 5 27t2 20q0 40 -25.5 56.5t-67.5 16.5q-38 0 -74.5 -14.5t-62.5 -36.5l-50 70q39 34 93.5 53t108.5 19q126 0 157 -82zM333 212q-43 0 -81 -3.5t-66.5 -12t-45 -24
t-16.5 -39.5q0 -35 25 -47.5t56 -12.5q60 0 98.5 33.5t47.5 87.5l3 18h-21zM726 287q1 6 1.5 13.5t0.5 12.5q0 43 -28 71t-81 28q-30 0 -55.5 -11t-45 -28.5t-32 -40t-18.5 -45.5h258zM503 573h-92l128 144h128z" />
    <glyph glyph-name="Oslashacute" unicode="&#x1fe;" horiz-adv-x="832" 
d="M739 606q29 -38 44 -84.5t15 -103.5q0 -90 -31.5 -169.5t-87 -139t-132 -93.5t-167.5 -34q-73 0 -132.5 21t-102.5 59l-95 -88l-45 47l96 89q-25 37 -38.5 82t-13.5 99q0 90 32 169.5t88 138.5t132.5 93t166.5 34q69 0 126 -19.5t101 -54.5l94 88l45 -47zM237 144
q25 -26 62 -40.5t85 -14.5q66 0 119 27t90.5 71.5t58 102t20.5 118.5q0 60 -28 110zM604 570q-26 23 -61 36.5t-80 13.5q-66 0 -120 -27t-91.5 -72t-58 -102.5t-20.5 -118.5q0 -57 25 -104zM478 815h-92l128 144h129z" />
    <glyph glyph-name="oslashacute" unicode="&#x1ff;" horiz-adv-x="612" 
d="M520 405q36 -50 36 -118q0 -62 -21 -116.5t-59 -95t-92.5 -64.5t-121.5 -24q-95 0 -158 51l-82 -71l-37 45l78 68q-17 24 -27 54.5t-10 65.5q0 60 21 114t59 95t92 65t120 24q49 0 89.5 -13.5t71.5 -37.5l79 69l39 -45zM185 114q14 -14 36 -22.5t49 -8.5q38 0 69.5 15.5
t54 41.5t34.5 60t12 72q0 32 -12 55zM395 374q-15 14 -35.5 21.5t-46.5 7.5q-38 0 -69 -15.5t-53.5 -41.5t-35 -60.5t-12.5 -71.5q0 -14 2.5 -28.5t8.5 -26.5zM370 591h-92l128 144h128z" />
    <glyph glyph-name="Adblgrave" unicode="&#x200;" horiz-adv-x="703" 
d="M72 0h-140l453 708h120l140 -708h-129l-31 162h-314zM228 264h243l-54 309zM361 927h128l105 -144h-91zM173 927h129l105 -144h-91z" />
    <glyph glyph-name="adblgrave" unicode="&#x201;" horiz-adv-x="547" 
d="M365 302q2 13 2.5 20t0.5 12q0 39 -24.5 56t-68.5 17q-37 0 -74 -14.5t-64 -36.5l-49 70q40 34 94 53t108 19q40 0 74.5 -9t60 -27t40 -46t14.5 -67q0 -11 -1.5 -27t-3.5 -29l-34 -192q-5 -26 -7.5 -54.5t-2.5 -46.5h-105q0 14 1.5 31t3.5 33h-2q-34 -40 -73 -57.5
t-92 -17.5q-25 0 -51.5 6.5t-48 21.5t-35.5 39t-14 60q0 58 31 94.5t81 57t113 27.5t126 7zM341 226q-37 0 -75 -3.5t-69.5 -13.5t-51.5 -28t-20 -47q0 -18 7 -30t18 -19t25.5 -10t29.5 -3q58 0 96.5 36t48.5 87l6 31h-15zM199 717h128l105 -144h-90zM11 717h129l105 -144
h-91z" />
    <glyph glyph-name="Ainvertedbreve" unicode="&#x202;" horiz-adv-x="703" 
d="M72 0h-140l453 708h120l140 -708h-129l-31 162h-314zM228 264h243l-54 309zM310 783q7 34 23.5 60t40 43t52.5 26t61 9q66 0 105.5 -32.5t39.5 -105.5h-64q0 37 -25.5 52t-58.5 15q-38 0 -69 -15t-40 -52h-65z" />
    <glyph glyph-name="ainvertedbreve" unicode="&#x203;" horiz-adv-x="547" 
d="M365 302q2 13 2.5 20t0.5 12q0 39 -24.5 56t-68.5 17q-37 0 -74 -14.5t-64 -36.5l-49 70q40 34 94 53t108 19q40 0 74.5 -9t60 -27t40 -46t14.5 -67q0 -11 -1.5 -27t-3.5 -29l-34 -192q-5 -26 -7.5 -54.5t-2.5 -46.5h-105q0 14 1.5 31t3.5 33h-2q-34 -40 -73 -57.5
t-92 -17.5q-25 0 -51.5 6.5t-48 21.5t-35.5 39t-14 60q0 58 31 94.5t81 57t113 27.5t126 7zM341 226q-37 0 -75 -3.5t-69.5 -13.5t-51.5 -28t-20 -47q0 -18 7 -30t18 -19t25.5 -10t29.5 -3q58 0 96.5 36t48.5 87l6 31h-15zM172 573q7 34 23.5 60t40 43t52.5 26t61 9
q66 0 106 -32.5t40 -105.5h-65q0 37 -25.5 51.5t-58.5 14.5q-38 0 -69 -14.5t-40 -51.5h-65z" />
    <glyph glyph-name="Edblgrave" unicode="&#x204;" 
d="M166 106h348l-18 -106h-468l125 708h440l-18 -106h-322l-33 -187h307l-18 -100h-307zM287 927h129l105 -144h-91zM100 927h128l105 -144h-90z" />
    <glyph glyph-name="edblgrave" unicode="&#x205;" horiz-adv-x="577" 
d="M140 211q-1 -5 -1.5 -8.5t-0.5 -6.5q0 -27 10.5 -48.5t28 -36.5t41 -23.5t49.5 -8.5q46 0 80.5 18.5t58.5 47.5l74 -61q-45 -50 -101.5 -74t-121.5 -24q-49 0 -91 14.5t-73 42t-49 67.5t-18 92q0 61 22 114.5t60 94t90.5 64t114.5 23.5q97 0 153 -52.5t56 -145.5
q0 -15 -3 -41t-9 -48h-370zM413 287q1 6 1 13.5v12.5q0 43 -27.5 71t-81.5 28q-32 0 -58 -11t-46 -28.5t-33 -40t-18 -45.5h263zM232 717h128l105 -144h-91zM44 717h129l104 -144h-90z" />
    <glyph glyph-name="Einvertedbreve" unicode="&#x206;" 
d="M166 106h348l-18 -106h-468l125 708h440l-18 -106h-322l-33 -187h307l-18 -100h-307zM244 783q7 34 23.5 60t40 43t52.5 26t61 9q66 0 105.5 -32.5t39.5 -105.5h-64q0 37 -25.5 52t-58.5 15q-38 0 -69 -15t-40 -52h-65z" />
    <glyph glyph-name="einvertedbreve" unicode="&#x207;" horiz-adv-x="577" 
d="M140 211q-1 -5 -1.5 -8.5t-0.5 -6.5q0 -27 10.5 -48.5t28 -36.5t41 -23.5t49.5 -8.5q46 0 80.5 18.5t58.5 47.5l74 -61q-45 -50 -101.5 -74t-121.5 -24q-49 0 -91 14.5t-73 42t-49 67.5t-18 92q0 61 22 114.5t60 94t90.5 64t114.5 23.5q97 0 153 -52.5t56 -145.5
q0 -15 -3 -41t-9 -48h-370zM413 287q1 6 1 13.5v12.5q0 43 -27.5 71t-81.5 28q-32 0 -58 -11t-46 -28.5t-33 -40t-18 -45.5h263zM213 573q14 69 63 103.5t114 34.5q66 0 105.5 -32.5t39.5 -105.5h-64q0 37 -26 51.5t-59 14.5q-38 0 -68.5 -14.5t-40.5 -51.5h-64z" />
    <glyph glyph-name="Idblgrave" unicode="&#x208;" horiz-adv-x="290" 
d="M151 0h-123l125 708h123zM134 927h129l105 -144h-91zM-53 927h128l105 -144h-90z" />
    <glyph glyph-name="idblgrave" unicode="&#x209;" horiz-adv-x="274" 
d="M140 0h-117l85 484h118zM97 703h128l105 -144h-91zM-91 703h129l104 -144h-90z" />
    <glyph glyph-name="Iinvertedbreve" unicode="&#x20a;" horiz-adv-x="290" 
d="M151 0h-123l125 708h123zM84 783q7 34 23.5 60t40 43t52.5 26t61 9q66 0 105.5 -32.5t39.5 -105.5h-64q0 37 -25.5 52t-58.5 15q-38 0 -69 -15t-40 -52h-65z" />
    <glyph glyph-name="iinvertedbreve" unicode="&#x20b;" horiz-adv-x="274" 
d="M140 0h-117l85 484h118zM35 559q14 69 62.5 104t113.5 35q66 0 106 -33t40 -106h-65q0 38 -25.5 52.5t-58.5 14.5q-38 0 -69 -15t-40 -52h-64z" />
    <glyph glyph-name="Odblgrave" unicode="&#x20c;" horiz-adv-x="832" 
d="M380 -18q-75 0 -136.5 22t-104.5 62.5t-66.5 97.5t-23.5 127q0 90 31.5 169.5t87 138.5t131.5 93t166 34q75 0 136 -22t104 -62.5t66.5 -97t23.5 -126.5q0 -90 -31 -169.5t-86 -139t-131 -93.5t-167 -34zM666 408q0 43 -13.5 81.5t-40 67t-65.5 45t-89 16.5
q-64 0 -116 -27t-88.5 -71t-56.5 -101t-20 -117q0 -44 13.5 -82t40 -66.5t65.5 -45t90 -16.5q64 0 116 26.5t88.5 70.5t56 101t19.5 118zM391 945h128l105 -144h-91zM203 945h129l105 -144h-91z" />
    <glyph glyph-name="odblgrave" unicode="&#x20d;" horiz-adv-x="612" 
d="M262 -13q-51 0 -94 15t-74.5 42.5t-49.5 67t-18 87.5q0 60 21 114.5t59 95.5t92 65t120 24q52 0 95.5 -15t75 -42.5t49.5 -66.5t18 -87q0 -62 -21 -116.5t-59 -95t-92.5 -64.5t-121.5 -24zM439 276q0 54 -33 89.5t-93 35.5q-38 0 -69 -15.5t-53 -41.5t-34.5 -60.5
t-12.5 -73.5q0 -54 32.5 -90t92.5 -36q38 0 69 15.5t53.5 41.5t35 61t12.5 74zM230 717h128l105 -144h-91zM42 717h129l105 -144h-91z" />
    <glyph glyph-name="Oinvertedbreve" unicode="&#x20e;" horiz-adv-x="832" 
d="M380 -18q-75 0 -136.5 22t-104.5 62.5t-66.5 97.5t-23.5 127q0 90 31.5 169.5t87 138.5t131.5 93t166 34q75 0 136 -22t104 -62.5t66.5 -97t23.5 -126.5q0 -90 -31 -169.5t-86 -139t-131 -93.5t-167 -34zM666 408q0 43 -13.5 81.5t-40 67t-65.5 45t-89 16.5
q-64 0 -116 -27t-88.5 -71t-56.5 -101t-20 -117q0 -44 13.5 -82t40 -66.5t65.5 -45t90 -16.5q64 0 116 26.5t88.5 70.5t56 101t19.5 118zM345 801q14 69 63 103.5t114 34.5q66 0 105.5 -32.5t39.5 -105.5h-64q0 37 -26 52t-59 15q-38 0 -68.5 -15t-39.5 -52h-65z" />
    <glyph glyph-name="oinvertedbreve" unicode="&#x20f;" horiz-adv-x="612" 
d="M262 -13q-51 0 -94 15t-74.5 42.5t-49.5 67t-18 87.5q0 60 21 114.5t59 95.5t92 65t120 24q52 0 95.5 -15t75 -42.5t49.5 -66.5t18 -87q0 -62 -21 -116.5t-59 -95t-92.5 -64.5t-121.5 -24zM439 276q0 54 -33 89.5t-93 35.5q-38 0 -69 -15.5t-53 -41.5t-34.5 -60.5
t-12.5 -73.5q0 -54 32.5 -90t92.5 -36q38 0 69 15.5t53.5 41.5t35 61t12.5 74zM198 573q7 34 23.5 60t40 43t52.5 26t61 9q66 0 105.5 -32.5t39.5 -105.5h-64q0 37 -25.5 51.5t-58.5 14.5q-38 0 -69 -14.5t-40 -51.5h-65z" />
    <glyph glyph-name="Rdblgrave" unicode="&#x210;" horiz-adv-x="630" 
d="M148 0h-120l125 708h219q53 0 96 -11.5t74 -34.5t47.5 -56.5t16.5 -76.5q0 -46 -14 -81.5t-39 -61.5t-60 -42.5t-76 -23.5l149 -320h-139l-132 306h-94zM218 398h98q34 0 64.5 5.5t53 18.5t35.5 35t13 55q0 51 -35.5 72.5t-98.5 21.5h-93zM260 927h128l105 -144h-91z
M72 927h129l105 -144h-91z" />
    <glyph glyph-name="rdblgrave" unicode="&#x211;" horiz-adv-x="365" 
d="M89 381q4 19 8.5 49t6.5 54h111q-1 -7 -2 -17t-2.5 -20.5l-3 -21l-2.5 -17.5h2q25 39 62 64t85 25q20 0 38 -5l-21 -106q-8 3 -20 4.5t-23 1.5q-31 0 -56 -11t-43 -30.5t-30 -45.5t-17 -56l-44 -249h-117zM149 716h129l105 -144h-91zM-38 716h128l105 -144h-90z" />
    <glyph glyph-name="Rinvertedbreve" unicode="&#x212;" horiz-adv-x="630" 
d="M148 0h-120l125 708h219q53 0 96 -11.5t74 -34.5t47.5 -56.5t16.5 -76.5q0 -46 -14 -81.5t-39 -61.5t-60 -42.5t-76 -23.5l149 -320h-139l-132 306h-94zM218 398h98q34 0 64.5 5.5t53 18.5t35.5 35t13 55q0 51 -35.5 72.5t-98.5 21.5h-93zM201 783q14 69 63 103.5
t114 34.5q66 0 105.5 -32.5t39.5 -105.5h-64q0 37 -25.5 52t-59.5 15q-38 0 -68.5 -15t-39.5 -52h-65z" />
    <glyph glyph-name="rinvertedbreve" unicode="&#x213;" horiz-adv-x="365" 
d="M89 381q4 19 8.5 49t6.5 54h111q-1 -7 -2 -17t-2.5 -20.5l-3 -21l-2.5 -17.5h2q25 39 62 64t85 25q20 0 38 -5l-21 -106q-8 3 -20 4.5t-23 1.5q-31 0 -56 -11t-43 -30.5t-30 -45.5t-17 -56l-44 -249h-117zM102 572q14 69 63 103.5t114 34.5q66 0 105.5 -32.5t39.5 -105.5
h-64q0 37 -26 51.5t-59 14.5q-38 0 -68.5 -14.5t-40.5 -51.5h-64z" />
    <glyph glyph-name="Udblgrave" unicode="&#x214;" horiz-adv-x="725" 
d="M322 -18q-64 0 -112.5 17t-81 46.5t-49 69t-16.5 85.5q0 34 6 64l78 444h122l-77 -432q-2 -13 -3 -26t-1 -24q0 -27 7.5 -52t24 -44t43 -30t65.5 -11q48 0 81.5 16t55 42t34 59.5t18.5 68.5l77 433h121l-78 -446q-9 -54 -31.5 -104.5t-60 -89.5t-93 -62.5t-130.5 -23.5z
M338 927h128l105 -144h-90zM151 927h128l105 -144h-91z" />
    <glyph glyph-name="udblgrave" unicode="&#x215;" horiz-adv-x="597" 
d="M349 0q2 15 5 38t5 38h-3q-25 -39 -66 -64t-92 -25q-79 0 -119 42.5t-40 105.5q0 13 1 25.5t4 26.5l52 297h118l-47 -265q-5 -28 -5 -50q0 -32 13 -54t48 -27q24 -3 50 5q37 8 67 42t41 94l45 255h118l-68 -381q-4 -19 -8.5 -49t-6.5 -54h-112zM233 703h129l105 -144h-91
zM46 703h129l104 -144h-90z" />
    <glyph glyph-name="Uinvertedbreve" unicode="&#x216;" horiz-adv-x="725" 
d="M322 -18q-64 0 -112.5 17t-81 46.5t-49 69t-16.5 85.5q0 34 6 64l78 444h122l-77 -432q-2 -13 -3 -26t-1 -24q0 -27 7.5 -52t24 -44t43 -30t65.5 -11q48 0 81.5 16t55 42t34 59.5t18.5 68.5l77 433h121l-78 -446q-9 -54 -31.5 -104.5t-60 -89.5t-93 -62.5t-130.5 -23.5z
M281 783q14 69 63 103.5t114 34.5q66 0 105.5 -32.5t39.5 -105.5h-64q0 37 -26 52t-59 15q-38 0 -68.5 -15t-39.5 -52h-65z" />
    <glyph glyph-name="uinvertedbreve" unicode="&#x217;" horiz-adv-x="597" 
d="M349 0q2 15 5 38t5 38h-3q-25 -39 -66 -64t-92 -25q-79 0 -119 42.5t-40 105.5q0 13 1 25.5t4 26.5l52 297h118l-47 -265q-5 -28 -5 -50q0 -32 13 -54t48 -27q24 -3 50 5q37 8 67 42t41 94l45 255h118l-68 -381q-4 -19 -8.5 -49t-6.5 -54h-112zM182 559q14 69 63 104
t114 35q66 0 105.5 -33t39.5 -106h-64q0 38 -26 52.5t-59 14.5q-38 0 -68.5 -15t-39.5 -52h-65z" />
    <glyph glyph-name="Scommaaccent" unicode="&#x218;" horiz-adv-x="574" 
d="M471 562q-20 32 -52.5 47t-70.5 15q-19 0 -42 -6t-42.5 -18.5t-32.5 -33.5t-13 -51q0 -38 26.5 -59t71.5 -38q93 -34 143 -81.5t50 -128.5q0 -61 -24 -104t-63 -70t-88 -39.5t-99 -12.5q-35 0 -70.5 7t-67.5 21t-59.5 35.5t-46.5 51.5l100 69q20 -35 60.5 -57.5
t89.5 -22.5q25 0 49.5 6t44 19.5t32 35t12.5 53.5q0 24 -10.5 42.5t-28 32.5t-40.5 25t-49 20q-32 12 -60.5 27t-50.5 36.5t-34.5 51.5t-12.5 71q0 53 22.5 94t59.5 69t85.5 42.5t100.5 14.5q27 0 55.5 -6t55 -17.5t50 -28.5t39.5 -40zM166 -240h-98l107 195h114z" />
    <glyph glyph-name="scommaaccent" unicode="&#x219;" horiz-adv-x="444" 
d="M67 138q15 -29 44.5 -44.5t65.5 -15.5q41 0 65.5 16t24.5 44q0 26 -19.5 38.5t-62.5 26.5q-34 11 -59.5 22.5t-42.5 27t-25.5 35.5t-8.5 47q0 35 16 64t44 50t66 32.5t83 11.5q56 0 101.5 -20.5t71.5 -62.5l-91 -54q-13 20 -34 33.5t-57 13.5q-15 0 -30.5 -3t-27.5 -9.5
t-19.5 -17.5t-7.5 -27q0 -23 19.5 -34t57.5 -22q67 -19 104 -51.5t37 -92.5q0 -40 -17 -70.5t-45.5 -51.5t-66 -31.5t-79.5 -10.5q-78 0 -125.5 27.5t-72.5 68.5zM90 -240h-98l107 195h114z" />
    <glyph glyph-name="uni021A" unicode="&#x21a;" horiz-adv-x="533" 
d="M380 600l-106 -600h-123l105 600h-210l19 108h542l-19 -108h-208zM147 -240h-98l107 195h114z" />
    <glyph glyph-name="uni021B" unicode="&#x21b;" horiz-adv-x="340" 
d="M19 385l17 95h83l24 140h116l-24 -140h108l-17 -95h-106l-42 -226q-3 -15 -3 -28q0 -26 15.5 -36t41.5 -10q12 0 23.5 2t21.5 5l-7 -89q-15 -6 -35.5 -9.5t-37.5 -3.5q-76 0 -108 30.5t-32 80.5q0 14 1.5 30.5t4.5 30.5l41 223h-85zM73 -240h-98l107 195h114z" />
    <glyph glyph-name="Hcaron" unicode="&#x21e;" horiz-adv-x="734" 
d="M153 708h122l-51 -287h323l50 287h123l-125 -708h-122l55 315h-322l-56 -315h-122zM493 783h-116l-91 144h97l59 -95l92 95h100z" />
    <glyph glyph-name="hcaron" unicode="&#x21f;" horiz-adv-x="598" 
d="M367 497q80 0 120 -42t40 -106q0 -13 -1.5 -25.5t-3.5 -26.5l-53 -297h-117l46 265q6 25 6 50q0 30 -12.5 51.5t-43.5 27.5q-13 2 -27.5 2t-28.5 -4q-43 -12 -72.5 -55t-40.5 -111l-40 -226h-117l133 756h118l-61 -342h2q24 35 63.5 59t89.5 24zM278 831h-115l-91 144h97
l58 -95l92 95h100z" />
    <glyph glyph-name="Adotaccent" unicode="&#x226;" horiz-adv-x="703" 
d="M72 0h-140l453 708h120l140 -708h-129l-31 162h-314zM228 264h243l-54 309zM534 854q0 -29 -20 -50t-50 -21q-27 0 -46 17t-19 45q0 30 21 50.5t50 20.5q27 0 45.5 -17.5t18.5 -44.5z" />
    <glyph glyph-name="adotaccent" unicode="&#x227;" horiz-adv-x="547" 
d="M365 302q2 13 2.5 20t0.5 12q0 39 -24.5 56t-68.5 17q-37 0 -74 -14.5t-64 -36.5l-49 70q40 34 94 53t108 19q40 0 74.5 -9t60 -27t40 -46t14.5 -67q0 -11 -1.5 -27t-3.5 -29l-34 -192q-5 -26 -7.5 -54.5t-2.5 -46.5h-105q0 14 1.5 31t3.5 33h-2q-34 -40 -73 -57.5
t-92 -17.5q-25 0 -51.5 6.5t-48 21.5t-35.5 39t-14 60q0 58 31 94.5t81 57t113 27.5t126 7zM341 226q-37 0 -75 -3.5t-69.5 -13.5t-51.5 -28t-20 -47q0 -18 7 -30t18 -19t25.5 -10t29.5 -3q58 0 96.5 36t48.5 87l6 31h-15zM384 643q0 -29 -19.5 -49.5t-49.5 -20.5
q-28 0 -46.5 16.5t-18.5 45.5q0 30 20.5 50.5t49.5 20.5q28 0 46 -17.5t18 -45.5z" />
    <glyph glyph-name="Ecedilla" unicode="&#x228;" 
d="M166 106h348l-18 -106h-169l-59 -67q7 2 12.5 2h11.5q13 0 27.5 -3.5t26.5 -12t20 -22t8 -33.5q0 -28 -13 -47t-33 -30.5t-44.5 -16.5t-46.5 -5q-26 0 -57.5 6t-51.5 16l26 49q17 -8 37.5 -12t39.5 -4q10 0 20.5 1.5t19.5 6t14.5 11.5t5.5 19q0 19 -14 26t-31 7
q-10 0 -21 -1.5t-22 -5.5l-20 23l81 93h-236l125 708h440l-18 -106h-322l-33 -187h307l-18 -100h-307z" />
    <glyph glyph-name="ecedilla" unicode="&#x229;" horiz-adv-x="577" 
d="M140 211q-1 -5 -1.5 -8.5t-0.5 -6.5q0 -26 10.5 -47.5t28 -37t41 -24t49.5 -8.5q46 0 80.5 18.5t58.5 47.5l74 -61q-41 -45 -90.5 -68.5t-106.5 -28.5l-57 -68q12 3 24 3q13 0 27.5 -3.5t26.5 -12t20 -22t8 -34.5q0 -28 -13 -47t-33 -30.5t-44.5 -16.5t-46.5 -5
q-26 0 -57.5 6t-52.5 17l27 48q17 -8 37.5 -12t39.5 -4q10 0 20.5 1.5t19.5 6t14.5 12t5.5 18.5q0 19 -14 26.5t-31 7.5q-10 0 -21 -2t-22 -5l-20 22l80 96q-42 4 -77.5 20.5t-62 43.5t-41 64.5t-14.5 84.5q0 61 22 114.5t60 94t90.5 64t114.5 23.5q97 0 153 -52.5
t56 -145.5q0 -15 -3 -41t-9 -48h-370zM413 287q1 6 1 13.5v12.5q0 43 -27.5 71t-81.5 28q-32 0 -58 -11t-46 -28.5t-33 -40t-18 -45.5h263z" />
    <glyph glyph-name="Odieresismacron" unicode="&#x22a;" horiz-adv-x="832" 
d="M380 -18q-75 0 -136.5 22t-104.5 62.5t-66.5 97.5t-23.5 127q0 90 31.5 169.5t87 138.5t131.5 93t166 34q75 0 136 -22t104 -62.5t66.5 -97t23.5 -126.5q0 -90 -31 -169.5t-86 -139t-131 -93.5t-167 -34zM666 408q0 43 -13.5 81.5t-40 67t-65.5 45t-89 16.5
q-64 0 -116 -27t-88.5 -71t-56.5 -101t-20 -117q0 -44 13.5 -82t40 -66.5t65.5 -45t90 -16.5q64 0 116 26.5t88.5 70.5t56 101t19.5 118zM447 870q0 -28 -19 -48.5t-48 -20.5q-28 0 -46 16.5t-18 44.5q0 30 20 50t49 20q27 0 44.5 -17.5t17.5 -44.5zM657 870
q-1 -28 -20 -48.5t-48 -20.5q-27 0 -45.5 16.5t-18.5 44.5q0 30 20 50t49 20q27 0 45 -17.5t18 -44.5zM655 1007h-304l12 70h304z" />
    <glyph glyph-name="odieresismacron" unicode="&#x22b;" horiz-adv-x="612" 
d="M262 -13q-51 0 -94 15t-74.5 42.5t-49.5 67t-18 87.5q0 60 21 114.5t59 95.5t92 65t120 24q52 0 95.5 -15t75 -42.5t49.5 -66.5t18 -87q0 -62 -21 -116.5t-59 -95t-92.5 -64.5t-121.5 -24zM439 276q0 54 -33 89.5t-93 35.5q-38 0 -69 -15.5t-53 -41.5t-34.5 -60.5
t-12.5 -73.5q0 -54 32.5 -90t92.5 -36q38 0 69 15.5t53.5 41.5t35 61t12.5 74zM293 642q0 -29 -19.5 -49t-48.5 -20q-28 0 -46 16.5t-18 44.5q0 30 20 50t49 20q27 0 45 -17.5t18 -44.5zM502 642q0 -29 -19.5 -49t-48.5 -20q-27 0 -45.5 16.5t-18.5 44.5q0 30 20 50t49 20
q27 0 45 -17.5t18 -44.5zM483 779h-304l11 70h305z" />
    <glyph glyph-name="Otildemacron" unicode="&#x22c;" horiz-adv-x="832" 
d="M380 -18q-75 0 -136.5 22t-104.5 62.5t-66.5 97.5t-23.5 127q0 90 31.5 169.5t87 138.5t131.5 93t166 34q75 0 136 -22t104 -62.5t66.5 -97t23.5 -126.5q0 -90 -31 -169.5t-86 -139t-131 -93.5t-167 -34zM666 408q0 43 -13.5 81.5t-40 67t-65.5 45t-89 16.5
q-64 0 -116 -27t-88.5 -71t-56.5 -101t-20 -117q0 -44 13.5 -82t40 -66.5t65.5 -45t90 -16.5q64 0 116 26.5t88.5 70.5t56 101t19.5 118zM291 801q7 23 18 44t26 37.5t35 26t45 9.5q19 0 37.5 -6.5t35.5 -14.5t32.5 -14.5t29.5 -6.5q21 0 33 13.5t20 32.5h59
q-8 -23 -19 -44.5t-26 -38t-35 -26.5t-45 -10q-20 0 -38 7t-35 15t-32.5 15t-29.5 7q-20 0 -32.5 -14.5t-20.5 -31.5h-58zM633 997h-304l12 70h304z" />
    <glyph glyph-name="otildemacron" unicode="&#x22d;" horiz-adv-x="612" 
d="M262 -13q-51 0 -94 15t-74.5 42.5t-49.5 67t-18 87.5q0 60 21 114.5t59 95.5t92 65t120 24q52 0 95.5 -15t75 -42.5t49.5 -66.5t18 -87q0 -62 -21 -116.5t-59 -95t-92.5 -64.5t-121.5 -24zM439 276q0 54 -33 89.5t-93 35.5q-38 0 -69 -15.5t-53 -41.5t-34.5 -60.5
t-12.5 -73.5q0 -54 32.5 -90t92.5 -36q38 0 69 15.5t53.5 41.5t35 61t12.5 74zM143 573q7 23 18 44t26 37.5t35 26t45 9.5q19 0 37.5 -6.5t35.5 -14.5t32.5 -14.5t29.5 -6.5q21 0 33 13.5t20 32.5h59q-8 -23 -19 -44.5t-26 -38t-35 -26.5t-45 -10q-20 0 -38 6.5t-35 15
t-32.5 15t-29.5 6.5q-20 0 -32.5 -14t-20.5 -31h-58zM480 769h-304l11 70h305z" />
    <glyph glyph-name="Odotaccent" unicode="&#x22e;" horiz-adv-x="832" 
d="M380 -18q-75 0 -136.5 22t-104.5 62.5t-66.5 97.5t-23.5 127q0 90 31.5 169.5t87 138.5t131.5 93t166 34q75 0 136 -22t104 -62.5t66.5 -97t23.5 -126.5q0 -90 -31 -169.5t-86 -139t-131 -93.5t-167 -34zM666 408q0 43 -13.5 81.5t-40 67t-65.5 45t-89 16.5
q-64 0 -116 -27t-88.5 -71t-56.5 -101t-20 -117q0 -44 13.5 -82t40 -66.5t65.5 -45t90 -16.5q64 0 116 26.5t88.5 70.5t56 101t19.5 118zM557 872q0 -29 -19.5 -50t-49.5 -21q-28 0 -46.5 17t-18.5 45q0 30 20.5 50.5t49.5 20.5q28 0 46 -17.5t18 -44.5z" />
    <glyph glyph-name="odotaccent" unicode="&#x22f;" horiz-adv-x="612" 
d="M262 -13q-51 0 -94 15t-74.5 42.5t-49.5 67t-18 87.5q0 60 21 114.5t59 95.5t92 65t120 24q52 0 95.5 -15t75 -42.5t49.5 -66.5t18 -87q0 -62 -21 -116.5t-59 -95t-92.5 -64.5t-121.5 -24zM439 276q0 54 -33 89.5t-93 35.5q-38 0 -69 -15.5t-53 -41.5t-34.5 -60.5
t-12.5 -73.5q0 -54 32.5 -90t92.5 -36q38 0 69 15.5t53.5 41.5t35 61t12.5 74zM415 643q0 -29 -19.5 -49.5t-49.5 -20.5q-28 0 -46.5 16.5t-18.5 45.5q0 30 20.5 50.5t49.5 20.5q28 0 46 -17.5t18 -45.5z" />
    <glyph glyph-name="Odotaccentmacron" unicode="&#x230;" horiz-adv-x="832" 
d="M380 -18q-75 0 -136.5 22t-104.5 62.5t-66.5 97.5t-23.5 127q0 90 31.5 169.5t87 138.5t131.5 93t166 34q75 0 136 -22t104 -62.5t66.5 -97t23.5 -126.5q0 -90 -31 -169.5t-86 -139t-131 -93.5t-167 -34zM666 408q0 43 -13.5 81.5t-40 67t-65.5 45t-89 16.5
q-64 0 -116 -27t-88.5 -71t-56.5 -101t-20 -117q0 -44 13.5 -82t40 -66.5t65.5 -45t90 -16.5q64 0 116 26.5t88.5 70.5t56 101t19.5 118zM559 872q0 -29 -20 -50t-49 -21q-28 0 -47 17t-19 45q0 30 21 50.5t50 20.5q27 0 45.5 -17.5t18.5 -44.5zM662 1009h-304l12 70h304z
" />
    <glyph glyph-name="odotaccentmacron" unicode="&#x231;" horiz-adv-x="612" 
d="M262 -13q-51 0 -94 15t-74.5 42.5t-49.5 67t-18 87.5q0 60 21 114.5t59 95.5t92 65t120 24q52 0 95.5 -15t75 -42.5t49.5 -66.5t18 -87q0 -62 -21 -116.5t-59 -95t-92.5 -64.5t-121.5 -24zM439 276q0 54 -33 89.5t-93 35.5q-38 0 -69 -15.5t-53 -41.5t-34.5 -60.5
t-12.5 -73.5q0 -54 32.5 -90t92.5 -36q38 0 69 15.5t53.5 41.5t35 61t12.5 74zM398 643q0 -29 -20 -49.5t-49 -20.5q-28 0 -47 16.5t-19 45.5q0 30 21 50.5t50 20.5q27 0 45.5 -17.5t18.5 -45.5zM497 781h-304l11 70h305z" />
    <glyph glyph-name="Ymacron" unicode="&#x232;" horiz-adv-x="587" 
d="M291 0h-122l53 303l-180 405h139l119 -303l240 303h150l-345 -405zM512 783h-304l12 70h304z" />
    <glyph glyph-name="ymacron" unicode="&#x233;" horiz-adv-x="522" 
d="M226 127h2l194 357h126l-321 -550q-23 -39 -44 -71.5t-45 -55t-53 -35t-69 -12.5t-71 9l18 99q22 -8 45 -8q34 0 55.5 19.5t41.5 54.5l40 68l-107 482h126zM447 559h-304l11 70h305z" />
    <glyph glyph-name="commaturnedmod" unicode="&#x2bb;" horiz-adv-x="261" 
d="M198 708h92l-114 -254h-109z" />
    <glyph glyph-name="afii57929" unicode="&#x2bc;" horiz-adv-x="261" 
d="M159 454h-92l114 254h109z" />
    <glyph glyph-name="circumflex" unicode="&#x2c6;" horiz-adv-x="260" 
d="M247 564l-54 91l-86 -91h-112l140 144h132l88 -144h-108z" />
    <glyph glyph-name="caron" unicode="&#x2c7;" horiz-adv-x="260" 
d="M240 564h-131l-88 144h109l53 -91l86 91h111z" />
    <glyph glyph-name="uni02C9" unicode="&#x2c9;" horiz-adv-x="260" 
d="M22 795l13 77h318l-14 -77h-317z" />
    <glyph glyph-name="breve" unicode="&#x2d8;" horiz-adv-x="260" 
d="M369 708q-18 -73 -67 -108t-120 -35t-111 34t-40 109h66q0 -38 27 -52.5t65 -14.5q42 0 71.5 12.5t43.5 54.5h65v0z" />
    <glyph glyph-name="dotaccent" unicode="&#x2d9;" horiz-adv-x="260" 
d="M262 645q0 -29 -20.5 -51t-50.5 -22q-29 0 -49.5 18t-20.5 51q0 32 22 52.5t51 20.5t48.5 -18.5t19.5 -50.5z" />
    <glyph glyph-name="ring" unicode="&#x2da;" horiz-adv-x="260" 
d="M180 553q-40 0 -65 24.5t-25 61.5q0 24 8.5 45.5t24 37.5t36.5 25t46 9q40 0 64.5 -24t24.5 -61q0 -51 -32 -84.5t-82 -33.5zM245 662q0 20 -12 35t-33 15q-27 0 -44 -19t-17 -48q0 -20 11.5 -34t32.5 -14q28 0 45 18.5t17 46.5z" />
    <glyph glyph-name="ogonek" unicode="&#x2db;" horiz-adv-x="260" 
d="M114 -195q-24 -17 -50 -27.5t-56 -10.5q-40 0 -63.5 19.5t-23.5 60.5q0 23 12 45.5t30 42.5t40.5 38t43.5 33h60q-18 -14 -36.5 -30.5t-33.5 -34.5t-25 -37t-10 -37q0 -35 40 -35q15 0 29.5 6t26.5 15l16 -48v0z" />
    <glyph glyph-name="tilde" unicode="&#x2dc;" horiz-adv-x="260" 
d="M-7 568q8 24 19.5 46.5t28 40t38 28t49.5 10.5q20 0 39 -5t36 -13t32.5 -13.5t29.5 -5.5q20 0 32.5 13.5t20.5 30.5h66q-8 -24 -19.5 -46.5t-27.5 -40t-37.5 -28t-49.5 -10.5q-19 0 -36 4.5t-33 12.5q-19 9 -36 15t-32 6q-20 0 -33 -14t-21 -31h-66z" />
    <glyph glyph-name="hungarumlaut" unicode="&#x2dd;" horiz-adv-x="260" 
d="M320 564h-93l125 144h134zM115 564h-92l124 144h134z" />
    <glyph glyph-name="uni02EE" unicode="&#x2ee;" horiz-adv-x="448" 
d="M346 454h-92l115 254h109zM159 454h-92l115 254h107z" />
    <glyph glyph-name="gravecmb" unicode="&#x300;" horiz-adv-x="0" 
d="M-272 712h128l105 -144h-91z" />
    <glyph glyph-name="acutecmb" unicode="&#x301;" horiz-adv-x="0" 
d="M-181 568h-91l127 144h129z" />
    <glyph glyph-name="circumflexcmb" unicode="&#x302;" horiz-adv-x="0" 
d="M75 568h-96l-59 94l-92 -94h-100l142 144h115z" />
    <glyph glyph-name="tildecmb" unicode="&#x303;" horiz-adv-x="0" 
d="M-272 576q7 23 18 44t26 37.5t35 26t45 9.5q19 0 37.5 -6.5t35.5 -14.5t32.5 -14.5t29.5 -6.5q21 0 33 13.5t20 32.5h58q-8 -23 -19 -44.5t-26 -38t-34.5 -26.5t-44.5 -10q-20 0 -38 7t-35 15t-32.5 15t-29.5 7q-21 0 -33 -14.5t-20 -31.5h-58z" />
    <glyph glyph-name="macroncmb" unicode="&#x304;" horiz-adv-x="0" 
d="M32 601h-304l11 70h305z" />
    <glyph glyph-name="brevecmb" unicode="&#x306;" horiz-adv-x="0" 
d="M50 712q-7 -34 -23.5 -60t-40 -43t-52.5 -26t-61 -9q-66 0 -105.5 32.5t-39.5 105.5h64q0 -38 25.5 -52t58.5 -14q38 0 69 14.5t40 51.5h65z" />
    <glyph glyph-name="dotaccentcmb" unicode="&#x307;" horiz-adv-x="0" 
d="M-138 657q0 -29 -19.5 -50t-49.5 -21q-28 0 -46.5 17t-18.5 45q0 31 20.5 51t49.5 20q28 0 46 -17.5t18 -44.5z" />
    <glyph glyph-name="dieresiscmb" unicode="&#x308;" horiz-adv-x="0" 
d="M-141 657q0 -29 -19 -49t-48 -20q-28 0 -46 16.5t-18 44.5q0 29 20 49.5t48 20.5t45.5 -17.5t17.5 -44.5zM69 657q0 -29 -19.5 -49t-48.5 -20q-28 0 -46 16.5t-18 44.5q0 29 20 49.5t49 20.5q27 0 45 -17.5t18 -44.5z" />
    <glyph glyph-name="hookabovecomb" unicode="&#x309;" horiz-adv-x="260" 
d="M74 555q5 26 17.5 42.5t44.5 32.5q35 17 35 42q0 26 -30 26q-19 0 -31 -10.5t-20 -35.5l-80 10q15 48 50 72t83 24q54 0 81.5 -22t27.5 -59q0 -32 -18.5 -53t-48.5 -33q-18 -8 -26 -16.5t-10 -19.5h-75z" />
    <glyph glyph-name="ringcmb" unicode="&#x30a;" horiz-adv-x="0" 
d="M-183 556q-40 0 -64.5 23.5t-24.5 60.5q0 24 8.5 45.5t23.5 37.5t36 25.5t46 9.5q39 0 64 -23t25 -60q0 -25 -8.5 -46.5t-23.5 -37.5t-36 -25.5t-46 -9.5zM-111 670q0 21 -14 36t-37 15q-29 0 -48.5 -22.5t-19.5 -53.5q0 -22 13.5 -36.5t36.5 -14.5q30 0 49.5 22t19.5 54
z" />
    <glyph glyph-name="hungarumlautcmb" unicode="&#x30b;" horiz-adv-x="0" 
d="M-180 568h-92l127 144h131zM17 568h-92l127 144h130z" />
    <glyph glyph-name="caroncmb" unicode="&#x30c;" horiz-adv-x="0" 
d="M-66 568h-115l-91 144h97l58 -94l92 94h100z" />
    <glyph glyph-name="doublegravecmb" unicode="&#x30f;" horiz-adv-x="0" 
d="M-272 712h128l105 -144h-91zM-460 712h129l105 -144h-91z" />
    <glyph glyph-name="invertedbrevecmb" unicode="&#x311;" horiz-adv-x="0" 
d="M-322 574q14 69 63 103.5t113 34.5q66 0 106 -32.5t40 -105.5h-65q0 37 -25.5 51.5t-58.5 14.5q-38 0 -68.5 -14.5t-40.5 -51.5h-64z" />
    <glyph glyph-name="horncmb" unicode="&#x31b;" horiz-adv-x="0" 
d="M-214 484q41 0 65 24t24 67q0 24 -7 43l92 22q9 -24 9 -59q0 -33 -9.5 -61.5t-29 -50.5t-48.5 -34.5t-69 -12.5q-34 0 -60 5t-45.5 12t-31.5 14t-17 12q-9 13 -9 19h136z" />
    <glyph glyph-name="dotbelowcmb" unicode="&#x323;" horiz-adv-x="0" 
d="M-129 -141q0 -32 -22.5 -56t-56.5 -24q-32 0 -53 19t-21 51q0 35 23.5 58t56.5 23q32 0 52.5 -19.5t20.5 -51.5z" />
    <glyph glyph-name="dieresisbelowcmb" unicode="&#x324;" horiz-adv-x="0" 
d="M-141 -132q0 -28 -19 -48.5t-48 -20.5q-28 0 -46 17t-18 44q0 30 20 50t48 20t45.5 -17t17.5 -45zM69 -132q0 -28 -19.5 -48.5t-48.5 -20.5q-28 0 -46 17t-18 44q0 30 20 50t49 20q27 0 45 -17t18 -45z" />
    <glyph glyph-name="ringbelowcmb" unicode="&#x325;" horiz-adv-x="0" 
d="M-183 -273q-40 0 -64.5 24t-24.5 61q0 24 8.5 45.5t23.5 37.5t36 25.5t46 9.5q39 0 64 -23.5t25 -60.5q0 -25 -8.5 -46.5t-23.5 -37.5t-36 -25.5t-46 -9.5zM-111 -159q0 21 -14 36t-37 15q-29 0 -48.5 -22t-19.5 -54q0 -22 13.5 -36.5t36.5 -14.5q30 0 49.5 22.5
t19.5 53.5z" />
    <glyph glyph-name="commabelowcmb" unicode="&#x326;" horiz-adv-x="0" 
d="M-185 -330h-97l117 260h116z" />
    <glyph glyph-name="cedillacmb" unicode="&#x327;" horiz-adv-x="0" 
d="M-132 -67q7 2 12.5 2h11.5q13 0 27.5 -3.5t26.5 -12t20 -22t8 -33.5q0 -28 -13 -47t-33 -30.5t-44.5 -16.5t-46.5 -5q-26 0 -57.5 6t-51.5 16l26 49q17 -8 37.5 -12t39.5 -4q10 0 20.5 1.5t19.5 6t14.5 11.5t5.5 19q0 19 -14 26t-31 7q-10 0 -21 -1.5t-22 -5.5l-20 23
l81 93h63z" />
    <glyph glyph-name="ogonekcmb" unicode="&#x328;" horiz-adv-x="0" 
d="M-78 -192q-23 -17 -50 -27.5t-56 -10.5q-35 0 -61.5 17.5t-26.5 59.5q0 24 11.5 46.5t29.5 42t39.5 36t41.5 30.5h70q-46 -35 -77 -69t-31 -63q0 -17 11 -24t26 -7q14 0 29 5.5t27 14.5z" />
    <glyph glyph-name="circumflexbelowcmb" unicode="&#x32d;" horiz-adv-x="0" 
d="M75 -214h-96l-59 94l-92 -94h-100l142 144h115z" />
    <glyph glyph-name="brevebelowcmb" unicode="&#x32e;" horiz-adv-x="0" 
d="M50 -70q-7 -35 -23.5 -60.5t-40 -43t-52.5 -26t-61 -8.5q-66 0 -105.5 32.5t-39.5 105.5h64q0 -38 25.5 -52.5t58.5 -14.5q38 0 69 15t40 52h65z" />
    <glyph glyph-name="tildebelowcmb" unicode="&#x330;" horiz-adv-x="0" 
d="M-272 -191q7 23 18 44t26 37.5t35 26.5t45 10q19 0 37.5 -6.5t35.5 -15t32.5 -15t29.5 -6.5q21 0 33 13.5t20 32.5h58q-8 -23 -19 -44.5t-26 -38t-34.5 -26.5t-44.5 -10q-20 0 -38 7t-35 15t-32.5 15t-29.5 7q-21 0 -33 -14.5t-20 -31.5h-58z" />
    <glyph glyph-name="macronbelowcmb" unicode="&#x331;" horiz-adv-x="0" 
d="M32 -140h-304l11 70h305z" />
    <glyph glyph-name="gravetonecmb" unicode="&#x340;" horiz-adv-x="0" 
d="M-272 712h128l105 -144h-91z" />
    <glyph glyph-name="acutetonecmb" unicode="&#x341;" horiz-adv-x="0" 
d="M-181 568h-91l127 144h129z" />
    <glyph glyph-name="dialytikatonoscmb" unicode="&#x344;" horiz-adv-x="0" 
d="M-141 657q0 -29 -19 -49t-48 -20q-28 0 -46 16.5t-18 44.5q0 29 20 49.5t48 20.5t45.5 -17.5t17.5 -44.5zM69 657q0 -29 -19.5 -49t-48.5 -20q-28 0 -46 16.5t-18 44.5q0 29 20 49.5t49 20.5q27 0 45 -17.5t18 -44.5zM-79 794h-92l128 144h128z" />
    <glyph glyph-name="combininggraphemejoiner" unicode="&#x34f;" horiz-adv-x="500" 
 />
    <glyph glyph-name="uni037E" unicode="&#x37e;" horiz-adv-x="300" 
d="M67 -127h-104l116 263h119zM239 413q0 -31 -21.5 -53.5t-52.5 -22.5q-30 0 -51.5 18.5t-21.5 53.5q0 33 23 54.5t53 21.5t50.5 -19.5t20.5 -52.5z" />
    <glyph glyph-name="u0384" unicode="&#x384;" horiz-adv-x="260" 
d="M204 744h99l-45 -200h-78z" />
    <glyph glyph-name="u0385" unicode="&#x385;" horiz-adv-x="240" 
d="M17 594q4 21 22 37.5t42 16.5q23 0 36 -16.5t9 -37.5t-22.5 -38t-42.5 -17q-23 0 -35.5 17t-8.5 38zM315 594q4 21 22.5 37.5t41.5 16.5t36 -16.5t9 -37.5t-22.5 -38t-41.5 -17q-24 0 -36.5 17t-8.5 38zM206 757h88l-48 -214h-67z" />
    <glyph glyph-name="u0386" unicode="&#x386;" horiz-adv-x="716" 
d="M117 763h99l-45 -200h-78zM72 0h-140l453 708h120l140 -708h-129l-31 162h-314zM228 264h243l-54 309z" />
    <glyph glyph-name="anoteleia" unicode="&#x387;" horiz-adv-x="282" 
d="M217 307q0 -32 -22.5 -55.5t-55.5 -23.5q-32 0 -53 19t-21 50q0 35 23 58t56 23q32 0 52.5 -19.5t20.5 -51.5z" />
    <glyph glyph-name="u0388" unicode="&#x388;" horiz-adv-x="681" 
d="M77 763h99l-45 -200h-78zM253 106h348l-18 -106h-468l125 708h440l-19 -106h-321l-33 -187h307l-18 -100h-307z" />
    <glyph glyph-name="u0389" unicode="&#x389;" horiz-adv-x="824" 
d="M76 763h100l-45 -200h-79zM239 708h122l-51 -287h322l51 287h123l-125 -708h-122l55 315h-322l-56 -315h-122z" />
    <glyph glyph-name="u038A" unicode="&#x38a;" horiz-adv-x="377" 
d="M76 763h100l-45 -200h-78zM237 0h-123l125 708h123z" />
    <glyph glyph-name="u038C" unicode="&#x38c;" horiz-adv-x="925" 
d="M78 763h100l-45 -200h-78zM472 -18q-75 0 -136.5 22t-104.5 62.5t-66.5 97.5t-23.5 127q0 90 31.5 169.5t87 138.5t132 93t165.5 34q75 0 136 -22t104 -62.5t66.5 -97t23.5 -126.5q0 -90 -31 -169.5t-86 -139t-131 -93.5t-167 -34zM759 408q0 43 -13.5 81.5t-40 67
t-65.5 45t-90 16.5q-64 0 -116 -27t-88.5 -71t-56 -101t-19.5 -117q0 -44 13.5 -82t40 -66.5t65.5 -45t90 -16.5q64 0 116 26.5t88.5 70.5t56 101t19.5 118z" />
    <glyph glyph-name="u038E" unicode="&#x38e;" horiz-adv-x="745" 
d="M64 763h99l-45 -200h-78zM449 0h-122l53 303l-180 405h139l119 -303l240 303h150l-345 -405z" />
    <glyph glyph-name="u038F" unicode="&#x38f;" horiz-adv-x="910" 
d="M77 763h100l-45 -200h-78zM498 0l34 193q84 20 138.5 71.5t69.5 137.5q9 51 0 90.5t-33 66t-62 40.5t-87 14t-93 -14t-78.5 -40.5t-58 -66t-32.5 -90.5q-15 -89 25.5 -143t116.5 -65l-34 -194h-291l17 98h189l7 39q-40 7 -74 30.5t-56.5 58.5t-31.5 81t0 100
q13 74 51.5 133t95 100t126 63t143.5 22q73 0 133.5 -22.5t100.5 -64t57 -100t4 -130.5q-9 -52 -35.5 -98t-63 -82t-78.5 -60t-81 -31l-7 -39h196l-17 -98h-291z" />
    <glyph glyph-name="u0390" unicode="&#x390;" horiz-adv-x="289" 
d="M-6 594q4 21 22 37.5t41 16.5q24 0 37 -16.5t9 -37.5q-5 -21 -23 -38t-42 -17q-23 0 -35.5 17t-8.5 38zM291 594q4 21 22.5 37.5t42.5 16.5q23 0 36 -16.5t9 -37.5t-22.5 -38t-42.5 -17q-23 0 -36 17t-9 38zM183 757h88l-48 -214h-68zM148 0h-116l85 484h118z" />
    <glyph glyph-name="u0391" unicode="&#x391;" horiz-adv-x="713" 
d="M72 0h-140l453 708h120l140 -708h-129l-31 162h-314zM228 264h243l-54 309z" />
    <glyph glyph-name="u0392" unicode="&#x392;" horiz-adv-x="644" 
d="M153 708h244q37 0 73.5 -8t66 -26.5t48 -48t18.5 -72.5q0 -72 -42 -118t-111 -63v-2q56 -9 92.5 -48.5t36.5 -102.5q0 -60 -25.5 -102t-71 -68t-108 -37.5t-136.5 -11.5h-210zM219 411h122q22 0 47 5.5t45 18.5t33.5 34.5t13.5 53.5q0 46 -34.5 65.5t-85.5 19.5h-107z
M164 100h114q35 0 67 6.5t57 21.5t39.5 39.5t14.5 59.5q0 44 -33 68.5t-95 24.5h-126z" />
    <glyph glyph-name="u0393" unicode="&#x393;" horiz-adv-x="526" 
d="M154 0h-126l124 708h426l-19 -110h-300z" />
    <glyph glyph-name="u0394" unicode="&#x394;" horiz-adv-x="724" 
d="M-28 0l18 103l373 605h124l163 -604l-18 -104h-660zM409 573l-281 -466h396z" />
    <glyph glyph-name="u0395" unicode="&#x395;" horiz-adv-x="595" 
d="M166 106h348l-18 -106h-468l125 708h440l-18 -106h-322l-33 -187h307l-18 -100h-307z" />
    <glyph glyph-name="u0396" unicode="&#x396;" horiz-adv-x="606" 
d="M612 608l-464 -501h382l-19 -107h-539l18 105l462 497h-349l18 106h509z" />
    <glyph glyph-name="u0397" unicode="&#x397;" horiz-adv-x="738" 
d="M153 708h122l-51 -287h323l50 287h123l-125 -708h-122l55 315h-322l-56 -315h-122z" />
    <glyph glyph-name="u0398" unicode="&#x398;" horiz-adv-x="843" 
d="M380 -18q-75 0 -136.5 22t-104.5 62.5t-66.5 97.5t-23.5 127q0 90 31.5 169.5t87 138.5t131.5 93t166 34q75 0 136 -22t104 -62.5t66.5 -97t23.5 -126.5q0 -90 -31 -169.5t-86 -139t-131 -93.5t-167 -34zM386 92q51 0 94.5 17t77.5 47t58 70t37 86h-476v-10
q0 -44 13.5 -82t40 -66.5t65.5 -45t90 -16.5zM666 408q0 43 -13.5 81.5t-40 67t-65.5 45t-89 16.5t-92.5 -16.5t-76.5 -45t-58.5 -67t-37.5 -82.5h473v1z" />
    <glyph glyph-name="u0399" unicode="&#x399;" horiz-adv-x="291" 
d="M151 0h-123l125 708h123z" />
    <glyph glyph-name="u039A" unicode="&#x39a;" horiz-adv-x="653" 
d="M219 401h2l318 307h162l-365 -333l272 -375h-155l-240 353h-3l-61 -353h-121l125 708h121z" />
    <glyph glyph-name="u039B" unicode="&#x39b;" horiz-adv-x="698" 
d="M67 0h-135l413 708h127l167 -708h-138l-122 539z" />
    <glyph glyph-name="u039C" unicode="&#x39c;" horiz-adv-x="923" 
d="M435 191h2l287 517h184l-125 -708h-121l100 555h-3l-316 -555h-81l-119 555h-3l-95 -555h-117l125 708h176z" />
    <glyph glyph-name="u039D" unicode="&#x39d;" horiz-adv-x="772" 
d="M534 177h2l93 531h121l-125 -708h-141l-239 537h-2l-93 -537h-121l125 708h141z" />
    <glyph glyph-name="u039E" unicode="&#x39e;" horiz-adv-x="653" 
d="M649 708l-18 -108h-499l19 108h498zM560 413l-18 -100h-426l18 100h426zM550 108l-18 -108h-505l18 108h505z" />
    <glyph glyph-name="u039F" unicode="&#x39f;" horiz-adv-x="843" 
d="M380 -18q-75 0 -136.5 22t-104.5 62.5t-66.5 97.5t-23.5 127q0 90 31.5 169.5t87 138.5t131.5 93t166 34q75 0 136 -22t104 -62.5t66.5 -97t23.5 -126.5q0 -90 -31 -169.5t-86 -139t-131 -93.5t-167 -34zM666 408q0 43 -13.5 81.5t-40 67t-65.5 45t-89 16.5
q-64 0 -116 -27t-88.5 -71t-56.5 -101t-20 -117q0 -44 13.5 -82t40 -66.5t65.5 -45t90 -16.5q64 0 116 26.5t88.5 70.5t56 101t19.5 118z" />
    <glyph glyph-name="u03A0" unicode="&#x3a0;" horiz-adv-x="730" 
d="M711 708l-124 -708h-125l105 600h-309l-105 -600h-125l124 708h559z" />
    <glyph glyph-name="u03A1" unicode="&#x3a1;" horiz-adv-x="612" 
d="M153 708h213q115 0 177 -48.5t62 -136.5q0 -58 -21 -100.5t-59.5 -70.5t-92 -41.5t-119.5 -13.5h-111l-52 -297h-122zM219 395h99q75 0 119.5 27.5t44.5 88.5q0 55 -36 75.5t-95 20.5h-94z" />
    <glyph glyph-name="u03A3" unicode="&#x3a3;" horiz-adv-x="598" 
d="M11 0l14 86l321 267l1 6l-227 262l15 87h501l-18 -105h-338l220 -241l-2 -11l-289 -247h329l-18 -104h-509z" />
    <glyph glyph-name="u03A4" unicode="&#x3a4;" horiz-adv-x="565" 
d="M279 0h-122l106 602h-216l19 106h552l-18 -106h-214z" />
    <glyph glyph-name="u03A5" unicode="&#x3a5;" horiz-adv-x="617" 
d="M291 0h-122l53 303l-180 405h139l119 -303l240 303h150l-345 -405z" />
    <glyph glyph-name="u03A6" unicode="&#x3a6;" horiz-adv-x="908" 
d="M576 693q73 -8 131.5 -35.5t96.5 -71.5t53 -103t3 -129q-12 -71 -48.5 -130t-90 -103t-121.5 -72t-144 -36l-13 -75h-119l13 75q-74 8 -132.5 35.5t-97 72t-53.5 103.5t-3 130t48.5 130t90.5 103t122 71t145 35l12 70h120zM185 354q-8 -44 -1 -82t29 -68t58 -50t86 -27
l80 453q-53 -7 -96 -27t-75 -50t-53 -68t-28 -81zM727 354q7 43 0 81t-28.5 67.5t-57.5 49.5t-85 28l-80 -452q52 7 95 27.5t75 50t52.5 67.5t28.5 81z" />
    <glyph glyph-name="u03A7" unicode="&#x3a7;" horiz-adv-x="664" 
d="M351 455l212 253h152l-304 -341l178 -367h-143l-125 281l-237 -281h-156l333 373l-162 335h141z" />
    <glyph glyph-name="u03A8" unicode="&#x3a8;" horiz-adv-x="835" 
d="M447 246h20q72 0 122.5 42t64.5 123l52 297h125q-7 -40 -16 -90q-8 -43 -18 -101t-22 -127q-11 -64 -42 -112t-75 -80t-98.5 -48t-112.5 -16h-20l-23 -134h-125l24 134h-25q-58 0 -105.5 16t-80 48t-45.5 80t-2 112l56 318h125q-8 -46 -17 -95q-8 -42 -17 -95t-18 -107
q-14 -81 21 -123t107 -42h20l81 462h125z" />
    <glyph glyph-name="u03A9" unicode="&#x3a9;" horiz-adv-x="841" 
d="M420 0l34 193q85 20 139 71.5t69 137.5q18 102 -32.5 156.5t-149.5 54.5q-49 0 -92.5 -14t-78 -40.5t-58 -66t-32.5 -90.5q-8 -44 -1 -80t26 -62.5t48.5 -43t67.5 -22.5l-34 -194h-291l17 98h189l7 39q-40 7 -74 30.5t-56.5 58.5t-31.5 81t0 100q13 74 52 133t95 100
t125.5 63t143.5 22q73 0 133.5 -22.5t100.5 -64t57 -100t4 -130.5q-9 -52 -35.5 -98t-63 -82t-78.5 -60t-81 -31l-7 -39h196l-17 -98h-291z" />
    <glyph glyph-name="u03AA" unicode="&#x3aa;" horiz-adv-x="297" 
d="M151 0h-123l125 708h123zM62 845q2 29 23 49.5t51 20.5q28 0 45.5 -18.5t15.5 -44.5q-2 -28 -22.5 -49t-50.5 -21q-29 0 -46.5 18.5t-15.5 44.5zM269 845q2 29 23 49.5t51 20.5q28 0 45 -18.5t15 -44.5q-2 -28 -22.5 -49t-50.5 -21q-29 0 -46 18.5t-15 44.5z" />
    <glyph glyph-name="u03AB" unicode="&#x3ab;" horiz-adv-x="620" 
d="M336 0h-123l53 303l-187 405h142l125 -303l236 303h148l-341 -405zM253 845q2 29 23 49.5t51 20.5q28 0 45 -18.5t16 -44.5q-2 -28 -23 -49t-50 -21t-46.5 18.5t-15.5 44.5zM460 845q2 29 22.5 49.5t51.5 20.5q28 0 45 -18.5t15 -44.5q-2 -28 -22.5 -49t-50.5 -21
q-29 0 -46 18.5t-15 44.5z" />
    <glyph glyph-name="u03AC" unicode="&#x3ac;" horiz-adv-x="644" 
d="M377 744h99l-45 -200h-78zM403 71q-34 -41 -84 -62.5t-100 -21.5q-56 0 -97 20.5t-65.5 55.5t-32.5 81.5t1 98.5t34 98.5t62 81t84.5 54.5t102.5 20q53 0 91.5 -22t57.5 -57h2l12 67h120l-85 -485h-113l12 71h-2zM143 243q-6 -31 -1.5 -59.5t19.5 -50t40 -34t60 -12.5
q33 0 62.5 12.5t52.5 33.5t38.5 49.5t21.5 60.5q6 31 0 59.5t-21.5 50t-40.5 34t-58 12.5q-36 0 -65 -12.5t-51.5 -34t-36.5 -50t-20 -59.5z" />
    <glyph glyph-name="u03AD" unicode="&#x3ad;" horiz-adv-x="537" 
d="M305 744h99l-44 -200h-79zM429 348q-10 15 -27 27q-15 10 -39 18.5t-61 8.5q-22 0 -43 -3.5t-38.5 -11t-28.5 -18t-14 -25.5q-3 -16 6 -27t25.5 -18t39 -10t48.5 -3h87l-15 -86h-79q-72 0 -112 -13t-45 -45q-3 -16 6 -26.5t25 -17t37 -9.5t43 -3q44 0 76 8t53 18
q25 11 42 27l49 -71q-6 -5 -23.5 -18.5t-48.5 -27.5t-74 -25t-100 -11q-47 0 -88 9t-70 26.5t-43 44t-8 61.5q5 30 21.5 52t37 36.5t42.5 21.5t39 9v2q-16 4 -32.5 12t-29.5 21.5t-19.5 32.5t-2.5 44q6 33 28.5 59t56 44.5t77 28t91.5 9.5q51 0 85.5 -10.5t57 -24.5t34 -29
t16.5 -24z" />
    <glyph glyph-name="u03AE" unicode="&#x3ae;" horiz-adv-x="599" 
d="M310 744h100l-45 -200h-79zM221 484q-3 -17 -6.5 -38.5t-5.5 -35.5h2q12 18 31.5 34t42.5 28t49 18.5t51 6.5q48 0 80 -16t50 -43t22.5 -63.5t-2.5 -76.5l-95 -538h-119l89 506q5 28 4 52t-10 42t-27 28t-48 10q-52 0 -91 -38t-51 -104l-45 -256h-120l64 369
q4 21 9.5 54.5t9.5 60.5h116z" />
    <glyph glyph-name="u03AF" unicode="&#x3af;" horiz-adv-x="321" 
d="M158 744h99l-45 -200h-78zM139 0h-117l85 484h118z" />
    <glyph glyph-name="u03B0" unicode="&#x3b0;" horiz-adv-x="589" 
d="M223 -13q-63 0 -103 18t-61.5 48t-26.5 68t2 78l50 285h120l-47 -263q-5 -26 -3.5 -50t10.5 -42.5t28 -29.5t50 -11t53.5 11t38.5 29.5t25.5 42.5t14.5 50l46 263h120l-50 -285q-7 -40 -26 -78t-52 -68t-79.5 -48t-109.5 -18zM131 594q4 21 22 37.5t42 16.5
q23 0 36 -16.5t9 -37.5t-22.5 -38t-42.5 -17q-23 0 -35.5 17t-8.5 38zM429 594q4 21 22.5 37.5t41.5 16.5t36 -16.5t9 -37.5t-22.5 -38t-41.5 -17q-24 0 -36.5 17t-8.5 38zM320 757h88l-48 -214h-67z" />
    <glyph glyph-name="u03B1" unicode="&#x3b1;" horiz-adv-x="644" 
d="M403 71q-34 -41 -84 -62.5t-100 -21.5q-56 0 -97 20.5t-65.5 55.5t-32.5 81.5t1 98.5t34 98.5t62 81t84.5 54.5t102.5 20q53 0 91.5 -22t57.5 -57h2l12 67h120l-85 -485h-113l12 71h-2zM143 243q-6 -31 -1.5 -59.5t19.5 -50t40 -34t60 -12.5q33 0 62.5 12.5t52.5 33.5
t38.5 49.5t21.5 60.5q6 31 0 59.5t-21.5 50t-40.5 34t-58 12.5q-36 0 -65 -12.5t-51.5 -34t-36.5 -50t-20 -59.5z" />
    <glyph glyph-name="u03B2" unicode="&#x3b2;" horiz-adv-x="657" 
d="M204 284q-3 -14 -4.5 -26.5t-3.5 -25.5q-9 -69 22.5 -104.5t91.5 -35.5q28 0 54.5 8t47.5 24t35.5 40t19.5 55q11 60 -22 94.5t-107 34.5h-53l16 98h44q38 0 69.5 21.5t44.5 62.5q7 21 7 45q-1 41 -26.5 62t-63.5 21q-45 0 -81.5 -31.5t-48.5 -102.5zM-9 -240l137 776
q9 54 33.5 95.5t60 70t80 43t94.5 14.5q46 0 85 -13t66 -37.5t39 -60t4 -80.5q-6 -34 -21.5 -62.5t-36 -49.5t-43.5 -34.5t-45 -16.5q0 -1 -0.5 -1.5t-0.5 -1.5q24 -1 54 -11.5t54.5 -33t37.5 -58.5t4 -88q-9 -50 -34 -91t-61.5 -70t-81.5 -45t-93 -16q-49 0 -79 14.5
t-47 31.5t-23 32t-6 17l-57 -324h-120z" />
    <glyph glyph-name="u03B3" unicode="&#x3b3;" horiz-adv-x="575" 
d="M245 -240h-120l48 271l-147 453h136l91 -344l205 344h131l-296 -453z" />
    <glyph glyph-name="u03B4" unicode="&#x3b4;" horiz-adv-x="627" 
d="M127 624q6 31 28.5 55.5t58.5 41.5t84 26.5t104 9.5q51 0 89.5 -6.5t65.5 -14.5q32 -9 55 -20l-45 -102q-23 11 -51 21q-24 8 -58 14.5t-75 6.5q-47 0 -80 -11t-37 -34q-4 -22 20 -36.5t82 -37.5q36 -15 74 -39.5t66.5 -60.5t42.5 -84.5t3 -111.5q-9 -53 -35.5 -99.5
t-67 -81t-93 -54.5t-113.5 -20q-58 0 -103 19t-73.5 53t-40 80.5t-1.5 102.5q9 51 34 92.5t59 71.5t73.5 48t77.5 23q8 2 14 3t11 1l4 5q-6 1 -17 5q-9 3 -23.5 8.5t-36.5 14.5q-15 6 -33.5 14t-34 21t-24.5 31.5t-4 44.5zM436 242q6 33 0.5 61t-21 48.5t-40.5 32t-58 11.5
q-34 0 -63 -12t-51 -32.5t-36.5 -48.5t-20.5 -61t-1 -61t20 -48.5t40 -32.5t58 -12q34 0 63 12t51.5 32.5t37.5 49t21 61.5z" />
    <glyph glyph-name="u03B5" unicode="&#x3b5;" horiz-adv-x="537" 
d="M429 348q-10 15 -27 27q-15 10 -39 18.5t-61 8.5q-22 0 -43 -3.5t-38.5 -11t-28.5 -18t-14 -25.5q-3 -16 6 -27t25.5 -18t39 -10t48.5 -3h87l-15 -86h-79q-72 0 -112 -13t-45 -45q-3 -16 6 -26.5t25 -17t37 -9.5t43 -3q44 0 76 8t53 18q25 11 42 27l49 -71
q-6 -5 -23.5 -18.5t-48.5 -27.5t-74 -25t-100 -11q-47 0 -88 9t-70 26.5t-43 44t-8 61.5q5 30 21.5 52t37 36.5t42.5 21.5t39 9v2q-16 4 -32.5 12t-29.5 21.5t-19.5 32.5t-2.5 44q6 33 28.5 59t56 44.5t77 28t91.5 9.5q51 0 85.5 -10.5t57 -24.5t34 -29t16.5 -24z" />
    <glyph glyph-name="u03B6" unicode="&#x3b6;" horiz-adv-x="534" 
d="M235 1q-39 10 -78.5 29t-68.5 50t-42.5 77t-1.5 112q13 76 49.5 136t83.5 107.5t100.5 82.5t101.5 61h-243l17 99h428l-14 -82q-80 -46 -149 -90t-121.5 -91t-87 -100t-45.5 -116q-8 -44 -0.5 -74t30 -52t60 -39t88.5 -34q55 -17 83.5 -51.5t19.5 -90.5q-7 -41 -30 -72.5
t-52.5 -54.5t-60.5 -37.5t-53 -20.5l-71 61q23 8 47.5 18.5t45.5 24t35.5 30t18.5 36.5q3 19 -3.5 32.5t-19.5 22.5t-30.5 15t-36.5 11z" />
    <glyph glyph-name="u03B7" unicode="&#x3b7;" horiz-adv-x="599" 
d="M221 484q-3 -17 -6.5 -38.5t-5.5 -35.5h2q12 18 31.5 34t42.5 28t49 18.5t51 6.5q48 0 80 -16t50 -43t22.5 -63.5t-2.5 -76.5l-95 -538h-119l89 506q5 28 4 52t-10 42t-27 28t-48 10q-52 0 -91 -38t-51 -104l-45 -256h-120l64 369q4 21 9.5 54.5t9.5 60.5h116z" />
    <glyph glyph-name="u03B8" unicode="&#x3b8;" horiz-adv-x="663" 
d="M400 761q67 0 111.5 -29.5t68.5 -82t28 -124t-11 -154.5t-42.5 -154t-69 -123t-97 -81.5t-125.5 -29.5t-115 29.5t-68 81.5t-26 123t12 154t43.5 154.5t71 124t97.5 82t122 29.5zM383 663q-37 0 -66.5 -18.5t-52.5 -51t-40 -77.5t-29 -97h289q7 51 6 95.5t-12.5 77.5
t-34.5 52t-60 19zM178 325q-7 -53 -6 -97.5t12.5 -77t35 -50.5t60.5 -18t66.5 19t53 51.5t40 77t28.5 95.5h-290z" />
    <glyph glyph-name="u03B9" unicode="&#x3b9;" horiz-adv-x="278" 
d="M139 0h-117l85 484h118z" />
    <glyph glyph-name="u03BA" unicode="&#x3ba;" horiz-adv-x="540" 
d="M190 278h3l221 206h147l-250 -220l181 -264h-150l-155 242h-3l-43 -242h-119l85 484h119z" />
    <glyph glyph-name="u03BB" unicode="&#x3bb;" horiz-adv-x="561" 
d="M88 0h-127l297 517l-7 39q-5 21 -9 38t-11.5 29t-20.5 18t-36 6t-41.5 -7t-29.5 -15v97q18 9 47 19.5t71 10.5q43 0 69 -10.5t41.5 -31t24 -50t16.5 -67.5l126 -593h-127l-74 380h-2z" />
    <glyph glyph-name="u03BC" unicode="&#x3bc;" horiz-adv-x="614" 
d="M102 484h120l-43 -247q-14 -79 5 -112.5t79 -33.5q54 0 92 38t52 117l42 238h119l-67 -381q-5 -26 -8 -51.5t-5 -51.5h-121l9 71h-2q-23 -38 -57 -60.5t-75 -22.5q-46 0 -68 20.5t-26 57.5h-2l-54 -306h-118z" />
    <glyph glyph-name="u03BD" unicode="&#x3bd;" horiz-adv-x="530" 
d="M253 0h-128l-94 484h123l56 -359h3l200 359h128z" />
    <glyph glyph-name="u03BE" unicode="&#x3be;" horiz-adv-x="546" 
d="M29 180q8 45 32 78t58.5 55.5t76.5 35.5t84 18q-36 4 -71.5 13t-62 26.5t-40.5 45t-6 68.5q6 34 23 58t41.5 40t55.5 25.5t65 15.5v5h-21t-30 -0.5t-44 -0.5h-63l16 91h399l-15 -88q-71 -5 -124 -12.5t-89.5 -22t-57 -38t-26.5 -59.5q-5 -30 3.5 -50.5t28.5 -34
t49.5 -19.5t66.5 -6h99l-20 -116h-126q-35 0 -64.5 -7.5t-52 -22t-37 -34t-18.5 -43.5q-5 -28 1.5 -47.5t24 -33t46.5 -23t70 -16.5q47 -8 76 -23t44 -33.5t18.5 -41t-0.5 -45.5q-7 -40 -30.5 -71t-53.5 -53.5t-61.5 -37t-55.5 -20.5l-80 52q17 4 41 13t47 22.5t40 30.5
t21 38q2 13 -0.5 26t-13.5 24.5t-34 21t-61 16.5q-31 5 -64.5 15.5t-59.5 30.5t-40 52t-5 82z" />
    <glyph glyph-name="u03BF" unicode="&#x3bf;" horiz-adv-x="623" 
d="M262 -13q-51 0 -94 15t-74.5 42.5t-49.5 67t-18 87.5q0 60 21 114.5t59 95.5t92 65t120 24q52 0 95.5 -15t75 -42.5t49.5 -66.5t18 -87q0 -62 -21 -116.5t-59 -95t-92.5 -64.5t-121.5 -24zM439 276q0 54 -33 89.5t-93 35.5q-38 0 -69 -15.5t-53 -41.5t-34.5 -60.5
t-12.5 -73.5q0 -54 32.5 -90t92.5 -36q38 0 69 15.5t53.5 41.5t35 61t12.5 74z" />
    <glyph glyph-name="u03C0" unicode="&#x3c0;" horiz-adv-x="609" 
d="M142 0h-120l85 484h449l-85 -484h-120l68 389h-209z" />
    <glyph glyph-name="u03C1" unicode="&#x3c1;" horiz-adv-x="640" 
d="M89 -240h-116l84 474q11 63 40 112t70.5 82.5t93 51.5t108.5 18q55 0 98.5 -19t72 -53.5t40 -82t1.5 -103.5t-38 -102.5t-68.5 -80t-91 -52t-105.5 -18.5q-46 0 -81.5 16.5t-53.5 42.5h-3zM464 242q6 34 1.5 62.5t-19.5 49.5t-40 32.5t-60 11.5q-33 0 -62 -12t-52 -33
t-38.5 -49.5t-21.5 -61.5q-6 -35 0 -64t22 -49.5t40.5 -31.5t56.5 -11q36 0 65 12t51 33t36.5 49.5t20.5 61.5z" />
    <glyph glyph-name="u03C2" unicode="&#x3c2;" horiz-adv-x="526" 
d="M282 90q25 -6 52 -16.5t47.5 -28t31.5 -44.5t4 -66q-7 -41 -30.5 -72.5t-52.5 -54.5t-60 -37.5t-53 -20.5l-72 61q24 8 48.5 18.5t45.5 24t35.5 30t17.5 36.5q4 22 -2.5 35.5t-18.5 21.5t-27.5 12.5t-29.5 7.5q-16 3 -38 9t-45.5 16.5t-45.5 27.5t-37.5 42.5t-22 61.5
t2.5 84q11 62 40.5 110.5t71 81.5t91.5 50.5t103 17.5q28 0 55.5 -5t51 -15t42.5 -25t31 -35l-88 -77q-11 23 -37 40.5t-69 17.5q-63 0 -111 -39.5t-62 -114.5q-7 -42 2 -69t28 -44t45.5 -26t55.5 -16z" />
    <glyph glyph-name="u03C3" unicode="&#x3c3;" horiz-adv-x="629" 
d="M529 388q0 -1 -0.5 -1.5t-0.5 -1.5q13 -15 23.5 -54t0.5 -92q-9 -54 -36.5 -100.5t-68.5 -80.5t-92.5 -53.5t-108.5 -19.5t-101 19.5t-72.5 54t-39.5 81.5t-2 102q10 55 37.5 102.5t68 81.5t91.5 53.5t108 19.5q27 0 46 -2t37 -4.5t39 -4.5t52 -2h158l-17 -98h-122z
M438 242q6 33 1 61.5t-20.5 49.5t-40.5 33.5t-59 12.5t-63 -12.5t-52 -33.5t-38.5 -49.5t-21.5 -61.5t-0.5 -61.5t21 -49.5t40.5 -33t59 -12t63 12t52 33t38 49.5t21 61.5z" />
    <glyph glyph-name="u03C4" unicode="&#x3c4;" horiz-adv-x="473" 
d="M43 484h461l-17 -95h-171l-68 -389h-120l69 389h-171z" />
    <glyph glyph-name="u03C5" unicode="&#x3c5;" horiz-adv-x="589" 
d="M223 -13q-63 0 -103 18t-61.5 48t-26.5 68t2 78l50 285h120l-47 -263q-5 -26 -3.5 -50t10.5 -42.5t28 -29.5t50 -11t53.5 11t38.5 29.5t25.5 42.5t14.5 50l46 263h120l-50 -285q-7 -40 -26 -78t-52 -68t-79.5 -48t-109.5 -18z" />
    <glyph glyph-name="u03C6" unicode="&#x3c6;" horiz-adv-x="824" 
d="M641 246q7 42 -3.5 69.5t-31 43.5t-46.5 22.5t-49 6.5h-30l-53 -299q86 1 142.5 41t70.5 116zM26 246q10 55 35 96.5t58 71.5t71.5 49.5t75.5 30.5l36 -87q-25 -7 -50.5 -20t-47 -32.5t-37.5 -45.5t-22 -59q-8 -41 1.5 -71t32.5 -49.5t58 -29.5t79 -11l71 398h147
q55 0 101 -16t77 -47t44.5 -75.5t3.5 -101.5q-12 -66 -47 -114.5t-83.5 -80.5t-106 -48t-113.5 -16l-40 -228h-112l40 228q-66 1 -121 16t-92.5 46.5t-54 80t-4.5 115.5z" />
    <glyph glyph-name="u03C7" unicode="&#x3c7;" horiz-adv-x="592" 
d="M188 484l92 -253l181 253h126l-249 -342l142 -381h-130l-103 294l-206 -294h-129l276 383l-129 340h129z" />
    <glyph glyph-name="u03C8" unicode="&#x3c8;" horiz-adv-x="821" 
d="M426 89q83 4 135.5 50.5t69.5 145.5l35 199h120l-41 -230q-12 -69 -44 -120t-77.5 -84.5t-101 -50.5t-114.5 -18l-39 -221h-120l39 221q-59 1 -108.5 18t-83 50.5t-47.5 84.5t-2 120l41 230h119l-34 -199q-18 -99 17 -145.5t117 -50.5l70 395h119z" />
    <glyph glyph-name="u03C9" unicode="&#x3c9;" horiz-adv-x="829" 
d="M317 420q-39 -14 -68.5 -31t-50.5 -38.5t-34.5 -50t-19.5 -65.5q-12 -67 6 -105.5t63 -38.5q39 0 71 34t46 113l15 87h120l-15 -87q-14 -78 4 -112t60 -34q45 0 77 38t44 105q6 37 3 65.5t-16.5 50t-37 38.5t-57.5 31l82 73q35 -14 65 -36.5t50.5 -55.5t28 -77.5
t-2.5 -101.5q-9 -53 -30 -95.5t-51.5 -73t-71 -47t-88.5 -16.5q-64 0 -100.5 33.5t-37.5 96.5h-4q-26 -68 -75 -99t-109 -31q-95 0 -137 61.5t-23 170.5q11 60 34.5 105t55.5 77.5t69.5 53.5t76.5 35z" />
    <glyph glyph-name="u03CA" unicode="&#x3ca;" horiz-adv-x="309" 
d="M159 0h-117l85 484h118zM172 657q0 -29 -19.5 -49t-48.5 -20q-28 0 -46 16.5t-18 44.5q0 29 20 49.5t49 20.5q27 0 45 -17.5t18 -44.5zM381 657q0 -29 -19.5 -49t-48.5 -20q-27 0 -45.5 16.5t-18.5 44.5q0 29 20 49.5t49 20.5q27 0 45 -17.5t18 -44.5z" />
    <glyph glyph-name="u03CB" unicode="&#x3cb;" horiz-adv-x="589" 
d="M223 -13q-63 0 -103 18t-61.5 48t-26.5 68t2 78l50 285h120l-47 -263q-5 -26 -3.5 -50t10.5 -42.5t28 -29.5t50 -11t53.5 11t38.5 29.5t25.5 42.5t14.5 50l46 263h120l-50 -285q-7 -40 -26 -78t-52 -68t-79.5 -48t-109.5 -18zM303 654q-4 -28 -26 -47.5t-49 -19.5
q-28 0 -45.5 18.5t-13.5 46.5q3 28 25 48t50 20t45 -19t14 -47zM511 654q-3 -28 -25 -47.5t-50 -19.5t-45 18.5t-13 46.5q2 28 24 48t50 20t45 -19t14 -47z" />
    <glyph glyph-name="u03CC" unicode="&#x3cc;" horiz-adv-x="623" 
d="M322 744h99l-45 -200h-78zM262 -13q-51 0 -94 15t-74.5 42.5t-49.5 67t-18 87.5q0 60 21 114.5t59 95.5t92 65t120 24q52 0 95.5 -15t75 -42.5t49.5 -66.5t18 -87q0 -62 -21 -116.5t-59 -95t-92.5 -64.5t-121.5 -24zM439 276q0 54 -33 89.5t-93 35.5q-38 0 -69 -15.5
t-53 -41.5t-34.5 -60.5t-12.5 -73.5q0 -54 32.5 -90t92.5 -36q38 0 69 15.5t53.5 41.5t35 61t12.5 74z" />
    <glyph glyph-name="u03CD" unicode="&#x3cd;" horiz-adv-x="589" 
d="M306 744h99l-45 -200h-78zM223 -13q-63 0 -103 18t-61.5 48t-26.5 68t2 78l50 285h120l-47 -263q-5 -26 -3.5 -50t10.5 -42.5t28 -29.5t50 -11t53.5 11t38.5 29.5t25.5 42.5t14.5 50l46 263h120l-50 -285q-7 -40 -26 -78t-52 -68t-79.5 -48t-109.5 -18z" />
    <glyph glyph-name="u03CE" unicode="&#x3ce;" horiz-adv-x="829" 
d="M417 744h100l-45 -200h-79zM317 420q-39 -14 -68.5 -31t-50.5 -38.5t-34.5 -50t-19.5 -65.5q-12 -67 6 -105.5t63 -38.5q39 0 71 34t46 113l15 87h120l-15 -87q-14 -78 4 -112t60 -34q45 0 77 38t44 105q6 37 3 65.5t-16.5 50t-37 38.5t-57.5 31l82 73q35 -14 65 -36.5
t50.5 -55.5t28 -77.5t-2.5 -101.5q-9 -53 -30 -95.5t-51.5 -73t-71 -47t-88.5 -16.5q-64 0 -100.5 33.5t-37.5 96.5h-4q-26 -68 -75 -99t-109 -31q-95 0 -137 61.5t-23 170.5q11 60 34.5 105t55.5 77.5t69.5 53.5t76.5 35z" />
    <glyph glyph-name="u0401" unicode="&#x401;" horiz-adv-x="601" 
d="M166 106h348l-18 -106h-468l125 708h440l-18 -106h-322l-33 -187h307l-18 -100h-307zM356 853q0 -29 -19.5 -49.5t-48.5 -20.5q-28 0 -46 17t-18 44q0 30 20 50t49 20q27 0 45 -17t18 -44zM565 853q0 -29 -19.5 -49.5t-48.5 -20.5q-27 0 -45.5 17t-18.5 44q0 30 20 50
t49 20q27 0 45 -17t18 -44z" />
    <glyph glyph-name="u0402" unicode="&#x402;" horiz-adv-x="718" 
d="M50 600l18 108h535l-18 -108h-230l-25 -138h109q65 0 111 -16.5t73 -47t35.5 -74t-0.5 -96.5q-9 -48 -32.5 -89.5t-61 -72.5t-89 -48.5t-114.5 -17.5h-32l18 106h38q51 0 93 31t53 90q11 61 -18.5 93.5t-104.5 32.5h-97l-62 -353h-125l106 600h-180z" />
    <glyph glyph-name="u0403" unicode="&#x403;" horiz-adv-x="526" 
d="M377 764h-92l128 144h128zM154 0h-126l124 708h426l-19 -110h-300z" />
    <glyph glyph-name="u0404" unicode="&#x404;" horiz-adv-x="702" 
d="M659 109q-24 -27 -55 -50t-67.5 -40t-79 -27t-90.5 -10q-83 0 -147.5 28t-105.5 77.5t-56.5 117.5t-1.5 149t54.5 149t99.5 117.5t133 77.5t156 28q87 0 148.5 -27.5t90.5 -79.5l-102 -88q-17 35 -55.5 59t-100.5 24q-46 0 -88.5 -14.5t-78 -41t-63 -64t-43.5 -83.5h370
l-18 -101h-372q-2 -50 12 -89.5t41 -67.5t65 -43t84 -15q56 0 105.5 21.5t93.5 66.5z" />
    <glyph glyph-name="u0405" unicode="&#x405;" horiz-adv-x="579" 
d="M481 565q-20 27 -52.5 43.5t-74.5 16.5q-23 0 -47.5 -6.5t-44.5 -20t-33 -35t-13 -50.5q0 -21 8 -36t22 -27t33.5 -21.5t43.5 -18.5q39 -14 73.5 -31.5t59.5 -41t39.5 -54t14.5 -70.5q0 -51 -20 -93.5t-56.5 -73.5t-87 -48t-111.5 -17q-35 0 -70.5 7t-67.5 20.5t-59 33.5
t-46 47l96 73q20 -33 61 -55.5t89 -22.5q28 0 54 7.5t46 22.5t31.5 36.5t11.5 49.5q0 24 -9.5 41.5t-27 31t-40.5 24t-50 20.5q-33 12 -62.5 27t-52 36.5t-36 51t-13.5 70.5q0 50 20 91.5t55.5 71t85 46t109.5 16.5q67 0 124 -23.5t86 -64.5z" />
    <glyph glyph-name="u0406" unicode="&#x406;" horiz-adv-x="291" 
d="M151 0h-123l125 708h123z" />
    <glyph glyph-name="u0407" unicode="&#x407;" horiz-adv-x="288" 
d="M122 0h-123l125 708h123zM163 853q0 -29 -19 -49.5t-48 -20.5q-28 0 -46.5 17t-18.5 44q0 30 20 50t49 20q28 0 45.5 -17t17.5 -44zM372 853q0 -29 -19.5 -49.5t-48.5 -20.5q-27 0 -45 17t-18 44q0 30 20 50t49 20q26 0 44 -17t18 -44z" />
    <glyph glyph-name="u0408" unicode="&#x408;" horiz-adv-x="512" 
d="M89 170q5 -33 26.5 -56t58.5 -23q30 0 49.5 11t32.5 29.5t20.5 43t12.5 51.5l85 482h123l-86 -485q-7 -39 -19.5 -82t-38.5 -78.5t-68.5 -58.5t-108.5 -23q-85 0 -136 43t-63 110z" />
    <glyph glyph-name="u0409" unicode="&#x409;" horiz-adv-x="956" 
d="M69 0h-132l410 708h122l66 -281h120q66 0 118.5 -12t87.5 -38.5t49 -68t4 -101.5q-9 -48 -35 -86.5t-68 -65.5t-98.5 -41t-124.5 -14h-95l-112 564zM558 322l49 -217q31 0 60.5 5t54.5 17t42 32.5t23 52.5q6 34 -4 55.5t-31.5 33.5t-52.5 16.5t-66 4.5h-75z" />
    <glyph glyph-name="u040A" unicode="&#x40a;" horiz-adv-x="1022" 
d="M277 708l-49 -281h280l49 281h125l-49 -281h101q55 0 100.5 -13t76 -39.5t43.5 -67t3 -96.5q-9 -54 -35.5 -93.5t-66 -66t-89.5 -39t-106 -12.5h-227l56 319h-280l-56 -319h-125l124 708h125zM614 321l-37 -213h92q66 0 109.5 25t53.5 81q5 28 -2 48.5t-24 33.5t-43 19
t-58 6h-91z" />
    <glyph glyph-name="u040B" unicode="&#x40b;" horiz-adv-x="739" 
d="M307 353l-61 -353h-125l105 600h-180l19 108h535l-19 -108h-230l-25 -139h132q58 0 97 -15.5t62 -44t31 -68.5t4 -89q-3 -29 -8.5 -65.5t-12 -71.5t-12 -64t-7.5 -43h-126l28 159q8 47 9 83.5t-11 61t-39.5 37t-75.5 12.5h-90z" />
    <glyph glyph-name="u040C" unicode="&#x40c;" horiz-adv-x="693" 
d="M28 0l124 708h125l-49 -277q20 0 38 -1.5t35 -3.5l277 282h154l-312 -316q95 -45 142 -141.5t46 -250.5h-137q-1 160 -63 243.5t-198 79.5l-57 -323h-125zM412 764h-92l128 144h129z" />
    <glyph glyph-name="u040E" unicode="&#x40e;" horiz-adv-x="665" 
d="M431 764q-37 0 -68 9t-54.5 25t-38.5 36.5t-20 43.5l77 37q8 -33 33.5 -55t70.5 -22t70.5 22t33.5 55l77 -37q-5 -23 -19.5 -43.5t-38 -36.5t-55 -25t-68.5 -9zM103 708l158 -544q-24 -35 -49.5 -52.5t-58.5 -17.5q-23 0 -38.5 9t-26.5 19l-89 -92q7 -7 18 -15t26.5 -15
t36.5 -11.5t49 -4.5q47 0 85 13t69 35.5t57 53.5t49 68l349 554h-141l-247 -406l-117 406h-130z" />
    <glyph glyph-name="u040F" unicode="&#x40f;" horiz-adv-x="735" 
d="M486 108l105 600h125l-124 -708h-221l-24 -139h-108l24 139h-235l124 708h125l-105 -600h314z" />
    <glyph glyph-name="u0410" unicode="&#x410;" horiz-adv-x="703" 
d="M72 0h-140l453 708h120l140 -708h-129l-31 162h-314zM228 264h243l-54 309z" />
    <glyph glyph-name="u0411" unicode="&#x411;" horiz-adv-x="636" 
d="M278 108q65 0 110.5 26.5t55.5 80.5q5 27 -2.5 47t-25 32.5t-43 18.5t-56.5 6h-108l-37 -211h106zM28 0l124 708h458l-18 -108h-334l-30 -173h119q56 0 101 -12.5t75 -39t42.5 -66.5t3.5 -94q-10 -55 -37.5 -95.5t-67.5 -67t-90 -39.5t-105 -13h-241z" />
    <glyph glyph-name="u0412" unicode="&#x412;" horiz-adv-x="651" 
d="M153 708h244q37 0 73.5 -8t66 -26.5t48 -48t18.5 -72.5q0 -72 -42 -118t-111 -63v-2q56 -9 92.5 -48.5t36.5 -102.5q0 -60 -25.5 -102t-71 -68t-108 -37.5t-136.5 -11.5h-210zM219 411h122q22 0 47 5.5t45 18.5t33.5 34.5t13.5 53.5q0 46 -34.5 65.5t-85.5 19.5h-107z
M164 100h114q35 0 67 6.5t57 21.5t39.5 39.5t14.5 59.5q0 44 -33 68.5t-95 24.5h-126z" />
    <glyph glyph-name="u0413" unicode="&#x413;" horiz-adv-x="541" 
d="M154 0h-126l124 708h426l-19 -110h-300z" />
    <glyph glyph-name="u0414" unicode="&#x414;" horiz-adv-x="780" 
d="M53 0l-25 -139h-107l42 247h98l359 600h120l98 -600h113l-44 -247h-109l25 139h-570zM197 108h316l-60 451z" />
    <glyph glyph-name="u0415" unicode="&#x415;" horiz-adv-x="600" 
d="M166 106h348l-18 -106h-468l125 708h440l-18 -106h-322l-33 -187h307l-18 -100h-307z" />
    <glyph glyph-name="u0416" unicode="&#x416;" horiz-adv-x="990" 
d="M438 320q-57 0 -107 -23t-90.5 -65t-72.5 -101t-53 -131h-137q45 152 113.5 248t168.5 140l-154 320h133l138 -287q19 4 39 5.5t41 1.5l49 280h125l-49 -280q18 0 35.5 -1.5t34.5 -3.5l242 285h143l-272 -325q163 -93 146 -383h-136q3 73 -6 132t-34 101t-67.5 65
t-104.5 22l-56 -320h-125z" />
    <glyph glyph-name="u0417" unicode="&#x417;" horiz-adv-x="616" 
d="M199 413l72 1q28 0 58 5t55 18t41 35.5t16 57.5q-1 41 -31 66t-79 27q-42 2 -75 -19.5t-54 -59.5l-99 53q40 64 103 97.5t143 31.5q41 -2 81.5 -13.5t73 -33.5t52.5 -55t20 -78q0 -37 -13.5 -67.5t-36.5 -53.5t-54.5 -38.5t-67.5 -21.5v-2q24 -5 49 -16t46 -30t34 -45.5
t13 -61.5q0 -56 -24.5 -99.5t-65 -72.5t-93 -43.5t-107.5 -12.5q-98 4 -163.5 51t-83.5 138l119 33q11 -55 44 -85t94 -32q69 -3 107 30t44 88q6 57 -38 87t-129 30l-67 -1z" />
    <glyph glyph-name="u0418" unicode="&#x418;" horiz-adv-x="792" 
d="M186 176l430 532h157l-124 -708h-124l93 532h-2l-431 -532h-157l124 708h125l-94 -532h3z" />
    <glyph glyph-name="u0419" unicode="&#x419;" horiz-adv-x="791" 
d="M187 181l431 527h154l-124 -708h-125l94 530h-3l-432 -530h-154l124 708h125l-93 -527h3zM460 764q-37 0 -67.5 9t-53.5 25t-37.5 36.5t-18.5 43.5l77 37q8 -33 33.5 -55t70.5 -22q44 0 74 22t44 55l73 -37q-9 -23 -26.5 -43.5t-42.5 -36.5t-57 -25t-69 -9z" />
    <glyph glyph-name="u041A" unicode="&#x41a;" horiz-adv-x="693" 
d="M28 0l124 708h125l-49 -277q20 0 38 -1.5t35 -3.5l277 282h154l-312 -316q95 -45 142 -141.5t46 -250.5h-137q-1 160 -63 243.5t-198 79.5l-57 -323h-125z" />
    <glyph glyph-name="u041B" unicode="&#x41b;" horiz-adv-x="698" 
d="M71 0h-140l452 708h120l140 -708h-129l-97 559z" />
    <glyph glyph-name="u041C" unicode="&#x41c;" horiz-adv-x="923" 
d="M435 191h2l287 517h184l-125 -708h-121l100 555h-3l-316 -555h-81l-119 555h-3l-95 -555h-117l125 708h176z" />
    <glyph glyph-name="u041D" unicode="&#x41d;" horiz-adv-x="743" 
d="M153 708h122l-51 -287h323l50 287h123l-125 -708h-122l55 315h-322l-56 -315h-122z" />
    <glyph glyph-name="u041E" unicode="&#x41e;" horiz-adv-x="851" 
d="M380 -18q-75 0 -136.5 22t-104.5 62.5t-66.5 97.5t-23.5 127q0 90 31.5 169.5t87 138.5t131.5 93t166 34q75 0 136 -22t104 -62.5t66.5 -97t23.5 -126.5q0 -90 -31 -169.5t-86 -139t-131 -93.5t-167 -34zM666 408q0 43 -13.5 81.5t-40 67t-65.5 45t-89 16.5
q-64 0 -116 -27t-88.5 -71t-56.5 -101t-20 -117q0 -44 13.5 -82t40 -66.5t65.5 -45t90 -16.5q64 0 116 26.5t88.5 70.5t56 101t19.5 118z" />
    <glyph glyph-name="u041F" unicode="&#x41f;" horiz-adv-x="730" 
d="M711 708l-124 -708h-125l105 600h-309l-105 -600h-125l124 708h559z" />
    <glyph glyph-name="u0420" unicode="&#x420;" horiz-adv-x="612" 
d="M153 708h213q115 0 177 -48.5t62 -136.5q0 -58 -21 -100.5t-59.5 -70.5t-92 -41.5t-119.5 -13.5h-111l-52 -297h-122zM219 395h99q75 0 119.5 27.5t44.5 88.5q0 55 -36 75.5t-95 20.5h-94z" />
    <glyph glyph-name="u0421" unicode="&#x421;" horiz-adv-x="707" 
d="M654 105q-21 -25 -49 -47.5t-63.5 -39.5t-78 -27t-92.5 -10q-73 0 -132.5 22t-101.5 62.5t-65 97t-23 125.5q0 91 32.5 171.5t89.5 139.5t134 93.5t166 34.5q40 0 77.5 -8t69.5 -22t57 -34.5t41 -44.5l-96 -79q-8 15 -22 29t-33 25t-43.5 18t-54.5 7q-63 0 -116 -26.5
t-91 -70.5t-59 -101t-21 -118q0 -44 13.5 -82t39.5 -66.5t65 -45t89 -16.5q55 0 104.5 22.5t87.5 67.5z" />
    <glyph glyph-name="u0422" unicode="&#x422;" horiz-adv-x="565" 
d="M279 0h-122l106 602h-216l19 106h552l-18 -106h-214z" />
    <glyph glyph-name="u0423" unicode="&#x423;" horiz-adv-x="665" 
d="M233 708l117 -406l247 406h141l-349 -554q-23 -37 -49 -68t-57 -53.5t-69 -35.5t-85 -13q-28 0 -49 4.5t-36.5 11.5t-26.5 15t-18 15l89 92q11 -10 26.5 -19t38.5 -9q33 0 58.5 17.5t49.5 52.5l-158 544h130z" />
    <glyph glyph-name="u0424" unicode="&#x424;" horiz-adv-x="908" 
d="M570 693q70 -8 125.5 -33t93.5 -64t58 -90.5t20 -113.5q0 -86 -34 -153.5t-91.5 -116.5t-133 -77t-158.5 -34l-12 -73h-120l14 77q-68 9 -121.5 34t-90.5 63.5t-56.5 90t-19.5 112.5q0 84 33 151t89 115.5t129.5 77.5t155.5 36l13 68h119zM732 392q0 34 -9 65.5t-30 56.5
t-56 42t-86 24l-81 -456q57 7 105 29t83 57t54.5 81.5t19.5 100.5zM180 315q0 -34 8.5 -65t28.5 -56t52.5 -42.5t81.5 -24.5l80 453q-54 -8 -100 -30t-79.5 -56.5t-52.5 -79.5t-19 -99z" />
    <glyph glyph-name="u0425" unicode="&#x425;" horiz-adv-x="664" 
d="M351 455l212 253h152l-304 -341l178 -367h-143l-125 281l-237 -281h-156l333 373l-162 335h141z" />
    <glyph glyph-name="u0426" unicode="&#x426;" horiz-adv-x="768" 
d="M28 0l124 708h125l-105 -600h313l106 600h125l-106 -600h82l-44 -247h-109l25 139h-536z" />
    <glyph glyph-name="u0427" unicode="&#x427;" horiz-adv-x="642" 
d="M504 708h124l-124 -708h-123l50 289h-149q-62 0 -104.5 17.5t-66 50.5t-29.5 80t4 106l29 165h125l-22 -129q-8 -45 -8.5 -79t10.5 -57t34.5 -34.5t64.5 -11.5h130z" />
    <glyph glyph-name="u0428" unicode="&#x428;" horiz-adv-x="1004" 
d="M404 108l106 600h125l-106 -600h226l106 600h125l-124 -708h-834l124 708h125l-105 -600h232z" />
    <glyph glyph-name="u0429" unicode="&#x429;" horiz-adv-x="1058" 
d="M28 0l124 708h125l-105 -600h232l106 600h125l-106 -600h227l106 600h125l-106 -600h103l-43 -247h-109l25 139h-829z" />
    <glyph glyph-name="u042A" unicode="&#x42a;" horiz-adv-x="691" 
d="M362 708l-48 -272h80q58 0 105.5 -12.5t79 -38t45 -65.5t3.5 -95q-9 -55 -39 -97t-74 -70.5t-100 -43t-118 -14.5h-183l105 600h-177l18 108h303zM256 107h85q73 0 112 32.5t48 81.5q8 49 -21 78.5t-101 29.5h-84z" />
    <glyph glyph-name="u042B" unicode="&#x42b;" horiz-adv-x="829" 
d="M277 708l-48 -272h81q58 0 105 -13t78.5 -39.5t45 -67t3.5 -95.5q-9 -55 -37 -96.5t-69.5 -69t-94 -41.5t-110.5 -14h-203l124 708h125zM172 107h85q73 0 111 28t48 85q8 48 -20.5 78.5t-100.5 30.5h-85zM810 708l-124 -708h-125l124 708h125z" />
    <glyph glyph-name="u042C" unicode="&#x42c;" horiz-adv-x="616" 
d="M152 708h125l-48 -272h92q58 0 105.5 -12.5t79 -39t45 -66t4.5 -93.5q-10 -55 -38 -97t-70 -70.5t-94 -43t-110 -14.5h-215zM210 329l-38 -222h96q73 0 112 31.5t48 81.5q8 51 -20.5 80t-101.5 29h-96z" />
    <glyph glyph-name="u042D" unicode="&#x42d;" horiz-adv-x="740" 
d="M100 177q14 -16 32 -31t40.5 -27t50 -19.5t61.5 -7.5q54 0 98.5 17t79 46.5t59 69.5t36.5 85h-380l17 101h375q-1 27 -14 52q-6 33 -21.5 61.5t-39.5 49t-57 32.5t-74 12q-39 0 -71 -9.5t-57 -23t-43.5 -28.5t-30.5 -27l-72 86q45 45 114.5 77.5t165.5 32.5
q75 0 135.5 -22t104 -62t67 -97t23.5 -127q0 -90 -31 -169.5t-86 -139t-131 -93.5t-167 -34q-51 0 -93.5 9.5t-76.5 26t-60.5 38t-46.5 45.5z" />
    <glyph glyph-name="u042E" unicode="&#x42e;" horiz-adv-x="1140" 
d="M223 410h129q18 68 55 126t89 100t117.5 66t139.5 24q75 0 136 -22t104 -62.5t66.5 -97t23.5 -126.5q0 -90 -31 -169.5t-86 -139t-131 -93.5t-167 -34q-66 0 -121.5 17.5t-97 50t-68 78t-34.5 102.5q-9 33 -9 71h-134l-53 -301h-123l125 708h123zM955 408q0 43 -14 81.5
t-40.5 67t-65.5 45t-89 16.5q-64 0 -116 -27t-88.5 -71t-56.5 -101t-20 -117q0 -44 13.5 -82t40.5 -66.5t66 -45t90 -16.5q64 0 116 26.5t88.5 70.5t56 101t19.5 118z" />
    <glyph glyph-name="u042F" unicode="&#x42f;" horiz-adv-x="710" 
d="M552 600h-100q-86 0 -132.5 -24.5t-56.5 -77.5q-8 -44 28.5 -71.5t125.5 -27.5h99zM260 337q-69 12 -105 53.5t-24 112.5q17 100 102.5 152.5t225.5 52.5h237l-124 -708h-125l51 291h-71q-95 0 -167 -69t-115 -222h-137q15 63 41 116.5t59.5 96t72 73.5t79.5 49v2z" />
    <glyph glyph-name="u0430" unicode="&#x430;" horiz-adv-x="551" 
d="M365 302q2 13 2.5 20t0.5 12q0 39 -24.5 56t-68.5 17q-37 0 -74 -14.5t-64 -36.5l-49 70q40 34 94 53t108 19q40 0 74.5 -9t60 -27t40 -46t14.5 -67q0 -11 -1.5 -27t-3.5 -29l-34 -192q-5 -26 -7.5 -54.5t-2.5 -46.5h-105q0 14 1.5 31t3.5 33h-2q-34 -40 -73 -57.5
t-92 -17.5q-25 0 -51.5 6.5t-48 21.5t-35.5 39t-14 60q0 58 31 94.5t81 57t113 27.5t126 7zM341 226q-37 0 -75 -3.5t-69.5 -13.5t-51.5 -28t-20 -47q0 -18 7 -30t18 -19t25.5 -10t29.5 -3q58 0 96.5 36t48.5 87l6 31h-15z" />
    <glyph glyph-name="u0431" unicode="&#x431;" horiz-adv-x="604" 
d="M347 481q52 0 93 -17t68 -49t37 -77.5t0 -102.5t-38 -103t-68.5 -78.5t-90.5 -50t-105 -17.5q-50 0 -90.5 15.5t-67.5 45.5t-40.5 73.5t-9.5 100.5q6 126 40 217.5t90.5 151t131.5 88.5t163 29h150l-17 -93h-151q-54 0 -94.5 -13t-70.5 -37.5t-50.5 -60t-34.5 -79.5
q30 28 72 42.5t83 14.5zM428 234q6 32 1 59t-19.5 47t-38 31t-53.5 11q-29 0 -56.5 -9t-50 -26.5t-39 -44.5t-22.5 -63q-12 -69 19 -111.5t96 -42.5q32 0 59.5 11.5t49 32t35.5 47.5t19 58z" />
    <glyph glyph-name="u0432" unicode="&#x432;" horiz-adv-x="580" 
d="M286 282q41 0 69 11t35 47q3 19 -4 30.5t-21 17.5t-34.5 8t-45.5 2h-73l-21 -116h95zM156 86h74q28 0 53 1t44.5 6.5t32.5 17.5t17 35q4 22 -5 34.5t-26.5 18.5t-42.5 7.5t-53 1.5h-73zM22 0l85 484h241q92 0 133.5 -35t31.5 -95q-5 -27 -17 -45t-29 -30t-37.5 -19.5
t-43.5 -13.5q26 -2 48.5 -9t38.5 -21t22.5 -35.5t1.5 -51.5q-10 -58 -68 -93.5t-153 -35.5h-254z" />
    <glyph glyph-name="u0433" unicode="&#x433;" horiz-adv-x="397" 
d="M142 0h-120l85 484h322l-16 -94h-203z" />
    <glyph glyph-name="u0434" unicode="&#x434;" horiz-adv-x="612" 
d="M38 -139h-102l41 235h78l223 388h136l76 -388h83l-42 -235h-103l25 139h-390zM295 310l-116 -214h191l-42 252z" />
    <glyph glyph-name="u0435" unicode="&#x435;" horiz-adv-x="585" 
d="M140 211q-1 -5 -1.5 -8.5t-0.5 -6.5q0 -27 10.5 -48.5t28 -36.5t41 -23.5t49.5 -8.5q46 0 80.5 18.5t58.5 47.5l74 -61q-45 -50 -101.5 -74t-121.5 -24q-49 0 -91 14.5t-73 42t-49 67.5t-18 92q0 61 22 114.5t60 94t90.5 64t114.5 23.5q97 0 153 -52.5t56 -145.5
q0 -15 -3 -41t-9 -48h-370zM413 287q1 6 1 13.5v12.5q0 43 -27.5 71t-81.5 28q-32 0 -58 -11t-46 -28.5t-33 -40t-18 -45.5h263z" />
    <glyph glyph-name="u0436" unicode="&#x436;" horiz-adv-x="823" 
d="M336 206q-38 -3 -71.5 -14.5t-63 -35.5t-54.5 -62t-47 -94h-132q39 94 93 157t129 98l-118 229h133l93 -190q13 3 27 4.5t28 2.5l32 183h120l-32 -183q29 -2 52 -7l160 190h133l-199 -229q63 -35 95 -98t39 -157h-133q-2 56 -14 94t-33 62t-50.5 35.5t-66.5 14.5
l-36 -206h-120z" />
    <glyph glyph-name="u0437" unicode="&#x437;" horiz-adv-x="480" 
d="M112 348l-65 53q7 9 22.5 26t41.5 33.5t64 29t90 12.5q49 0 84.5 -10.5t57.5 -29.5t30 -44t3 -54q-5 -25 -17 -45t-29.5 -34t-37.5 -23.5t-41 -13.5v-3q21 -2 41.5 -9t36 -21t23 -35.5t2.5 -50.5q-6 -37 -27.5 -64t-54 -45t-75 -27t-90.5 -9q-50 0 -83.5 11t-55 25.5
t-32.5 27.5t-16 18l75 69q4 -4 13 -13.5t24 -20t36.5 -18.5t51.5 -8q50 0 81.5 17.5t36.5 49.5q6 31 -22 47t-79 16h-72l14 79h67q44 0 76 13t38 46q5 28 -16 50t-72 22q-32 0 -55.5 -10.5t-38.5 -23.5q-18 -15 -30 -33z" />
    <glyph glyph-name="u0438" unicode="&#x438;" horiz-adv-x="652" 
d="M451 331l-308 -331h-121l85 484h120l-56 -323l307 323h120l-84 -484h-121z" />
    </font>
</defs>
</svg>
